<?xml version="1.0" encoding="UTF-8"?>
<svg id="Layer_2" data-name="Layer 2" xmlns="http://www.w3.org/2000/svg" xmlns:xlink="http://www.w3.org/1999/xlink" viewBox="0 0 509.17 63.31">
  <defs>
    <style>
      .cls-1 {
        fill: #30b2e6;
      }

      .cls-1, .cls-2, .cls-3, .cls-4, .cls-5, .cls-6, .cls-7, .cls-8, .cls-9, .cls-10, .cls-11, .cls-12, .cls-13, .cls-14, .cls-15, .cls-16, .cls-17 {
        stroke-width: 0px;
      }

      .cls-2 {
        fill: url(#linear-gradient);
      }

      .cls-3 {
        fill: #c8202c;
      }

      .cls-4 {
        fill: #ac212c;
      }

      .cls-18 {
        clip-path: url(#clippath-2);
      }

      .cls-5 {
        fill: #73c7dc;
      }

      .cls-6 {
        fill: #fcd30c;
      }

      .cls-7 {
        fill: #0d2043;
      }

      .cls-8 {
        fill: none;
      }

      .cls-9 {
        fill: #0d2143;
      }

      .cls-19 {
        clip-path: url(#clippath-1);
      }

      .cls-10 {
        fill: #b3b3b3;
      }

      .cls-11 {
        fill: #fff;
      }

      .cls-12 {
        fill: #9163a2;
      }

      .cls-13 {
        fill: #e64526;
      }

      .cls-20 {
        clip-path: url(#clippath);
      }

      .cls-14 {
        fill: #0cacc8;
      }

      .cls-15 {
        fill: #f4a51d;
      }

      .cls-16 {
        fill: #b21e3b;
      }

      .cls-17 {
        fill: #9263a0;
      }
    </style>
    <clipPath id="clippath">
      <rect class="cls-8" x="351.09" y="1.37" width="62.46" height="61.32"/>
    </clipPath>
    <clipPath id="clippath-1">
      <path class="cls-8" d="m382.41,33.57c-.6,1.04-.91,2.67-.91,4.9s.3,3.87.91,4.9c.6,1.04,1.63,1.56,3.07,1.56s2.47-.52,3.07-1.56c.6-1.04.9-2.67.9-4.9s-.3-3.86-.9-4.9c-.6-1.04-1.63-1.55-3.07-1.55s-2.47.52-3.07,1.55m-10.21-18.14c-.61.6-.92,1.35-.92,2.25s.31,1.65.92,2.25c.61.6,1.35.9,2.23.9s1.61-.3,2.22-.9c.61-.6.92-1.35.92-2.25s-.31-1.65-.92-2.25c-.61-.6-1.35-.9-2.22-.9s-1.61.3-2.23.9m9.67-5.46c-2.59,0-5.23.46-7.81,1.44-6.38,2.42-10.96,7.49-12.99,13.49,2.1-5.57,6.49-10.24,12.49-12.52,5.4-2.05,11.11-1.78,16.04.31-1.08,5.9-3.88,11.2-7.86,15.36v3.72c.74-.45,1.56-.83,2.47-1.13.91-.3,1.79-.46,2.66-.46,1.16,0,2.22.2,3.2.61.97.41,1.81.96,2.52,1.67.71.71,1.26,1.55,1.66,2.52.39.97.59,2.04.59,3.19,0,1.26-.26,2.39-.79,3.39-.53,1-1.22,1.84-2.07,2.52-.85.68-1.83,1.2-2.93,1.56-1.1.35-2.25.53-3.43.53-1.39,0-2.89-.25-4.49-.75-1.6-.5-3.06-1.13-4.37-1.89.08-.47.14-1.05.2-1.73.05-.68.09-1.42.12-2.2.03-.79.04-1.59.04-2.4v-2.32l-.02-12.5c-.97.27-2.12.47-3.46.61-1.34.13-2.8.23-4.4.28v.8c1.21,0,2.05.16,2.52.47.47.31.71.81.71,1.49v8.6c-3.7,1.69-7.81,2.66-12.13,2.71,2.38,9.64,11.08,16.79,21.46,16.79,12.21,0,22.11-9.89,22.11-22.1,0-9.38-5.84-17.39-14.08-20.6,0,0,0,0,0,.01-2.5-.98-5.18-1.5-7.93-1.5h0Z"/>
    </clipPath>
    <linearGradient id="linear-gradient" x1="1236.69" y1="6639.55" x2="1236.9" y2="6639.55" gradientTransform="translate(1371142.09 -255310.18) rotate(90) scale(206.45)" gradientUnits="userSpaceOnUse">
      <stop offset="0" stop-color="#31b1e6"/>
      <stop offset=".31" stop-color="#31b1e6"/>
      <stop offset=".42" stop-color="#2da4da"/>
      <stop offset=".62" stop-color="#2482bb"/>
      <stop offset=".88" stop-color="#154d89"/>
      <stop offset=".9" stop-color="#144986"/>
      <stop offset="1" stop-color="#144986"/>
    </linearGradient>
    <clipPath id="clippath-2">
      <rect class="cls-8" x="351.09" y="1.37" width="62.46" height="61.32"/>
    </clipPath>
  </defs>
  <g id="Layer_1-2" data-name="Layer 1">
    <g>
      <polyline class="cls-10" points="422.74 1.62 422.74 62.66 423.08 62.66 423.08 1.62"/>
      <polyline class="cls-10" points="340.99 1.62 340.99 62.66 341.33 62.66 341.33 1.62"/>
      <path class="cls-17" d="m495.73,4.64c-3,0-5.78.99-8.02,2.65,3.29,2.45,5.42,6.37,5.42,10.79s-2.13,8.34-5.42,10.79c2.24,1.67,5.01,2.65,8.02,2.65,7.42,0,13.44-6.02,13.44-13.44s-6.02-13.44-13.44-13.44"/>
      <path class="cls-5" d="m482.28,18.08c0-4.42,2.13-8.34,5.43-10.79-2.24-1.67-5.01-2.65-8.02-2.65s-5.78.99-8.02,2.65c3.29,2.45,5.42,6.37,5.42,10.79s-2.13,8.34-5.42,10.79c2.24,1.67,5.01,2.65,8.02,2.65s5.78-.99,8.02-2.65c-3.29-2.45-5.43-6.37-5.43-10.79"/>
      <path class="cls-12" d="m487.71,28.87h0c-3.29-2.45-5.43-6.37-5.43-10.79s2.13-8.34,5.43-10.79c3.29,2.45,5.42,6.37,5.42,10.79s-2.13,8.34-5.42,10.79"/>
      <path class="cls-14" d="m493.13,18.08c0-4.42-2.13-8.34-5.42-10.79-3.29,2.45-5.42,6.37-5.42,10.79s2.13,8.34,5.42,10.79c3.29-2.45,5.42-6.37,5.42-10.79"/>
      <path class="cls-13" d="m466.25,18.08c0-4.42,2.13-8.34,5.42-10.79-2.24-1.67-5.01-2.65-8.02-2.65s-5.78.99-8.02,2.65c3.29,2.45,5.42,6.37,5.42,10.79s-2.13,8.34-5.42,10.79c2.24,1.67,5.01,2.65,8.02,2.65s5.78-.99,8.02-2.65c-3.29-2.45-5.42-6.37-5.42-10.79"/>
      <path class="cls-3" d="m477.1,18.08c0-4.42-2.13-8.34-5.42-10.79-3.29,2.45-5.43,6.37-5.43,10.79s2.13,8.34,5.43,10.79c3.29-2.45,5.42-6.37,5.42-10.79"/>
      <path class="cls-6" d="m450.21,18.08c0-4.42,2.13-8.34,5.42-10.79-2.24-1.67-5.01-2.65-8.02-2.65-7.42,0-13.44,6.02-13.44,13.44s6.02,13.44,13.44,13.44c3.01,0,5.78-.99,8.02-2.65-3.29-2.45-5.42-6.37-5.42-10.79"/>
      <path class="cls-15" d="m461.06,18.08c0-4.42-2.13-8.34-5.42-10.79-3.29,2.45-5.42,6.37-5.42,10.79s2.13,8.34,5.42,10.79c3.29-2.45,5.42-6.37,5.42-10.79"/>
      <rect class="cls-10" x="445.07" y="37.5" width=".62" height="4.84"/>
      <path class="cls-10" d="m447.43,37.57c.27-.06.7-.1,1.14-.1.62,0,1.03.11,1.33.35.25.19.4.47.4.85,0,.47-.31.88-.82,1.06h0c.46.13,1,.51,1,1.23,0,.42-.17.73-.41.97-.34.31-.88.45-1.67.45-.43,0-.76-.03-.97-.06v-4.76Zm.62,1.98h.57c.66,0,1.05-.34,1.05-.81,0-.57-.43-.79-1.06-.79-.29,0-.45.02-.55.04v1.56Zm0,2.32c.12.02.3.03.52.03.65,0,1.24-.24,1.24-.94,0-.66-.57-.93-1.25-.93h-.52v1.84Z"/>
      <path class="cls-10" d="m457.51,42.18c-.23.11-.69.23-1.28.23-1.36,0-2.39-.86-2.39-2.45s1.03-2.54,2.53-2.54c.6,0,.98.13,1.15.22l-.15.51c-.24-.11-.57-.2-.98-.2-1.13,0-1.89.73-1.89,2,0,1.18.68,1.94,1.86,1.94.38,0,.77-.08,1.02-.2l.13.5Z"/>
      <path class="cls-10" d="m462.92,39.87c0,1.67-1.01,2.55-2.25,2.55s-2.17-.99-2.17-2.45c0-1.54.95-2.54,2.25-2.54s2.17,1.01,2.17,2.45m-3.75.08c0,1.03.56,1.96,1.54,1.96s1.55-.91,1.55-2.01c0-.96-.5-1.97-1.54-1.97s-1.55.96-1.55,2.02"/>
      <path class="cls-10" d="m464.38,42.34v-4.84h.68l1.55,2.45c.36.57.64,1.08.87,1.57h.01c-.06-.65-.07-1.24-.07-2v-2.02h.59v4.84h-.63l-1.54-2.45c-.34-.54-.66-1.09-.91-1.61h-.02c.04.62.05,1.2.05,2v2.07h-.59Z"/>
      <polygon class="cls-10" points="470.66 38.03 469.19 38.03 469.19 37.5 472.77 37.5 472.77 38.03 471.29 38.03 471.29 42.34 470.66 42.34 470.66 38.03"/>
      <rect class="cls-10" x="473.95" y="37.5" width=".62" height="4.84"/>
      <path class="cls-10" d="m476.31,42.34v-4.84h.68l1.55,2.45c.36.57.64,1.08.87,1.57h.01c-.06-.65-.07-1.24-.07-2v-2.02h.59v4.84h-.63l-1.54-2.45c-.34-.54-.66-1.09-.9-1.61h-.02c.04.62.05,1.2.05,2v2.07h-.59Z"/>
      <path class="cls-10" d="m482.3,37.5v2.86c0,1.08.48,1.54,1.13,1.54.72,0,1.18-.47,1.18-1.54v-2.86h.63v2.82c0,1.48-.78,2.1-1.83,2.1-.99,0-1.74-.57-1.74-2.07v-2.85h.63Z"/>
      <path class="cls-10" d="m487.59,37.5v2.86c0,1.08.48,1.54,1.13,1.54.72,0,1.18-.47,1.18-1.54v-2.86h.63v2.82c0,1.48-.78,2.1-1.83,2.1-.99,0-1.74-.57-1.74-2.07v-2.85h.63Z"/>
      <path class="cls-10" d="m496.33,40.21c-.04-.67-.08-1.49-.07-2.09h-.02c-.17.57-.37,1.17-.61,1.84l-.85,2.35h-.47l-.78-2.3c-.23-.68-.42-1.31-.56-1.88h-.01c-.01.6-.05,1.41-.09,2.14l-.13,2.07h-.6l.34-4.84h.8l.83,2.34c.2.6.37,1.13.49,1.63h.02c.12-.49.29-1.02.51-1.63l.86-2.34h.8l.3,4.84h-.61l-.12-2.12Z"/>
      <path class="cls-10" d="m439.85,50.79c-.23.12-.69.23-1.28.23-1.36,0-2.39-.86-2.39-2.45s1.03-2.54,2.53-2.54c.6,0,.98.13,1.15.22l-.15.51c-.24-.11-.57-.2-.98-.2-1.13,0-1.89.72-1.89,2,0,1.18.68,1.94,1.86,1.94.38,0,.77-.08,1.02-.2l.13.5Z"/>
      <path class="cls-10" d="m445.26,48.48c0,1.67-1.01,2.55-2.25,2.55s-2.17-.99-2.17-2.45c0-1.54.95-2.54,2.25-2.54s2.17,1.01,2.17,2.45m-3.75.08c0,1.03.56,1.96,1.54,1.96s1.55-.91,1.55-2.01c0-.96-.5-1.97-1.54-1.97s-1.55.96-1.55,2.02"/>
      <path class="cls-10" d="m446.72,50.95v-4.84h.68l1.55,2.45c.36.57.64,1.08.87,1.57h.01c-.06-.65-.07-1.24-.07-2v-2.02h.59v4.84h-.63l-1.54-2.45c-.34-.54-.66-1.09-.9-1.61h-.02c.04.62.05,1.2.05,2v2.07h-.59Z"/>
      <polygon class="cls-10" points="453 46.64 451.53 46.64 451.53 46.11 455.11 46.11 455.11 46.64 453.64 46.64 453.64 50.95 453 50.95 453 46.64"/>
      <rect class="cls-10" x="456.3" y="46.11" width=".62" height="4.84"/>
      <path class="cls-10" d="m458.66,50.95v-4.84h.68l1.55,2.45c.36.57.64,1.08.87,1.57h.01c-.06-.65-.07-1.24-.07-2v-2.02h.59v4.84h-.63l-1.54-2.45c-.34-.54-.66-1.09-.9-1.61h-.02c.04.62.05,1.2.05,2v2.07h-.59Z"/>
      <path class="cls-10" d="m464.65,46.11v2.86c0,1.08.48,1.54,1.13,1.54.72,0,1.18-.47,1.18-1.54v-2.86h.63v2.82c0,1.49-.78,2.1-1.83,2.1-.99,0-1.74-.57-1.74-2.07v-2.85h.63Z"/>
      <path class="cls-10" d="m469.94,46.11v2.86c0,1.08.48,1.54,1.13,1.54.72,0,1.18-.47,1.18-1.54v-2.86h.63v2.82c0,1.49-.78,2.1-1.83,2.1-.99,0-1.74-.57-1.74-2.07v-2.85h.63Z"/>
      <path class="cls-10" d="m478.67,48.82c-.04-.68-.08-1.49-.07-2.09h-.02c-.16.57-.37,1.17-.61,1.84l-.85,2.35h-.47l-.78-2.3c-.23-.68-.42-1.31-.56-1.88h-.01c-.01.6-.05,1.41-.09,2.14l-.13,2.07h-.6l.34-4.84h.8l.83,2.34c.2.6.37,1.13.49,1.63h.02c.12-.49.29-1.02.51-1.63l.86-2.34h.8l.3,4.84h-.61l-.12-2.12Z"/>
      <path class="cls-10" d="m483.18,46.18c.38-.06.83-.1,1.33-.1.9,0,1.54.21,1.96.6.43.39.68.95.68,1.74s-.24,1.44-.7,1.88c-.45.45-1.2.7-2.14.7-.44,0-.82-.02-1.13-.06v-4.76Zm.62,4.28c.16.03.39.04.63.04,1.33,0,2.06-.75,2.06-2.05,0-1.14-.64-1.87-1.96-1.87-.32,0-.57.03-.73.07v3.82Z"/>
      <polygon class="cls-10" points="491.11 48.68 489.23 48.68 489.23 50.42 491.32 50.42 491.32 50.95 488.6 50.95 488.6 46.11 491.21 46.11 491.21 46.64 489.23 46.64 489.23 48.16 491.11 48.16 491.11 48.68"/>
      <polygon class="cls-10" points="494.95 46.11 495.57 46.11 495.57 50.42 497.64 50.42 497.64 50.95 494.95 50.95 494.95 46.11"/>
      <path class="cls-10" d="m499.01,46.03c-.17.6-.47,1.37-.67,1.7l-.4.05c.16-.42.34-1.17.42-1.69l.65-.06Z"/>
      <rect class="cls-10" x="500.37" y="46.11" width=".62" height="4.84"/>
      <path class="cls-10" d="m502.73,46.18c.27-.06.7-.1,1.14-.1.62,0,1.03.11,1.33.35.25.19.4.47.4.85,0,.47-.31.88-.82,1.06h0c.46.13,1,.51,1,1.23,0,.42-.17.73-.41.97-.34.31-.88.45-1.67.45-.43,0-.76-.03-.97-.06v-4.76Zm.62,1.98h.57c.66,0,1.05-.34,1.05-.81,0-.57-.43-.79-1.06-.79-.29,0-.45.02-.55.04v1.56Zm0,2.32c.12.02.3.03.52.03.65,0,1.24-.24,1.24-.94,0-.66-.57-.93-1.25-.93h-.52v1.84Z"/>
      <path class="cls-10" d="m443.61,59.4c-.23.11-.69.23-1.28.23-1.36,0-2.39-.86-2.39-2.45s1.03-2.54,2.53-2.54c.6,0,.98.13,1.15.22l-.15.51c-.24-.11-.57-.2-.98-.2-1.13,0-1.89.73-1.89,2,0,1.18.68,1.94,1.86,1.94.38,0,.77-.08,1.02-.2l.13.49Z"/>
      <path class="cls-10" d="m449.02,57.09c0,1.66-1.01,2.55-2.25,2.55s-2.17-.99-2.17-2.45c0-1.54.95-2.54,2.25-2.54s2.17,1.01,2.17,2.45m-3.75.08c0,1.03.56,1.96,1.54,1.96s1.55-.91,1.55-2.01c0-.96-.5-1.97-1.54-1.97s-1.55.95-1.55,2.02"/>
      <path class="cls-10" d="m450.47,59.56v-4.84h.68l1.55,2.45c.36.57.64,1.08.87,1.57h.01c-.06-.65-.07-1.24-.07-1.99v-2.02h.59v4.84h-.63l-1.54-2.45c-.34-.54-.66-1.09-.91-1.61h-.02c.04.62.05,1.2.05,2v2.07h-.59Z"/>
      <polygon class="cls-10" points="456.76 55.25 455.28 55.25 455.28 54.72 458.87 54.72 458.87 55.25 457.39 55.25 457.39 59.56 456.76 59.56 456.76 55.25"/>
      <rect class="cls-10" x="460.05" y="54.72" width=".62" height="4.84"/>
      <path class="cls-10" d="m462.41,59.56v-4.84h.68l1.55,2.45c.36.57.64,1.08.87,1.57h.01c-.06-.65-.07-1.24-.07-1.99v-2.02h.59v4.84h-.63l-1.54-2.45c-.34-.54-.66-1.09-.9-1.61h-.02c.04.62.05,1.2.05,2v2.07h-.59Z"/>
      <path class="cls-10" d="m468.4,54.72v2.86c0,1.08.48,1.54,1.13,1.54.72,0,1.18-.47,1.18-1.54v-2.86h.63v2.82c0,1.48-.78,2.1-1.83,2.1-.99,0-1.74-.57-1.74-2.07v-2.85h.63Z"/>
      <path class="cls-10" d="m477.2,57.09c0,1.66-1.01,2.55-2.25,2.55s-2.17-.99-2.17-2.45c0-1.54.95-2.54,2.25-2.54s2.17,1.01,2.17,2.45m-3.75.08c0,1.03.56,1.96,1.54,1.96s1.55-.91,1.55-2.01c0-.96-.5-1.97-1.54-1.97s-1.55.95-1.55,2.02"/>
      <path class="cls-10" d="m480.82,54.79c.38-.06.83-.1,1.33-.1.9,0,1.54.21,1.96.6.43.39.68.95.68,1.74s-.24,1.44-.7,1.88c-.45.45-1.2.7-2.14.7-.44,0-.82-.02-1.13-.06v-4.76Zm.62,4.28c.16.03.39.04.63.04,1.33,0,2.06-.75,2.06-2.05,0-1.14-.64-1.87-1.96-1.87-.32,0-.57.03-.73.06v3.82Z"/>
      <polygon class="cls-10" points="488.75 57.29 486.87 57.29 486.87 59.03 488.96 59.03 488.96 59.56 486.24 59.56 486.24 54.72 488.86 54.72 488.86 55.25 486.87 55.25 486.87 56.77 488.75 56.77 488.75 57.29"/>
      <polygon class="cls-10" points="490.42 54.72 491.04 54.72 491.04 59.03 493.11 59.03 493.11 59.56 490.42 59.56 490.42 54.72"/>
      <rect class="cls-10" x="496.62" y="54.72" width=".62" height="4.84"/>
      <path class="cls-10" d="m498.98,54.79c.27-.06.7-.1,1.14-.1.62,0,1.03.11,1.33.35.25.19.4.47.4.85,0,.47-.31.88-.82,1.06h0c.46.13,1,.51,1,1.23,0,.42-.17.73-.41.97-.34.31-.88.45-1.67.45-.43,0-.76-.03-.97-.06v-4.76Zm.62,1.98h.57c.66,0,1.05-.35,1.05-.81,0-.57-.43-.79-1.06-.79-.29,0-.45.02-.55.04v1.56Zm0,2.32c.12.02.3.03.52.03.65,0,1.24-.24,1.24-.94,0-.66-.57-.93-1.25-.93h-.52v1.84Z"/>
      <g>
        <path class="cls-1" d="m406.2,47.26l-.17-.81.17-.29.25.67-.26.43Zm-2.11-1.17l.63-1.06-.99-.59-.7,1.18-.3-.18.92-1.54,2.73,1.63-.88,1.48-.3-.18.67-1.12-.86-.51-.63,1.06-.29-.17Z"/>
        <g class="cls-20">
          <path class="cls-1" d="m400.67,48.38c.03-.16.16-.45.4-.75.55-.71,1.41-.88,2.24-.24.79.62.9,1.56.29,2.34-.24.31-.46.46-.58.51l-.2-.29c.15-.07.33-.21.5-.42.46-.59.39-1.27-.27-1.78-.62-.48-1.28-.43-1.76.17-.16.2-.27.43-.31.61l-.31-.14Z"/>
          <path class="cls-1" d="m398.99,49.9c.61-.59,1.48-.52,2.15.17.7.73.71,1.63.1,2.22-.63.61-1.5.52-2.15-.16-.75-.79-.68-1.67-.1-2.23h0Zm.22.25c-.47.45-.32,1.14.18,1.66.44.46,1.13.7,1.63.23.49-.47.3-1.17-.18-1.66-.46-.48-1.16-.67-1.62-.22h0Z"/>
          <polygon class="cls-1" points="398.96 54.21 398.63 54.45 396.95 52.16 395.85 52.97 395.65 52.69 397.08 51.64 398.96 54.21"/>
          <polygon class="cls-1" points="394.08 55.35 395.15 54.74 394.59 53.75 393.39 54.43 393.22 54.13 394.78 53.24 396.35 56.01 394.85 56.86 394.68 56.56 395.82 55.91 395.32 55.04 394.25 55.65 394.08 55.35"/>
          <path class="cls-1" d="m391.73,58.23c-.23.12-.5.24-.81.34-.56.18-1,.19-1.35.03-.35-.16-.63-.46-.79-.95-.16-.49-.14-.95.05-1.32.19-.38.61-.68,1.2-.88.28-.09.51-.16.72-.2l.98,2.97Zm-1.28-2.54c-.1.01-.25.06-.4.11-.83.27-1.13.89-.86,1.71.23.72.78,1.03,1.61.76.2-.07.35-.13.44-.19l-.79-2.39Z"/>
          <path class="cls-1" d="m387.31,59.53l-.32-1.86c-.12-.7-.48-.94-.9-.87-.46.08-.71.44-.59,1.13l.32,1.86-.41.07-.31-1.83c-.16-.96.28-1.44.95-1.56.64-.11,1.19.17,1.35,1.15l.32,1.85-.41.07Z"/>
          <path class="cls-1" d="m379.22,58.16c0,.44,0,.98-.03,1.37h0c.13-.36.28-.75.47-1.18l.65-1.51.31.02.43,1.54c.12.46.22.87.29,1.25h0c.03-.39.09-.92.14-1.4l.16-1.35.39.02-.41,3.16-.52-.03-.45-1.57c-.11-.4-.19-.75-.26-1.09h0c-.1.32-.24.66-.4,1.05l-.65,1.5-.52-.03v-3.18s.39.02.39.02v1.4Z"/>
          <path class="cls-1" d="m376.41,56.21c.82.19,1.25.95,1.04,1.89-.22.98-.98,1.49-1.8,1.3-.85-.19-1.25-.97-1.04-1.88.24-1.06,1.02-1.49,1.81-1.31h0Zm-.09.32c-.63-.14-1.13.36-1.29,1.06-.14.62.04,1.33.7,1.48.67.15,1.14-.39,1.29-1.07.15-.65-.07-1.34-.7-1.48h0Z"/>
          <path class="cls-1" d="m373.89,55.59l-1.16,2.96-.42-.17-.35-1.87c-.08-.43-.13-.81-.15-1.17h-.02c-.12.41-.25.77-.43,1.23l-.49,1.24-.36-.14,1.16-2.96.39.15.35,1.87c.08.41.14.83.16,1.2h.02c.13-.38.26-.74.45-1.23l.5-1.26.36.14Z"/>
          <path class="cls-1" d="m368.91,56.86c-.24-.1-.51-.22-.79-.38-.51-.3-.81-.62-.92-.99-.12-.37-.07-.77.18-1.22.26-.45.62-.73,1.02-.84.41-.11.92,0,1.45.31.26.15.46.28.63.41l-1.57,2.7Zm1.05-2.64c-.08-.07-.21-.14-.35-.22-.76-.44-1.42-.26-1.85.49-.39.65-.25,1.27.5,1.71.18.11.33.17.44.21l1.26-2.17Z"/>
          <polygon class="cls-1" points="365.11 52.34 366.08 53.1 366.79 52.19 365.7 51.35 365.91 51.08 367.33 52.18 365.37 54.68 364.02 53.63 364.23 53.36 365.26 54.16 365.88 53.37 364.9 52.61 365.11 52.34"/>
          <path class="cls-1" d="m362.92,49.75c.18.2.17.51-.03.7-.2.19-.51.17-.7-.03-.19-.2-.18-.51.03-.7.2-.19.51-.17.7.03h0Z"/>
          <path class="cls-1" d="m360.41,44.7c.14.08.37.3.59.62.49.75.38,1.62-.5,2.19-.84.55-1.77.35-2.31-.48-.21-.33-.28-.59-.29-.71l.34-.1c.02.17.09.38.24.61.41.62,1.08.78,1.78.32.66-.43.83-1.07.41-1.72-.14-.21-.32-.4-.48-.49l.23-.25Z"/>
          <path class="cls-1" d="m359.52,42.63c.36.76.02,1.57-.85,1.98-.91.43-1.78.15-2.14-.62-.37-.79,0-1.58.85-1.98.99-.46,1.8-.11,2.14.62h0Zm-.31.12c-.28-.59-.97-.67-1.63-.36-.57.27-1.03.85-.74,1.47.29.62,1.01.66,1.63.36.61-.28,1.01-.88.73-1.46h0Z"/>
          <polygon class="cls-1" points="355.46 41.22 355.33 40.82 358.03 39.97 357.63 38.68 357.96 38.57 358.49 40.26 355.46 41.22"/>
          <polygon class="cls-1" points="355.94 36.22 356.17 37.43 357.3 37.21 357.04 35.86 357.38 35.8 357.71 37.56 354.59 38.15 354.27 36.46 354.61 36.39 354.85 37.68 355.84 37.49 355.61 36.28 355.94 36.22"/>
          <path class="cls-1" d="m356.96,32.26c.08.18.2.54.23.97.03.48-.08.88-.36,1.21-.25.29-.66.48-1.16.51-.95.05-1.67-.57-1.73-1.63-.02-.37.04-.66.1-.8l.34.09c-.07.17-.12.39-.1.71.04.77.55,1.25,1.34,1.21.81-.04,1.25-.55,1.21-1.29-.01-.27-.06-.45-.11-.54l-.95.05.03.64-.33.02-.06-1.05,1.53-.08Z"/>
          <polygon class="cls-1" points="354.01 30.47 357.18 30.64 357.16 31.05 353.98 30.88 354.01 30.47"/>
          <path class="cls-1" d="m357.52,28.12c-.13.83-.87,1.31-1.82,1.16-1-.16-1.55-.88-1.42-1.72.14-.86.88-1.31,1.81-1.16,1.08.17,1.55.92,1.42,1.72h0Zm-.33-.07c.1-.64-.43-1.1-1.14-1.21-.62-.1-1.33.12-1.44.8-.11.68.47,1.11,1.15,1.22.66.1,1.33-.16,1.43-.8h0Z"/>
          <path class="cls-1" d="m355.56,22.88c.06-.25.14-.54.27-.84.22-.55.5-.89.84-1.05.35-.17.75-.18,1.23,0,.48.19.81.51.98.89.16.39.13.9-.1,1.48-.11.28-.21.5-.31.68l-2.9-1.16Zm2.77.66c.06-.09.11-.23.17-.38.33-.81.05-1.44-.75-1.76-.7-.29-1.29-.07-1.62.74-.08.2-.12.35-.14.46l2.33.94Z"/>
          <polygon class="cls-1" points="359.48 18.47 358.87 19.54 359.87 20.11 360.55 18.91 360.85 19.08 359.96 20.64 357.2 19.07 358.05 17.57 358.35 17.74 357.7 18.88 358.58 19.37 359.19 18.3 359.48 18.47"/>
          <polygon class="cls-1" points="358.9 16.27 359.15 15.93 361.43 17.61 362.24 16.52 362.52 16.72 361.47 18.15 358.9 16.27"/>
          <path class="cls-1" d="m365.33,11.9c-.31-.32-.69-.7-.95-.99h0c.16.36.33.74.5,1.17l.61,1.53-.23.21-1.39-.79c-.41-.24-.78-.46-1.09-.68h0c.26.31.59.72.89,1.1l.84,1.07-.29.26-1.95-2.52.39-.35,1.43.79c.36.2.67.4.95.59h0c-.15-.3-.3-.64-.46-1.03l-.6-1.52.39-.35,2.26,2.24-.3.27-.98-.99Z"/>
          <path class="cls-1" d="m366.26,9.02l1.01,1.59c.38.6.81.68,1.17.45.39-.25.49-.68.11-1.27l-1.01-1.59.35-.22,1,1.57c.52.82.3,1.43-.28,1.8-.55.35-1.16.3-1.69-.53l-1-1.58.35-.22Z"/>
          <path class="cls-1" d="m370.75,10.04l-1.29-2.9.41-.18,1.58,1.06c.36.25.67.47.94.71h.01c-.21-.38-.37-.73-.57-1.18l-.54-1.22.35-.16,1.29,2.9-.38.17-1.58-1.06c-.35-.23-.69-.48-.97-.73h-.01c.18.37.34.72.56,1.2l.55,1.24-.35.16Z"/>
          <path class="cls-1" d="m373.33,5.61c.24-.1.51-.21.83-.3.57-.16,1.01-.14,1.34.04.35.17.6.49.74.99.14.5.09.95-.11,1.31-.21.37-.64.65-1.24.81-.29.08-.52.13-.73.16l-.83-3.01Zm1.14,2.61c.11,0,.25-.05.41-.09.85-.23,1.18-.83.95-1.66-.2-.73-.73-1.07-1.57-.84-.2.06-.35.12-.45.17l.66,2.42Z"/>
          <path class="cls-1" d="m379.01,7.65c-.84.1-1.49-.48-1.6-1.44-.12-1,.43-1.73,1.27-1.83.87-.1,1.5.5,1.61,1.43.12,1.08-.47,1.74-1.27,1.83h0Zm-.02-.34c.65-.07.94-.71.86-1.43-.07-.63-.48-1.25-1.15-1.17-.68.08-.94.75-.87,1.43.08.67.51,1.24,1.15,1.16h0Z"/>
          <path class="cls-1" d="m383.57,6.37c-.27-.02-.48-.25-.46-.53.01-.27.25-.48.53-.46.27.02.48.25.46.53-.02.27-.25.48-.53.46h0Z"/>
          <path class="cls-1" d="m387.18,7.99l.04-3.28.42.11-.05,1.65c-.01.41-.03.81-.06,1.12h0c.13-.29.33-.63.54-1l.82-1.44.41.11-.04,1.66c-.01.39-.03.77-.07,1.11h0c.15-.32.33-.64.53-.99l.82-1.44.41.11-1.69,2.84-.42-.11.04-1.7c.01-.42.03-.74.07-1.06h0c-.13.29-.29.57-.51.94l-.87,1.48-.41-.11Z"/>
          <path class="cls-1" d="m392.17,9.75c-.77-.35-1.02-1.19-.62-2.06.42-.92,1.26-1.25,2.03-.9.79.36,1.02,1.2.63,2.06-.46.99-1.3,1.24-2.04.9h0Zm.16-.3c.59.27,1.17-.12,1.48-.77.26-.58.24-1.31-.38-1.6-.62-.29-1.2.15-1.48.78-.28.61-.2,1.32.38,1.59h0Z"/>
          <path class="cls-1" d="m396.2,8.26c.2.08.47.22.7.37.37.24.56.47.63.72.06.2.02.43-.12.64-.23.35-.6.44-.94.35h0c.16.21.16.48.04.8-.15.43-.26.73-.27.86l-.36-.23c0-.1.09-.37.24-.75.16-.42.1-.65-.2-.87l-.32-.21-.75,1.16-.34-.22,1.7-2.63Zm-.44,1.43l.35.23c.37.24.73.19.93-.12.22-.34.07-.66-.29-.89-.17-.11-.29-.17-.36-.19l-.63.97Z"/>
          <polygon class="cls-1" points="399.11 10.22 399.43 10.48 397.61 12.66 398.66 13.53 398.44 13.8 397.07 12.66 399.11 10.22"/>
          <path class="cls-1" d="m401.5,12.38c.2.16.42.36.64.6.4.43.59.83.58,1.21,0,.39-.16.76-.54,1.11-.38.35-.81.52-1.22.5-.42-.02-.87-.27-1.29-.73-.2-.22-.36-.4-.48-.58l2.3-2.12Zm-1.79,2.21c.06.09.16.2.27.32.59.65,1.28.66,1.91.08.56-.51.62-1.14.03-1.78-.14-.16-.27-.26-.36-.33l-1.85,1.7Z"/>
          <path class="cls-1" d="m402.96,18.32c0,.22.06.49.2.73.22.36.53.46.81.29.25-.15.31-.39.22-.84-.11-.54-.04-.96.34-1.19.42-.26.95-.1,1.27.43.17.27.23.52.23.68l-.34.08c0-.12-.03-.34-.18-.59-.23-.37-.53-.38-.72-.26-.25.15-.28.4-.2.86.1.57.02.93-.38,1.17-.42.26-.97.17-1.36-.47-.16-.26-.25-.6-.24-.8l.35-.09Z"/>
          <path class="cls-1" d="m405.01,23.13c-.13-.1-.32-.35-.48-.7-.37-.82-.12-1.66.83-2.09.91-.41,1.8-.07,2.2.83.16.36.19.63.18.75l-.35.04c0-.17-.03-.39-.14-.63-.3-.68-.94-.94-1.7-.6-.72.32-.98.93-.67,1.63.1.23.26.44.4.56l-.27.21Z"/>
          <polygon class="cls-1" points="408.47 23.75 407.19 24.12 407.62 25.59 408.89 25.23 409.01 25.63 405.95 26.5 405.84 26.1 407.27 25.69 406.85 24.21 405.42 24.62 405.3 24.23 408.36 23.35 408.47 23.75"/>
          <path class="cls-1" d="m406.33,29.01c-.11-.84.47-1.5,1.42-1.62,1-.13,1.73.41,1.84,1.25.11.87-.48,1.51-1.41,1.63-1.08.14-1.74-.45-1.85-1.25h0Zm.33-.02c.08.64.72.93,1.44.84.63-.08,1.24-.49,1.15-1.17-.09-.68-.76-.93-1.44-.85-.66.08-1.23.53-1.15,1.17h0Z"/>
          <path class="cls-1" d="m406.51,32.83c.03-.84.69-1.41,1.65-1.38,1.01.03,1.65.67,1.62,1.52-.03.87-.71,1.41-1.65,1.39-1.09-.03-1.65-.71-1.63-1.52h0Zm.33.03c-.02.65.57,1.04,1.29,1.06.63.02,1.3-.29,1.32-.98.02-.68-.61-1.04-1.29-1.06-.67-.02-1.3.33-1.32.98h0Z"/>
          <polygon class="cls-1" points="409.5 35.92 409.44 36.33 406.64 35.89 406.42 37.23 406.08 37.17 406.36 35.42 409.5 35.92"/>
          <path class="cls-1" d="m406.2,40.76c.09-.25.36-.4.63-.31.26.08.4.37.31.63-.09.26-.36.4-.63.31-.26-.09-.4-.37-.31-.63h0Z"/>
          <path class="cls-11" d="m404.87,32.07c0,12.75-10.33,23.08-23.08,23.08s-23.08-10.34-23.08-23.08,10.33-23.08,23.08-23.08,23.08,10.33,23.08,23.08"/>
        </g>
        <g class="cls-19">
          <rect class="cls-2" x="351.59" y="1.48" width="61.03" height="61.18" transform="translate(50.71 224.97) rotate(-35)"/>
        </g>
        <g class="cls-18">
          <path class="cls-1" d="m404.32,12c4.75,5.33,7.64,12.36,7.64,20.07,0,16.66-13.51,30.18-30.18,30.18-1.91,0-3.79-.18-5.6-.52,2.41.63,4.93.97,7.54.97.05,0,.09,0,.14,0,15.98-1.07,28.62-14.37,28.62-30.63,0-5.03-1.21-9.78-3.36-13.97-1.33-2.24-2.95-4.29-4.8-6.09"/>
          <path class="cls-1" d="m351.61,32.07c0-14.95,10.87-27.35,25.14-29.75,2.25-.5,4.58-.77,6.98-.77.56,0,1.12.02,1.67.04-1.18-.14-2.39-.21-3.61-.21-16.95,0-30.7,13.74-30.7,30.7,0,7.07,2.39,13.58,6.41,18.77-1.59-2.35-2.87-4.93-3.78-7.68-1.36-3.43-2.11-7.18-2.11-11.09"/>
          <path class="cls-1" d="m413.55,10.91c0,1.02-.79,1.81-1.81,1.81s-1.81-.79-1.81-1.81.79-1.81,1.81-1.81,1.81.79,1.81,1.81m-3.34,0c0,.87.65,1.55,1.53,1.55s1.53-.69,1.53-1.55-.65-1.55-1.53-1.55-1.53.69-1.53,1.55m1.13,1.05h-.26v-2.1h.8c.47,0,.68.2.68.58s-.24.54-.53.58l.62.93h-.3l-.59-.93h-.43v.93Zm.34-1.15c.32,0,.63,0,.63-.37,0-.29-.24-.36-.5-.36h-.47v.73h.34Z"/>
        </g>
      </g>
      <g>
        <path class="cls-9" d="m31.27,8.11l1.1.26s.24.05.51.06l-6.96,2.35v.1c.82,3.12.56,5.71-.74,7.73-1.87,2.9-5.3,3.55-5.33,3.55h-.08v.1c0,3.86.77,7.55,2.29,10.96,1.23,2.75,2.94,5.35,5.11,7.7,3.47,3.76,7.09,5.83,8.15,6.39v.16l.11-.08.11.08v-.14c1.06-.56,4.69-2.62,8.16-6.4,2.16-2.35,3.87-4.93,5.11-7.68,1.52-3.41,2.29-7.09,2.29-10.96v-.08h-.08s-3.67-.78-5.52-3.82c-1.23-2.02-1.42-4.58-.56-7.6l.03-.1-6.87-2.22c.22-.02.38-.05.4-.06l1.14-.26-.06-.05,6.08,1.92c-2.94,10.21,6.26,11.75,6.26,11.75,0,17.86-15.78,26.09-16.47,26.44-.67-.37-16.47-8.58-16.47-26.45,0,0,9.19-1.44,6.24-11.63l6.07-1.97-.02-.02Zm2.26.38s.18.03.29.03c.1,0,.18,0,.27-.03-.06.32-.21.7-.48,1.15l-.61.98.86-.14v.24l-.05,1.1.86-.66c.05.32.14.67.29,1.02l.48,1.17.48-1.17c.14-.35.24-.7.29-1.02l.86.66-.05-1.1v-.24l.86.14-.61-.98c-.27-.45-.42-.83-.48-1.15.08.02.18.03.27.03.14,0,.27-.03.35-.05l7.22,2.34c-.83,3.04-.62,5.62.62,7.67,1.71,2.82,4.91,3.74,5.57,3.9-.02,3.78-.78,7.38-2.26,10.71-1.22,2.72-2.91,5.3-5.06,7.62-3.42,3.73-7.01,5.78-8.08,6.34-1.06-.56-4.64-2.61-8.07-6.32-2.14-2.32-3.84-4.88-5.06-7.62-1.49-3.33-2.24-6.95-2.26-10.72.62-.14,3.65-.98,5.36-3.65,1.31-2.05,1.6-4.66.83-7.79l7.27-2.46v.02Zm-3.15-1.9c-.74-.08-1.66-1.07-1.66-1.07,1.95-.11,2.64-.56,2.64-.56-.8.26-2.59.1-2.59.1-.7-.37-1.12-1.36-1.12-1.36,1.42.3,3.17.11,3.17.11-1.14-.03-3.01-.64-3.01-.64-.66-.51-.9-1.95-.9-1.95,2.08,1.52,5.84,2.13,5.84,2.13.22,1.09.98,1.6,1.62,1.84.14-.48.56-1.92.77-2.05.24-.14.59-.21.86,0,0,0,.69,0,.59.66,0,0-.26-.18-.5-.06,0,0,.05.93.43,1.46.64-.24,1.36-.75,1.58-1.82,0,0,3.76-.61,5.84-2.13,0,0-.24,1.44-.9,1.95,0,0-1.87.62-3.01.64,0,0,1.74.19,3.17-.11,0,0-.42.99-1.12,1.36,0,0-1.79.16-2.59-.1,0,0,.69.45,2.64.56,0,0-.93,1.01-1.66,1.07,0,0-1.1-.19-1.89-.75,0,0,.14.22.4.5.26.26.61.58,1.07.77,0,0-1.01.46-1.65.3,0,0-.4-.24-.74-.62,0,0,.14.46.42.82.08.1.16.18.24.24,0,0-.54.13-.96,0,0,0-.26-.29-.38-.59-.02-.05-.05-.11-.05-.16v.16c.03.21.1.58.29.72,0,0-.3.11-.58-.06,0,0-.34-.14-.4-.45,0,0-.05.13-.08.35v.29c0,.43.13,1.07.61,1.82,0,0-.3-.05-.51-.27,0,0,.18.46.19,1.09,0,0-.5-.37-.74-.74,0,0,.08.99-.34,1.98-.4-.99-.34-1.98-.34-1.98-.24.35-.74.74-.74.74.03-.62.19-1.09.19-1.09-.21.22-.51.27-.51.27.46-.75.59-1.38.61-1.81v-.29c-.02-.24-.08-.37-.08-.37-.06.3-.4.45-.4.45-.29.18-.58.06-.58.06.19-.14.26-.5.29-.7v-.18c0,.06-.03.13-.06.18-.13.3-.37.58-.37.58-.42.13-.96,0-.96,0,.08-.06.16-.13.22-.21.29-.35.45-.85.45-.85-.34.37-.74.62-.74.62-.62.14-1.65-.3-1.65-.3.45-.21.82-.51,1.07-.77.26-.27.4-.5.4-.5-.78.56-1.89.75-1.89.75m-12.69,14.42c0,19.27,17.03,28.39,17.75,28.78.74-.4,17.75-9.52,17.75-28.79,0,0-9.52-1.06-6.35-12.07l-5.51-1.84h.02l-.29-.13c.7-.3,1.33-.94,1.47-1.1l.75-.82h-.32c.45-.5.7-1.07.74-1.17l.38-.93-.22.05c.43-.69.59-1.6.61-1.73l.21-1.26-1.02.75c-1.95,1.42-5.59,2.03-5.62,2.03l-.35.06-.08.35c-.08.42-.27.75-.54,1.01l.06-.4c.06-.43-.1-.72-.22-.88-.22-.26-.53-.34-.72-.37-.18-.08-.37-.13-.56-.13-.26,0-.51.08-.74.21-.16.1-.35.21-.83,1.74-.42-.27-.67-.67-.78-1.2l-.08-.35-.35-.06s-3.66-.61-5.62-2.03l-1.02-.75.21,1.26c.02.13.18,1.04.61,1.73l-.22-.05.38.93c.03.08.29.66.74,1.14h-.32l.75.83c.14.16.77.8,1.47,1.1l-.29.13h.02l-5.51,1.84c3.17,11.01-6.35,12.07-6.35,12.07"/>
        <path class="cls-9" d="m45.34,52.27l.08.06s.08-.1.11-.14c.06-.1.11-.18.16-.27.22-.53-.03-1.02-.24-1.3-.11-.16-.22-.24-.22-.24l-.03.03c-.06.06-.13.14-.16.21-.06.1-.11.19-.16.29-.18.45,0,.85.21,1.09.1.13.19.21.26.27Z"/>
        <path class="cls-9" d="m44.01,51.74l.06.06s.08-.1.11-.14c.06-.1.11-.18.16-.27.22-.54-.03-1.02-.24-1.3-.11-.14-.22-.24-.22-.24,0,0-.02.02-.03.03-.06.06-.13.14-.16.21-.06.1-.11.19-.16.29-.18.45,0,.85.21,1.09.1.13.19.21.26.27"/>
        <path class="cls-9" d="m42.63,51.42l.08.06s.08-.1.11-.14c.06-.1.11-.18.16-.27.22-.54-.03-1.02-.24-1.3-.11-.14-.22-.24-.22-.24,0,0-.02.02-.03.03-.06.06-.13.14-.18.21-.06.1-.11.19-.16.29-.18.45,0,.85.21,1.09.1.13.19.21.26.27"/>
        <path class="cls-9" d="m45.87,49.69s.13-.03.19-.06c.06-.02.13-.05.19-.06.06-.03.13-.05.18-.08.06-.03.11-.06.16-.1.06-.03.11-.06.16-.1.06-.05.13-.1.14-.11l.03-.02s-.05,0-.06-.02c-.11-.03-.22-.06-.34-.1-.1-.02-.19-.03-.29-.05h-.5c-.08,0-.14.02-.22.03-.06,0-.14.03-.21.05-.06.02-.13.03-.19.06-.06.02-.13.05-.19.06-.06.03-.13.05-.18.08-.06.03-.13.06-.18.08-.06.03-.11.06-.16.1-.08.05-.14.1-.14.1.11.05.21.08.3.11.1.03.21.05.3.06.1,0,.18.02.27.03h.24c.08,0,.16,0,.22-.03s.14-.03.21-.05"/>
        <path class="cls-9" d="m47.71,51.55s.14.03.21.05c.06,0,.14.02.21.03h.42c.08,0,.14,0,.21-.02.08,0,.14-.03.19-.03.11-.02.16-.05.16-.05-.06-.06-.13-.13-.21-.18s-.16-.1-.24-.14c-.08-.03-.14-.06-.22-.1-.08-.03-.14-.05-.22-.06-.06-.02-.14-.03-.21-.05-.06,0-.14-.02-.21-.02h-.42c-.08,0-.14,0-.21.02-.08,0-.14.02-.21.03-.08,0-.13.03-.13.03.05.05.11.11.16.14.08.06.16.11.24.16.08.05.14.08.22.11.08.03.14.05.22.08"/>
        <path class="cls-9" d="m47.92,52.67s.16.11.24.16c.08.03.14.08.22.1.08.03.14.05.22.06.08.02.14.03.21.05.08,0,.14.03.21.03h.19c-.05-.21-.14-.38-.27-.51-.08-.08-.16-.14-.24-.21-.08-.05-.16-.1-.22-.13-.08-.03-.14-.06-.22-.1-.08-.03-.14-.05-.22-.08-.08-.02-.14-.03-.21-.05-.08-.02-.16-.03-.21-.03h-.1c.03.18.1.3.18.43.08.11.16.21.26.27"/>
        <path class="cls-9" d="m48.24,55.81s.02-.03.03-.05c.08-.13.13-.26.14-.37.02-.19-.02-.35-.1-.51-.08-.14-.18-.27-.27-.37-.11-.11-.21-.18-.21-.18,0,0,0,.02-.02.03-.06.1-.11.18-.13.26.05-.14.08-.29.11-.45.03-.16.05-.32.05-.46.03.05.06.1.1.14.08.1.16.16.26.22.08.05.14.1.22.13.08.03.14.06.22.1.08.03.16.05.22.06.1.02.18.03.21.03h.03c0-.13-.05-.24-.1-.35-.06-.13-.16-.24-.27-.34-.08-.06-.16-.11-.24-.16-.08-.05-.14-.08-.22-.11-.08-.03-.16-.06-.22-.08-.08-.03-.16-.05-.22-.06,0,0,0-.11-.02-.16,0-.03,0-.06-.02-.11,0-.03,0-.05-.02-.08-.08-.37-.21-.72-.4-1.04-.08-.14-.18-.29-.29-.42-.08-.11-.18-.21-.26-.3-.08-.08-.16-.16-.26-.24-.08-.08-.16-.14-.24-.21-.08-.06-.16-.13-.24-.18-.08-.05-.16-.11-.24-.16s-.16-.1-.24-.14c-.08-.05-.14-.08-.22-.13-.08-.03-.14-.08-.22-.11-.08-.03-.14-.06-.22-.1-.08-.03-.14-.06-.22-.1-.08-.03-.14-.06-.22-.08-.08-.03-.14-.05-.22-.08-.08-.02-.14-.05-.22-.06-.08-.02-.14-.05-.22-.06-.06-.02-.14-.03-.22-.05-.06-.02-.14-.03-.21-.05-.06-.02-.14-.03-.21-.05h-.05c.21-.02.4-.05.61-.06.22-.03.46-.06.69-.1.22-.03.46-.08.69-.13.22-.05.46-.1.69-.14.22-.05.46-.11.69-.18.22-.06.46-.13.69-.21.22-.08.46-.14.69-.22.24-.08.46-.18.69-.26.24-.1.46-.19.69-.29.24-.1.46-.21.69-.32.24-.11.46-.24.69-.35.24-.13.46-.26.69-.4.24-.14.46-.29.69-.43.24-.16.46-.32.7-.48.24-.18.46-.35.7-.53.24-.19.48-.38.7-.59.24-.21.48-.43.7-.64.24-.24.48-.48.7-.72.24-.26.48-.53.7-.8.24-.3.48-.59.7-.91.26-.34.5-.69.72-1.04.26-.4.5-.82.72-1.23.27-.5.51-.99.74-1.52.29-.66.53-1.34.75-2.03.45-1.5.74-3.07.83-4.71,0-.18.02-.35.02-.53v-.35c0-.4,0-.8-.02-1.2.06-.03.14-.06.26-.11.18-.08.42-.21.69-.37.22-.13.45-.29.7-.46.24-.18.46-.37.7-.61.26-.24.5-.53.7-.85.32-.45.58-.98.74-1.58.13-.5.19-1.04.16-1.63,0,0-.03,0-.11.03-.13.03-.38.11-.69.26-.21.1-.45.21-.69.35-.22.13-.46.3-.7.48-.24.19-.48.42-.7.69-.27.32-.53.69-.72,1.12-.21.45-.35.94-.42,1.54-.1-.85-.24-1.7-.43-2.51-.18-.72-.37-1.42-.62-2.11-.19-.53-.4-1.06-.64-1.58-.19-.43-.42-.86-.64-1.3-.21-.38-.42-.75-.66-1.12-.21-.34-.43-.66-.66-.98-.21-.3-.43-.59-.66-.88-.21-.27-.43-.54-.66-.8-.21-.24-.43-.48-.66-.72-.22-.22-.43-.45-.66-.66-.22-.21-.43-.42-.67-.61-.22-.19-.45-.38-.67-.56-.13-.1-.24-.19-.37-.3.13.1.26.21.37.3.22.19.45.38.67.59.22.21.45.42.66.64.22.22.45.46.66.7.22.26.45.51.66.77.22.27.45.56.66.86.22.32.45.62.66.96.22.35.45.72.66,1.09.22.42.45.83.64,1.26.22.5.45,1.01.64,1.52.24.66.45,1.31.62,1.98.13.46.22.94.32,1.42-.14-.32-.37-.72-.66-1.12-.19-.26-.4-.53-.66-.78-.21-.21-.42-.4-.67-.58-.21-.14-.43-.29-.67-.42-.21-.11-.43-.21-.67-.29-.21-.08-.45-.13-.69-.18-.22-.05-.45-.08-.69-.1h-.21s.05.26.18.66c.13.35.34.83.64,1.31.18.27.4.54.66.82.19.19.42.38.67.56.21.14.43.27.67.38.21.1.43.19.67.27.21.06.45.13.69.16.22.03.45.06.69.08h.14c.06.42.11.83.14,1.25.05.67.08,1.34.06,2.02,0,.62-.05,1.23-.1,1.82-.03-.51-.16-1.31-.5-2.16-.16-.4-.37-.82-.66-1.22-.19-.27-.42-.54-.66-.78-.21-.19-.42-.38-.67-.56-.21-.14-.43-.29-.67-.4-.21-.11-.43-.21-.67-.3-.03,0-.08-.03-.11-.05,0,0-.11.72.06,1.68.1.54.29,1.17.64,1.78.18.3.38.62.66.91.19.21.42.42.67.62.21.16.43.3.67.45.21.11.43.22.67.34.16.06.34.14.51.19-.02.14-.03.27-.05.42-.18,1.18-.43,2.32-.78,3.41-.08.26-.16.5-.26.74.03-.54.03-1.17-.08-1.84-.1-.61-.3-1.26-.62-1.89-.18-.34-.4-.67-.66-.99-.19-.24-.42-.46-.67-.69-.21-.18-.43-.35-.67-.53-.03-.03-.06-.05-.11-.08,0,0-.99,2.27-.03,4.64.16.4.37.78.66,1.18.19.26.42.53.66.77.21.19.42.4.67.59.1.08.19.14.29.21-.21.43-.42.86-.64,1.26-.22.42-.46.8-.72,1.18-.22.35-.46.69-.72,1.01-.22.3-.46.59-.7.88-.22.27-.46.53-.7.78-.22.24-.46.46-.7.7-.22.21-.46.43-.7.62-.22.19-.46.38-.7.56-.22.18-.46.35-.7.51-.22.16-.46.32-.7.46-.13.08-.26.16-.38.24.08-.1.37-.48.7-1.09.69-1.26,1.52-3.47.74-5.89-.13-.4-.3-.82-.54-1.22-.11-.21-.26-.43-.4-.64,0,0-.1.1-.24.27-.21.26-.54.67-.85,1.23-.64,1.17-1.23,2.93-.62,4.98.13.42.3.85.53,1.3.16.3.35.62.58.93.03.05.06.08.08.13-.1.06-.19.11-.29.18-.22.13-.46.26-.69.38-.22.13-.46.24-.69.35-.22.11-.46.21-.69.32-.22.1-.46.19-.69.29-.22.08-.46.18-.69.26-.22.08-.46.14-.69.22-.22.06-.46.13-.69.19-.22.06-.46.11-.69.16-.22.05-.46.1-.69.14s-.46.08-.69.11c-.22.03-.46.06-.69.1-.22.03-.46.05-.69.06-.22.02-.45.03-.69.05h-.13s-.83.02-.83.02h-.58v.27h1.82c.06,0,.14.02.21.03.06,0,.14.02.21.03.06,0,.14.02.21.03.06,0,.14.03.21.03s.14.03.21.05c.06,0,.14.03.21.05.08.02.14.03.22.05.08.02.14.03.22.06.08.02.14.05.22.06.08.02.14.05.22.06.08.03.14.05.22.08.08.03.14.05.22.08.08.03.14.06.22.1.08.03.14.06.22.1.08.03.16.08.22.11.08.03.16.08.22.13.08.05.16.1.22.13.08.05.16.1.24.16.08.05.16.11.24.18.08.06.16.13.24.19.08.08.18.14.26.22.1.1.18.19.26.29.1.13.19.24.27.37.13.21.24.43.34.67.05.16.1.3.13.46s.05.32.05.48v.19c-.06,0-.11.02-.16.03-.06,0-.13.03-.19.05-.06.02-.13.05-.19.08-.06.03-.13.06-.19.1-.06.05-.13.1-.18.14-.06.06-.13.13-.18.19-.08.11-.13.22-.14.3-.03.1-.03.14-.03.14h.06c.06,0,.14-.02.19-.03.06-.02.13-.03.19-.06.06-.03.13-.05.19-.08.06-.03.13-.06.19-.11.06-.05.13-.1.18-.14.06-.06.13-.13.18-.19.03-.03.05-.06.06-.1,0,.08-.02.16-.05.24-.03.14-.08.3-.13.45-.05.11-.08.24-.14.35l-.14.29s-.03.05-.03.06c-.03-.02-.05-.03-.05-.03,0,0-.08.11-.1.18-.03.06-.05.11-.06.16-.03.03-.06.08-.08.11-.05.06-.11.14-.18.21,0,.02-.03.03-.05.05h-.37c-.06,0-.14,0-.21.03-.06,0-.14.03-.19.05-.06.02-.13.05-.19.08-.06.03-.13.08-.19.11-.08.05-.13.1-.18.14-.1.1-.13.16-.14.16h.38c.06,0,.14,0,.21-.03.06,0,.13-.03.19-.05.06-.02.13-.05.19-.08.03,0,.05-.02.08-.03-.02.02-.03.03-.06.05-.06.05-.11.1-.18.14.06-.05.13-.1.18-.14.03-.03.08-.06.11-.1.02,0,.05-.02.06-.03.06-.05.13-.08.18-.13.08-.06.14-.13.18-.16.02-.02.03-.03.03-.03h-.05s0-.02.02-.03c.06-.06.11-.13.18-.19.02-.03.05-.05.06-.08-.02.24.1.45.22.58.1.1.19.18.24.21.03,0,.05.03.05.03.06-.1.1-.18.13-.26.06-.24,0-.45-.11-.61-.08-.13-.19-.22-.26-.29v-.02c.06-.08.11-.18.16-.26.05-.1.11-.19.14-.3.05-.11.1-.21.13-.32-.08.3,0,.56.16.75.08.11.18.19.26.26.1.08.18.13.18.13l-.02-.05Z"/>
        <path class="cls-9" d="m46.3,57.39s.13-.08.18-.13c.08-.06.13-.14.16-.22.11-.22.08-.45.08-.45-.06.02-.11.03-.16.06-.08.03-.13.06-.19.1-.08.05-.13.1-.18.14-.08.1-.13.19-.16.29-.05.18,0,.32,0,.32.02,0,.03,0,.06-.02.06-.03.13-.05.19-.08"/>
        <path class="cls-9" d="m46.59,51.36s-.11.06-.16.11c-.06.05-.13.1-.18.14-.06.06-.13.13-.18.19-.06.1-.13.19-.16.27-.21.54.16,1.02.16,1.02,0,0,.02,0,.03-.02.06-.05.13-.08.18-.13.06-.05.13-.11.18-.18.06-.08.13-.16.16-.24.08-.14.11-.29.13-.43.03-.29-.06-.54-.13-.67-.02-.05-.03-.08-.03-.08Z"/>
        <path class="cls-9" d="m46.52,53.21c-.08.14-.11.29-.13.4-.02.21.03.37.03.37h.03c.06-.03.13-.05.19-.08.06-.03.13-.06.19-.11.06-.05.13-.1.18-.14.06-.06.13-.13.18-.19.06-.1.11-.19.16-.29.13-.32.06-.61.06-.61-.06.02-.11.05-.16.06-.06.03-.13.06-.19.1-.06.03-.13.08-.19.11-.06.05-.13.1-.18.14-.06.06-.13.14-.16.22"/>
        <path class="cls-9" d="m46.03,55.85s.14,0,.21-.03c.06,0,.13-.03.19-.05.06-.02.13-.05.19-.08.06-.03.13-.06.19-.1.06-.05.13-.08.18-.13.06-.05.13-.11.18-.16.08-.08.13-.16.16-.22.05-.06.06-.11.06-.11h-.29c-.06,0-.14.02-.21.03-.06,0-.13.03-.19.05-.06.02-.13.05-.19.08-.06.03-.13.06-.19.11-.06.05-.13.1-.18.14-.06.06-.13.13-.18.19-.1.14-.13.26-.13.26h.18"/>
        <path class="cls-9" d="m44.64,57.31s-.13.1-.18.14c-.11.11-.18.19-.18.19.08,0,.14,0,.21.02h.21c.06,0,.14-.02.21-.03.06,0,.13-.03.19-.05.06-.02.13-.05.19-.08.06-.03.13-.06.19-.11.06-.05.13-.1.18-.13.11-.1.16-.16.18-.18,0,0-.14-.02-.21-.02h-.21c-.06,0-.14,0-.21.02-.06,0-.14.03-.19.05-.06.02-.13.05-.19.08-.06.03-.13.06-.19.11"/>
        <path class="cls-9" d="m30.76,49.4v-.27h-.59s-.8-.02-.83-.02h-.13c-.22,0-.46-.03-.69-.05-.22-.02-.46-.05-.69-.06-.22-.03-.46-.06-.69-.1-.22-.03-.46-.08-.69-.11-.22-.05-.46-.1-.69-.14-.22-.05-.46-.11-.69-.16-.22-.06-.46-.13-.69-.19-.22-.06-.46-.14-.69-.22-.22-.08-.46-.16-.69-.26-.24-.1-.46-.18-.69-.29-.24-.1-.46-.21-.69-.32-.24-.11-.46-.22-.69-.35-.24-.13-.46-.26-.69-.38-.1-.06-.19-.11-.29-.18.03-.05.06-.08.08-.13.22-.32.42-.62.58-.93.22-.45.4-.88.53-1.3.61-2.05.02-3.81-.62-4.98-.3-.56-.64-.99-.85-1.23-.14-.18-.24-.27-.24-.27-.14.21-.29.43-.4.64-.22.42-.4.82-.54,1.22-.78,2.42.05,4.63.74,5.89.34.61.62.99.7,1.09-.13-.08-.26-.16-.38-.24-.24-.14-.46-.3-.7-.46-.24-.16-.46-.34-.7-.51s-.46-.37-.7-.56c-.24-.21-.48-.42-.7-.62-.24-.22-.48-.46-.7-.7-.24-.26-.48-.51-.7-.78-.24-.29-.48-.58-.7-.88-.24-.32-.48-.67-.72-1.01-.26-.38-.5-.78-.72-1.18-.22-.42-.45-.83-.64-1.26.1-.06.19-.14.29-.21.24-.19.46-.38.67-.59.26-.26.48-.51.66-.77.27-.38.5-.78.66-1.18.96-2.37-.03-4.64-.03-4.64-.03.03-.06.05-.11.08-.24.18-.46.35-.67.53-.26.22-.46.45-.67.69-.26.32-.48.66-.66.99-.34.64-.53,1.28-.62,1.89-.11.67-.13,1.31-.08,1.84-.1-.24-.18-.5-.26-.74-.35-1.09-.62-2.22-.78-3.41-.02-.14-.03-.27-.05-.42.18-.06.35-.13.51-.19.24-.1.46-.21.67-.34.24-.14.46-.29.67-.45.26-.19.48-.4.67-.62.27-.29.48-.61.66-.91.35-.61.53-1.23.64-1.78.18-.96.06-1.68.06-1.68-.03,0-.08.03-.11.05-.24.1-.46.19-.67.3-.24.13-.46.26-.67.4-.24.18-.46.37-.67.56-.26.26-.48.51-.66.78-.27.4-.48.82-.66,1.22-.34.85-.46,1.65-.5,2.16-.06-.59-.1-1.2-.1-1.82,0-.69,0-1.36.06-2.02.03-.42.08-.83.14-1.25h.14c.24-.02.46-.05.69-.08.24-.05.46-.1.69-.16.24-.08.46-.16.67-.26.24-.11.46-.24.67-.38.26-.18.46-.37.67-.56.26-.26.48-.54.66-.82.32-.48.53-.94.64-1.31.14-.4.18-.66.18-.66h-.21c-.24.02-.46.05-.69.1-.24.05-.46.11-.69.18-.24.08-.46.18-.67.29-.24.13-.46.27-.67.42-.24.18-.46.37-.67.58-.26.26-.48.53-.66.78-.29.4-.5.8-.66,1.12.08-.48.19-.96.32-1.42.18-.67.38-1.34.62-1.98.19-.51.4-1.02.64-1.52.21-.43.42-.85.64-1.26.21-.37.42-.74.66-1.09.21-.32.43-.64.66-.96.21-.29.43-.58.66-.86.21-.26.43-.53.66-.77.21-.24.43-.48.66-.7.21-.22.43-.43.67-.64.22-.21.43-.4.67-.59.13-.11.24-.21.37-.3-.13.1-.26.19-.37.3-.22.18-.45.37-.67.56-.22.19-.45.4-.67.61-.22.22-.45.43-.66.66-.22.24-.45.48-.66.72-.22.26-.45.53-.66.8-.22.29-.45.58-.66.88-.22.32-.45.66-.66.98-.22.37-.45.74-.66,1.12-.22.42-.45.85-.64,1.3-.24.51-.45,1.04-.64,1.58-.24.69-.45,1.39-.62,2.11-.19.82-.34,1.66-.43,2.51-.06-.58-.21-1.09-.42-1.54-.19-.43-.45-.8-.72-1.12-.22-.26-.46-.48-.7-.69-.24-.19-.46-.35-.7-.48-.26-.14-.48-.27-.69-.35-.3-.14-.56-.22-.69-.26-.06-.02-.11-.03-.11-.03-.03.59.03,1.14.16,1.63.16.61.42,1.14.74,1.58.22.32.46.59.7.85.22.22.46.43.7.61.24.18.48.34.7.46.27.16.51.27.69.37.11.05.19.08.26.11-.02.4-.03.8-.02,1.2v.35c0,.18,0,.35.02.53.1,1.63.37,3.2.83,4.71.21.7.46,1.38.75,2.03.22.51.46,1.02.74,1.52.22.42.46.83.72,1.23.22.35.46.7.72,1.04.22.3.46.61.7.91.22.27.46.54.7.8.22.24.46.48.7.72.22.22.46.43.7.64.22.21.46.4.7.59.22.18.46.35.7.53.22.16.46.32.7.48.22.14.46.29.69.43.22.14.46.27.69.4.22.13.46.24.69.35s.46.22.69.32c.22.1.46.19.69.29.22.1.46.18.69.26s.46.16.69.22c.22.06.46.14.69.21.22.06.46.13.69.18.22.05.46.1.69.14.22.05.46.1.69.13.22.03.45.06.69.1.19.03.4.05.61.06h-.05c-.08,0-.14.03-.21.05-.08,0-.14.03-.21.05-.08.02-.14.03-.21.05-.08.02-.14.05-.22.06-.08.02-.14.05-.22.06-.08.03-.14.05-.22.08-.08.03-.14.05-.22.08-.08.03-.14.06-.22.1-.08.03-.14.06-.22.1-.08.03-.16.08-.22.11-.08.05-.16.08-.22.13-.08.05-.16.1-.24.14-.08.05-.16.1-.24.16-.08.06-.16.11-.24.18-.08.06-.16.14-.24.21-.08.08-.18.16-.26.24-.1.1-.18.21-.26.3-.11.14-.21.27-.29.42-.19.32-.32.67-.4,1.04,0,.03,0,.05-.02.08,0,.03,0,.06-.02.11,0,.05,0,.11-.02.16,0,0-.13.03-.22.06-.06.02-.14.05-.22.08-.08.03-.14.06-.22.11-.08.05-.16.1-.24.16-.11.1-.21.21-.27.34-.05.11-.08.22-.1.35h.03s.11-.02.21-.03c.06,0,.14-.03.22-.06.06-.02.14-.05.22-.1.08-.03.16-.08.22-.13.1-.06.18-.14.26-.22.03-.05.06-.1.1-.14,0,.16.02.32.05.46.03.14.06.3.11.45-.03-.08-.08-.16-.13-.26,0,0,0-.02-.02-.03,0,0-.1.06-.21.18-.1.1-.19.22-.27.37s-.11.32-.1.51c0,.11.06.24.14.37,0,.02.02.03.03.05,0,0,.08-.05.19-.13.08-.06.18-.14.26-.26.14-.19.24-.45.16-.75.03.11.08.22.13.32.05.1.1.21.14.3.05.08.1.18.16.26,0,0-.18.16-.26.29-.1.16-.18.37-.11.61.02.08.06.18.13.26,0,0,0,0,.05-.03.05-.03.14-.1.24-.21.13-.14.24-.34.22-.58.02.03.05.05.06.08.05.06.11.13.18.19,0,0,0,0,.02.02h-.05s0,0,.03.03c.03.03.1.1.18.16.05.05.11.08.18.13.02,0,.03.02.06.03.03.03.08.06.11.1.06.05.11.1.18.14-.06-.05-.13-.1-.18-.14-.02-.02-.03-.03-.06-.05.03,0,.05.03.08.03.06.03.13.05.19.08.06.02.13.03.19.05.06,0,.13.02.21.03h.38s-.05-.08-.14-.16c-.05-.05-.11-.1-.18-.14-.05-.03-.11-.08-.19-.11-.06-.03-.13-.06-.19-.08-.06-.02-.13-.03-.19-.05-.06,0-.13-.02-.21-.03h-.37s-.03-.03-.05-.05c-.06-.06-.11-.13-.18-.21-.03-.03-.06-.08-.08-.11,0-.05-.03-.11-.06-.16-.03-.05-.06-.11-.1-.18,0,0-.02,0-.05.03,0-.02-.03-.05-.03-.06-.05-.1-.11-.19-.16-.29-.05-.11-.1-.22-.14-.35-.05-.14-.1-.29-.13-.45-.02-.08-.03-.16-.05-.24.02.03.05.06.06.1.05.06.1.13.18.19.05.05.11.1.18.14.06.03.11.08.19.11.06.03.13.06.19.08.06.02.13.05.19.06.06,0,.13.03.19.03h.06s0-.06-.03-.14c-.03-.08-.06-.19-.14-.3-.05-.06-.1-.13-.18-.19-.05-.05-.11-.1-.18-.14-.06-.03-.11-.06-.19-.1-.06-.03-.13-.05-.19-.08-.06-.02-.13-.03-.19-.05-.05,0-.11-.02-.16-.03v-.19c0-.16.02-.32.05-.48.03-.16.08-.32.13-.46.08-.24.19-.46.34-.67.08-.13.18-.26.27-.37.08-.1.16-.19.26-.29.08-.08.16-.16.24-.22.08-.06.16-.13.24-.19.08-.06.16-.11.24-.18.08-.05.16-.1.24-.16.08-.05.16-.1.22-.13.08-.05.14-.08.22-.13.08-.03.14-.08.22-.11.08-.03.14-.06.22-.1.08-.03.14-.06.22-.1s.14-.06.22-.08c.08-.03.14-.05.22-.08s.14-.05.22-.06c.08-.02.14-.05.22-.06.06-.02.14-.03.22-.06.06-.02.14-.03.22-.05.06-.02.14-.03.21-.05.06,0,.14-.03.21-.05.06,0,.14-.03.21-.03s.14-.02.21-.03c.06,0,.14-.02.21-.03.06,0,.14-.02.21-.03h1.84"/>
        <path class="cls-9" d="m15.49,42.07c.32.74.61,1.17.61,1.17.03-.05.06-.08.1-.13.26-.29.46-.59.66-.88.27-.42.48-.83.64-1.23.8-1.98.38-3.79-.14-5.03-.26-.59-.54-1.04-.72-1.31-.13-.19-.21-.29-.21-.29-.18.19-.32.4-.46.59-.27.38-.48.77-.66,1.15-1.01,2.32-.38,4.61.18,5.92"/>
        <path class="cls-9" d="m23.08,39.72c-.18-.14-.27-.22-.29-.22-.11.24-.21.46-.29.7-.16.45-.26.86-.32,1.3-.37,2.51.82,4.55,1.71,5.68.5.62.9.96.9.98,0,0,.05-.1.06-.14.16-.35.3-.69.4-1.02.16-.48.26-.93.3-1.36.24-2.13-.62-3.76-1.46-4.82-.4-.5-.78-.86-1.04-1.07"/>
        <path class="cls-9" d="m14.6,42.55c-.27-.26-.56-.5-.85-.69-.27-.18-.53-.34-.8-.48-.26-.13-.51-.24-.77-.32-.26-.08-.5-.16-.74-.21-.24-.05-.48-.1-.72-.11-.24-.03-.48-.03-.7-.03-.24,0-.46,0-.69.03-.24.02-.46.05-.69.1-.24.05-.46.1-.67.14-.24.06-.46.13-.66.19-.3.11-.53.21-.64.26-.08.03-.11.05-.11.05.05.06.11.13.16.19.29.32.58.59.88.83.27.21.54.4.82.56.26.14.51.27.78.38.26.1.5.19.75.26.24.06.5.13.74.16.24.03.48.08.72.1s.48.03.7.03c.24,0,.46,0,.69-.03.24-.02.46-.05.69-.08.24-.03.46-.08.67-.13.26-.05.48-.11.66-.16.37-.11.58-.19.58-.19-.26-.32-.53-.61-.8-.86"/>
        <path class="cls-9" d="m14.56,45.71c-.24.02-.5.06-.72.11-.24.05-.46.11-.69.18-.22.06-.45.14-.66.24-.22.1-.43.19-.62.29-.22.11-.42.22-.61.34-.22.13-.42.27-.58.38-.26.19-.45.35-.54.45-.06.05-.1.08-.1.08.06.05.14.1.21.13.35.22.7.4,1.06.54.3.13.62.22.93.29.29.06.56.11.85.14.27.03.53.03.78.03s.5-.03.75-.06c.24-.03.48-.08.7-.13.24-.05.46-.11.69-.19.22-.06.45-.14.66-.24.22-.1.43-.18.64-.27.22-.11.43-.21.61-.32.22-.13.43-.26.59-.37.32-.21.5-.35.5-.35-.34-.24-.66-.43-.98-.59-.34-.18-.66-.3-.99-.42-.3-.1-.59-.18-.88-.22-.27-.05-.54-.08-.82-.08-.26,0-.51,0-.77.02"/>
        <path class="cls-9" d="m22.1,50.88c.22-.08.42-.18.61-.27l-.02.02h.03s.11.03.19.05c.06,0,.13.03.19.03s.13.02.21.02h.42c.06,0,.14,0,.21-.02.06,0,.14-.02.21-.03.06,0,.14-.03.22-.05.08-.02.14-.05.22-.08s.16-.06.22-.11c.08-.05.16-.1.24-.16.08-.06.14-.13.22-.21,0,0-.06-.02-.18-.03-.05,0-.13-.02-.21-.03-.06,0-.13,0-.21-.02h-.62c-.06,0-.14.02-.21.03-.06,0-.13.03-.19.03.1-.06.18-.11.26-.16.32-.21.5-.35.5-.35-.34-.24-.66-.43-.99-.59-.34-.18-.66-.3-.99-.42-.3-.1-.59-.18-.88-.22-.27-.05-.54-.08-.82-.08-.26,0-.51,0-.77.02-.24.02-.5.06-.72.11-.24.05-.46.11-.69.18-.22.06-.45.14-.66.24-.22.1-.43.19-.62.29-.22.11-.42.22-.61.34-.22.13-.42.27-.58.38-.26.19-.45.35-.54.45-.06.05-.1.08-.1.08,0,0,.14.1.21.14.35.22.7.4,1.06.54.3.13.62.22.93.29.29.06.56.11.85.14.27.03.53.03.78.03s.5-.03.75-.06c.24-.03.48-.08.7-.13.24-.05.46-.11.69-.19.22-.06.45-.14.66-.24"/>
        <path class="cls-9" d="m6.19,37.47c.22.19.46.37.7.51.22.14.46.27.69.37.22.11.46.19.69.27.22.08.46.14.69.19.24.05.46.1.69.11.24.03.46.05.69.06h.69c.27,0,.5-.03.69-.05.27-.03.43-.06.43-.06-.14-.27-.3-.53-.46-.75-.22-.32-.46-.59-.7-.85-.22-.22-.46-.42-.7-.59-.22-.16-.46-.3-.7-.42-.22-.11-.46-.21-.69-.3-.22-.08-.46-.14-.69-.19-.24-.05-.46-.1-.69-.11-.24-.03-.46-.03-.69-.05-.24,0-.48,0-.69.03-.26.02-.5.05-.69.08-.35.06-.58.13-.58.13.19.32.38.62.61.88.22.27.46.51.7.72"/>
        <path class="cls-9" d="m6.83,32.41c.22.26.46.48.7.69.22.19.46.37.7.53.24.16.46.29.69.42.24.13.48.24.69.32.27.11.51.19.69.26.21.06.32.1.32.1-.03-.77-.18-1.44-.38-2.03-.19-.51-.43-.96-.72-1.34-.22-.29-.46-.56-.7-.78-.22-.21-.46-.38-.7-.54s-.46-.29-.69-.4c-.24-.13-.48-.22-.69-.3-.26-.1-.5-.18-.69-.22-.37-.1-.61-.13-.61-.13.05.96.3,1.78.67,2.45.21.38.45.72.72,1.02"/>
        <path class="cls-9" d="m10.11,22.87c.34.58.62.91.62.91,0,0,.05-.08.08-.11.29-.45.5-.88.64-1.28.5-1.39.29-2.62-.11-3.55-.21-.51-.48-.94-.72-1.26-.3-.42-.54-.64-.56-.64,0,0-.1.16-.14.22-.32.56-.53,1.1-.64,1.63-.16.83-.1,1.62.06,2.3.18.72.46,1.33.74,1.79"/>
        <path class="cls-9" d="m13.09,18.34c.16.22.26.34.26.34.16-.24.3-.48.42-.72.74-1.57.37-2.91-.11-3.79-.26-.48-.56-.83-.72-1.01-.06-.08-.11-.11-.13-.13-.24.38-.42.75-.53,1.12-.32,1.02-.18,1.98.08,2.75.21.62.51,1.12.72,1.42"/>
        <path class="cls-9" d="m16.58,14.31c.27-.19.48-.4.67-.61.34-.4.53-.82.66-1.22.24-.77.16-1.41.16-1.41-.06.02-.14.05-.21.06-.26.1-.48.21-.67.32-.26.16-.48.34-.67.53-.29.29-.5.61-.66.91-.51.99-.5,1.95-.5,1.95.19-.06.38-.13.56-.19.26-.11.48-.24.67-.37"/>
        <path class="cls-9" d="m17.41,19.41c.4-.61.56-1.1.56-1.1-.21-.02-.4-.03-.59-.03-.24,0-.46.02-.69.05-.24.03-.46.08-.69.14-.24.06-.46.16-.67.26-.24.11-.46.24-.67.37-.24.16-.46.34-.67.51-.26.22-.48.45-.67.67-.29.34-.51.66-.66.91-.18.29-.27.5-.27.5.1,0,.19.02.27.03.24.02.46.02.69,0,.24,0,.46-.03.69-.06.24-.03.46-.1.69-.16.24-.08.46-.16.67-.27.24-.13.46-.26.67-.4.26-.18.48-.38.67-.58.27-.27.48-.56.66-.83"/>
        <path class="cls-9" d="m17.12,15.09c-.26.16-.48.34-.67.51-.3.27-.53.53-.66.67-.08.1-.13.16-.13.16.05,0,.1.03.13.05.24.06.46.13.69.16.24.03.46.06.69.06.24,0,.46,0,.69-.05.24-.03.46-.08.69-.16.24-.08.46-.18.67-.29.26-.13.48-.27.67-.43.27-.21.5-.42.67-.61.37-.4.54-.7.54-.7-.19-.06-.38-.1-.56-.14-.24-.05-.46-.06-.69-.06-.24,0-.46,0-.69.03-.24.03-.46.08-.69.14-.24.06-.46.16-.67.26-.24.11-.46.24-.67.38"/>
        <path class="cls-9" d="m18.6,13.3c.24.08.46.13.69.18.24.05.46.06.69.08.24,0,.46,0,.69-.02.24-.03.46-.08.69-.13.24-.06.46-.16.67-.26.24-.11.46-.26.67-.4.26-.19.48-.38.67-.58.43-.45.66-.83.66-.83-.24-.06-.46-.13-.69-.16-.24-.03-.46-.05-.69-.05-.24,0-.46.02-.69.05-.24.03-.46.1-.69.16-.24.08-.46.18-.67.27-.24.13-.46.26-.67.4-.26.18-.48.37-.67.54-.38.35-.61.66-.67.72v.02h.02Z"/>
        <path class="cls-9" d="m26.01,50.91c-.03-.1-.08-.19-.16-.29-.05-.06-.1-.14-.16-.21,0,0-.02-.02-.03-.03,0,0-.1.1-.22.24-.21.27-.46.75-.24,1.3.03.1.1.18.16.27.03.05.08.1.11.14,0,0,.03-.02.08-.06.06-.05.16-.14.26-.27.19-.26.37-.64.21-1.09Z"/>
        <path class="cls-9" d="m26.69,51.65s.08.1.11.14c0,0,.03-.02.06-.06.06-.05.16-.14.26-.27.19-.26.37-.64.21-1.09-.03-.1-.08-.19-.16-.29-.05-.06-.1-.14-.16-.21,0,0-.02-.02-.03-.03,0,0-.1.1-.22.24-.21.27-.46.75-.24,1.3.03.1.1.18.16.27"/>
        <path class="cls-9" d="m28.2,51.49s.03-.02.08-.06c.06-.05.16-.14.26-.27.19-.26.37-.64.21-1.09-.03-.1-.08-.19-.16-.29-.05-.06-.1-.14-.16-.21,0,0-.02-.02-.03-.03,0,0-.1.1-.22.24-.21.27-.46.75-.24,1.3.03.1.1.18.16.27.03.05.08.1.11.14Z"/>
        <path class="cls-9" d="m24.13,49.29s.1.06.16.1c.05.03.11.06.16.1.05.03.11.05.18.08.06.02.13.05.19.06s.13.03.19.06c.06.02.14.03.21.05.08,0,.14.02.22.03h.24c.08,0,.18,0,.27-.03.1,0,.21-.03.3-.06.1-.03.21-.06.3-.11,0,0-.05-.03-.14-.1-.05-.03-.1-.06-.16-.1-.05-.03-.11-.06-.18-.08-.05-.03-.11-.05-.18-.08-.06-.02-.13-.05-.19-.06-.06-.02-.13-.05-.19-.06s-.13-.03-.21-.05c-.06,0-.14-.02-.22-.03h-.5c-.1,0-.19.02-.29.05-.11.02-.22.05-.34.1-.02,0-.05,0-.06.02,0,0,0,0,.03.02.03.02.08.06.14.11"/>
        <path class="cls-9" d="m23.86,51.2s.11-.1.16-.14c0,0-.05,0-.13-.03-.05,0-.13-.02-.21-.03-.06,0-.13,0-.21-.02h-.42c-.06,0-.14,0-.21.02-.06,0-.14.02-.21.05-.08.02-.14.03-.22.06s-.14.06-.22.1c-.08.05-.16.08-.24.14-.08.05-.14.11-.21.18,0,0,.06.02.16.05.05,0,.13.03.19.03s.13.02.21.02h.42c.06,0,.14,0,.21-.03.06,0,.14-.03.21-.05.08-.02.14-.05.22-.08.08-.03.16-.06.22-.11.08-.05.16-.1.24-.16"/>
        <path class="cls-9" d="m23.09,52.01s-.14.03-.21.05c-.06.02-.14.05-.22.08-.08.03-.14.06-.22.1-.08.03-.16.08-.22.13-.1.06-.18.13-.24.21-.13.14-.22.3-.27.51h.19c.06,0,.13-.02.21-.03.06,0,.14-.03.21-.05.06-.02.14-.05.22-.06.08-.03.14-.06.22-.1.08-.05.16-.1.24-.16.1-.08.19-.18.26-.27.08-.13.14-.27.18-.43h-.1s-.13.02-.21.03"/>
        <path class="cls-9" d="m24.41,57.25s.11.1.18.13c.05.03.13.06.19.08.02,0,.03,0,.06.02,0,0,.05-.14,0-.32-.02-.1-.06-.19-.16-.29-.05-.05-.11-.1-.18-.14-.05-.03-.11-.06-.19-.1-.05-.02-.1-.05-.16-.06,0,0-.03.21.08.45.03.08.1.14.16.22"/>
        <path class="cls-9" d="m24.44,52.77s.11.11.18.18c.05.05.11.1.18.13,0,0,.02,0,.03.02,0,0,.37-.48.16-1.02-.03-.1-.08-.18-.16-.27-.05-.06-.11-.13-.18-.19-.05-.05-.11-.1-.18-.14-.05-.03-.1-.08-.16-.11,0,0-.02.03-.03.08-.05.13-.14.37-.13.67,0,.14.05.29.13.43.05.08.1.16.16.24Z"/>
        <path class="cls-9" d="m23.85,52.73l-.19-.1s-.11-.05-.16-.06c0,0-.05.27.06.61.03.1.08.19.16.29.05.06.1.13.18.19.05.05.11.1.18.14.06.03.11.08.19.11.06.03.13.06.19.08h.03s.05-.16.03-.37c0-.13-.05-.26-.13-.4-.05-.08-.1-.14-.16-.22-.05-.05-.11-.1-.18-.14-.05-.05-.11-.08-.19-.11"/>
        <path class="cls-9" d="m24.2,55.09s-.13-.03-.19-.05c-.06,0-.13-.03-.19-.03h-.29s.02.05.06.11c.03.06.1.13.16.22.05.05.11.11.18.16.05.05.11.08.18.13l.19.1c.06.03.13.05.19.08.06.02.13.03.19.05.06,0,.13.02.21.03h.18s-.03-.11-.13-.26c-.05-.06-.1-.13-.18-.19-.05-.05-.11-.1-.18-.14-.06-.03-.11-.08-.19-.11-.06-.03-.13-.05-.19-.08"/>
        <path class="cls-9" d="m25.48,57.07h-.21c-.06,0-.14,0-.21.02,0,0,.06.08.18.18.05.05.11.1.18.13.05.03.11.06.19.11.06.03.13.06.19.08.06.02.13.03.19.05.06,0,.13.02.21.03h.21c.06,0,.14,0,.21-.02,0,0-.05-.1-.18-.19-.05-.05-.11-.1-.18-.14-.05-.03-.11-.08-.19-.11-.06-.03-.13-.05-.19-.08-.06-.02-.13-.03-.19-.05-.06,0-.13-.02-.21-.02"/>
        <path class="cls-9" d="m54.46,34.38s-.08.1-.21.29c-.19.27-.46.72-.72,1.31-.53,1.22-.94,3.04-.14,5.03.16.4.37.82.64,1.23.19.29.4.58.66.88.03.05.06.08.1.13,0,0,.3-.45.61-1.17.58-1.33,1.2-3.6.18-5.92-.18-.38-.38-.77-.66-1.15-.14-.21-.29-.4-.46-.59l.02-.03Z"/>
        <path class="cls-9" d="m48.11,39.5s-.11.08-.29.22c-.26.21-.64.58-1.04,1.07-.83,1.04-1.7,2.69-1.46,4.82.05.43.14.9.3,1.36.11.34.24.67.4,1.02.02.05.05.1.06.14,0,0,.4-.35.9-.98.9-1.14,2.1-3.17,1.71-5.68-.06-.42-.16-.85-.32-1.3-.08-.22-.18-.46-.29-.7"/>
        <path class="cls-9" d="m62.91,40.97c-.21-.05-.43-.1-.67-.14-.21-.03-.45-.06-.69-.1-.22-.02-.45-.03-.69-.03-.22,0-.46,0-.7.03s-.48.06-.72.11c-.24.05-.5.13-.74.21-.26.1-.51.19-.77.32-.27.13-.53.29-.8.48-.29.19-.56.43-.85.69-.27.26-.53.54-.8.86,0,0,.21.08.58.19.19.05.4.11.66.16.21.05.43.08.67.13.21.03.45.06.69.08.22.02.45.03.69.03.22,0,.46,0,.7-.03.24-.02.48-.05.72-.1.24-.05.48-.1.74-.16.26-.06.5-.16.75-.26.26-.11.53-.24.78-.38.27-.16.54-.35.82-.56.3-.24.59-.51.88-.83.05-.06.11-.13.16-.19,0,0-.03-.02-.11-.05-.13-.06-.35-.16-.64-.26-.19-.06-.42-.13-.66-.19"/>
        <path class="cls-9" d="m59.58,48.46c.35-.14.7-.32,1.06-.54.06-.05.14-.1.21-.13,0,0-.03-.03-.1-.08-.1-.1-.29-.26-.54-.45-.16-.13-.35-.26-.58-.38-.18-.11-.38-.22-.61-.34-.19-.1-.4-.19-.62-.29-.21-.08-.43-.16-.66-.24-.22-.06-.45-.13-.69-.18-.24-.05-.48-.08-.72-.11-.24-.02-.5-.03-.77-.02-.27,0-.54.03-.82.08-.29.05-.59.13-.88.22-.32.11-.66.24-.99.42-.32.16-.66.37-.98.59,0,0,.18.14.5.35.16.11.37.22.59.37.19.11.38.21.61.32.19.1.42.19.64.27.21.08.43.16.66.24.22.06.45.13.69.19.22.05.46.1.7.13.24.03.5.05.75.06.26,0,.53,0,.78-.03.27-.03.56-.06.85-.14.3-.06.61-.18.93-.29"/>
        <path class="cls-9" d="m50.14,51.31c.22.05.46.1.7.13s.5.05.75.06c.26,0,.53,0,.78-.03.27-.03.56-.06.85-.14.3-.06.61-.18.93-.29.35-.14.7-.32,1.06-.54.06-.05.14-.1.21-.13,0,0-.03-.03-.1-.08-.1-.1-.29-.26-.54-.45-.16-.13-.35-.26-.58-.38-.18-.11-.38-.22-.61-.34-.19-.1-.4-.19-.62-.29-.21-.08-.43-.16-.66-.24-.22-.06-.45-.13-.69-.18-.24-.05-.48-.08-.72-.11-.24-.02-.5-.03-.77-.02-.27,0-.54.03-.82.08-.29.05-.59.13-.88.22-.32.11-.66.24-.99.42-.32.16-.66.37-.99.59,0,0,.18.14.5.35.08.05.16.1.26.16-.06,0-.13-.03-.19-.03s-.14-.02-.21-.03h-.62c-.08,0-.14,0-.21.02-.08,0-.14.02-.21.03-.11.02-.16.03-.18.03,0,0,.14.14.22.21.08.06.16.11.24.16.08.05.14.08.22.11.08.03.14.06.22.08.08.02.14.05.22.05.06,0,.14.03.21.03s.14,0,.21.02h.42c.08,0,.14,0,.21-.02.08,0,.14-.02.19-.03.1-.02.16-.03.19-.05h.03l-.02-.02c.19.1.4.18.61.27.21.08.43.16.66.24.22.06.45.13.69.19"/>
        <path class="cls-9" d="m65.41,36.75c.21-.27.42-.56.61-.88,0,0-.21-.06-.58-.13-.19-.03-.42-.06-.69-.08-.21-.02-.43-.03-.69-.03-.22,0-.45,0-.69.05-.22.03-.45.06-.69.11-.22.05-.46.11-.69.19-.22.08-.46.18-.69.3-.24.11-.46.26-.7.42-.24.18-.48.37-.7.59-.24.24-.48.53-.7.85-.16.22-.32.48-.46.75,0,0,.16.03.43.06.18.02.42.05.69.05h.69c.22,0,.45-.03.69-.06.22-.03.45-.06.69-.11.22-.05.46-.11.69-.19.22-.08.46-.16.69-.27.24-.11.46-.22.69-.37.24-.14.48-.32.7-.51.24-.21.48-.45.7-.72"/>
        <path class="cls-9" d="m63.46,29.59c-.22.11-.46.26-.69.4-.24.16-.48.34-.7.54-.26.22-.5.48-.7.78-.29.38-.53.83-.72,1.34-.21.58-.35,1.25-.38,2.03,0,0,.13-.03.32-.1.18-.05.42-.14.69-.26.21-.1.45-.19.69-.32.22-.11.46-.26.69-.42.24-.16.46-.32.7-.53.24-.21.48-.43.7-.69.27-.3.51-.64.72-1.02.37-.67.62-1.49.67-2.45,0,0-.24.03-.61.13-.19.05-.43.13-.69.22-.22.08-.45.18-.69.3"/>
        <path class="cls-9" d="m60.08,23.65s.05.08.08.11c0,0,.3-.34.62-.91.27-.46.56-1.07.74-1.79.18-.69.24-1.47.06-2.3-.11-.53-.3-1.09-.64-1.63-.05-.08-.1-.16-.14-.22,0,0-.26.22-.56.64-.24.32-.51.75-.72,1.26-.38.94-.61,2.16-.11,3.55.14.42.35.85.64,1.28"/>
        <path class="cls-9" d="m57.55,18.69s.11-.13.26-.34c.21-.3.51-.8.72-1.42.27-.77.4-1.73.08-2.75-.11-.37-.29-.74-.53-1.12,0,0-.05.05-.13.13-.16.18-.45.53-.72,1.01-.48.88-.86,2.24-.11,3.79.11.24.24.48.42.72"/>
        <path class="cls-9" d="m53.65,13.7c.18.22.4.42.67.61.19.14.42.26.67.37.18.08.35.14.56.19,0,0,0-.96-.5-1.95-.16-.32-.37-.62-.66-.91-.19-.19-.42-.37-.67-.53-.21-.13-.43-.24-.67-.32-.06-.03-.14-.05-.21-.06,0,0-.06.64.16,1.41.13.4.32.82.66,1.22"/>
        <path class="cls-9" d="m56.16,21.48c.21.06.45.13.69.16.22.03.45.06.69.06h.69c.1,0,.19,0,.27-.03,0,0-.08-.19-.27-.5-.14-.26-.37-.58-.66-.91-.19-.22-.42-.45-.67-.67-.21-.18-.43-.35-.67-.51-.21-.13-.43-.26-.67-.37-.21-.1-.43-.18-.67-.26-.22-.06-.45-.11-.69-.14-.22-.03-.45-.05-.69-.05-.19,0-.38,0-.59.03,0,0,.16.5.56,1.1.18.26.38.54.66.83.19.21.42.4.67.58.21.14.43.29.67.4.21.1.43.19.67.27"/>
        <path class="cls-9" d="m54.45,15.6c-.19-.18-.42-.35-.67-.51-.21-.13-.43-.26-.67-.38-.21-.1-.43-.19-.67-.26-.22-.06-.45-.11-.69-.14-.22-.03-.45-.05-.69-.03-.22,0-.45.03-.69.06-.19.03-.37.08-.56.14,0,0,.18.32.54.7.18.19.4.4.67.61.19.16.42.3.67.43.21.11.43.21.67.29.21.06.45.13.69.16.22.03.45.05.69.05.22,0,.45-.02.69-.06.22-.03.45-.1.69-.16.05,0,.1-.03.13-.05,0,0-.05-.06-.13-.16-.13-.16-.35-.4-.66-.67"/>
        <path class="cls-9" d="m48.2,12.74c.21.14.43.29.67.4.21.1.43.19.67.26.21.06.45.11.69.13.22.03.45.03.69.02.22,0,.45-.03.69-.08.22-.05.45-.1.69-.18v-.02c-.05-.08-.29-.37-.66-.72-.19-.18-.42-.35-.67-.54-.21-.14-.43-.27-.67-.4-.21-.11-.43-.21-.67-.27-.21-.06-.45-.13-.69-.16-.22-.03-.45-.05-.69-.05-.22,0-.45.02-.69.05-.22.03-.45.08-.69.16,0,0,.22.38.66.83.18.19.4.38.67.58Z"/>
        <path class="cls-11" d="m30.79,7.09s1.01.46,1.65.3c0,0,.4-.24.74-.62,0,0-.16.5-.45.85-.06.08-.14.16-.22.21,0,0,.54.13.96,0,0,0,.24-.27.37-.58.03-.06.05-.13.06-.18v.18c-.03.21-.1.56-.29.7,0,0,.3.11.58-.06,0,0,.34-.14.4-.45,0,0,.05.13.08.37v.29c0,.43-.13,1.06-.61,1.81,0,0,.3-.05.51-.27,0,0-.18.46-.19,1.09,0,0,.5-.37.74-.74,0,0-.08.99.34,1.98.42-.99.34-1.98.34-1.98.24.35.74.74.74.74-.03-.62-.19-1.09-.19-1.09.21.22.51.27.51.27-.48-.77-.59-1.39-.61-1.82v-.29c.02-.22.08-.35.08-.35.06.3.4.45.4.45.29.18.58.06.58.06-.19-.16-.26-.51-.29-.72v-.16s.03.11.05.16c.13.3.38.59.38.59.42.13.96,0,.96,0-.1-.06-.18-.14-.24-.24-.27-.35-.42-.82-.42-.82.34.37.74.62.74.62.62.14,1.65-.3,1.65-.3-.45-.21-.82-.51-1.07-.77-.26-.27-.4-.5-.4-.5.8.56,1.89.75,1.89.75.74-.08,1.66-1.07,1.66-1.07-1.95-.11-2.64-.56-2.64-.56.8.26,2.59.1,2.59.1.7-.37,1.12-1.36,1.12-1.36-1.42.3-3.17.11-3.17.11,1.14-.03,3.01-.64,3.01-.64.66-.51.9-1.95.9-1.95-2.08,1.52-5.84,2.13-5.84,2.13-.22,1.07-.94,1.58-1.58,1.82-.38-.53-.43-1.46-.43-1.46.24-.11.5.06.5.06.1-.66-.59-.66-.59-.66-.29-.19-.62-.13-.86,0-.21.13-.64,1.57-.77,2.05-.64-.24-1.39-.75-1.62-1.84,0,0-3.76-.61-5.84-2.13,0,0,.24,1.44.9,1.95,0,0,1.87.62,3.01.64,0,0-1.74.19-3.17-.11,0,0,.42.99,1.12,1.36,0,0,1.79.16,2.59-.1,0,0-.69.45-2.64.56,0,0,.93,1.01,1.66,1.07,0,0,1.1-.19,1.89-.75,0,0-.14.22-.4.5-.26.26-.61.58-1.07.77"/>
        <path class="cls-4" d="m18.96,21.72c0,17.86,15.78,26.09,16.47,26.44.67-.37,16.47-8.58,16.47-26.45,0,0-9.2-1.54-6.26-11.75l-6.08-1.92.06.05-1.14.26s-.19.05-.4.06l6.87,2.22-.03.1c-.86,3.02-.67,5.59.56,7.6,1.86,3.04,5.49,3.81,5.52,3.81h.08v.1c0,3.86-.77,7.55-2.29,10.96-1.23,2.75-2.94,5.35-5.11,7.68-3.47,3.76-7.11,5.84-8.16,6.4v.14l-.11-.08-.11.08v-.16c-1.06-.56-4.69-2.62-8.15-6.39-2.16-2.35-3.87-4.93-5.11-7.7-1.52-3.41-2.29-7.11-2.29-10.96v-.08h.08s3.46-.67,5.33-3.57c1.3-2,1.55-4.61.77-7.73v-.1l6.93-2.35c-.27,0-.48-.06-.51-.06l-1.1-.26-6.07,1.97c2.94,10.21-6.24,11.63-6.24,11.63"/>
        <path class="cls-4" d="m25.43,18.74c-1.71,2.67-4.74,3.5-5.36,3.65.02,3.78.78,7.38,2.26,10.72,1.22,2.74,2.91,5.3,5.06,7.62,3.42,3.73,7.01,5.76,8.07,6.32,1.06-.56,4.64-2.61,8.08-6.34,2.14-2.32,3.84-4.88,5.06-7.62,1.49-3.33,2.24-6.93,2.26-10.71-.66-.16-3.86-1.09-5.57-3.91-1.25-2.05-1.46-4.64-.62-7.67l-7.22-2.34s-.19.05-.35.05c-.1,0-.18,0-.27-.03.06.32.21.7.48,1.15l.61.98-.86-.14v.24l.05,1.1-.86-.66c-.05.32-.14.67-.29,1.02l-.48,1.17-.48-1.17c-.14-.35-.24-.7-.29-1.02l-.86.66.05-1.1v-.24l-.86.14.61-.98c.27-.45.42-.83.48-1.15-.08.02-.18.03-.27.03-.11,0-.22-.02-.29-.03l-7.27,2.46c.77,3.12.48,5.75-.83,7.79"/>
        <path class="cls-9" d="m42.27,27.27l.27-2.18.26,2.18h-.53Zm.59-2.78c-.02-.1-.05-.21-.08-.35-.03-.16-.11-.27-.19-.34h-.06c-.1.06-.16.18-.19.34-.03.14-.06.26-.08.35l-.38,3.15h1.41l-.38-3.15h-.03Z"/>
        <path class="cls-9" d="m26.79,21.99h1.36l.51.56v-.56h1.49v3.01h-1.5v-1.23h-1.34c-.08.1-.16.18-.21.26-.06.1-.08.22-.08.42v.96c0,.13.02.22.06.32.05.08.14.18.3.27l2.26,1.39c.19.11.34.27.42.48.1.21.14.42.14.59v2.19c-.03.21-.1.38-.18.54-.1.16-.21.32-.32.43-.13.13-.27.22-.42.29-.14.06-.3.11-.45.11h-2.19c-.34-.1-.61-.26-.82-.46s-.34-.5-.42-.83v-1.71h1.46v.82c0,.19.05.32.13.4.08.06.16.13.24.16h.96c.08-.05.18-.1.24-.18.08-.08.13-.21.13-.4v-.86c0-.19-.02-.32-.05-.4-.03-.08-.13-.18-.29-.27l-2.27-1.41c-.16-.11-.3-.27-.43-.5-.13-.22-.19-.48-.19-.77v-2.19c.05-.19.11-.38.21-.56.1-.18.21-.34.34-.46.13-.13.27-.22.43-.3.14-.08.3-.11.45-.11m-1.55.67c-.13.21-.21.45-.26.7v2.24c0,.37.08.69.24.98.16.29.35.5.54.62l2.27,1.39c.11.06.14.11.16.14,0,.03.03.1.03.22v.86s0,.11-.03.13c-.02.02-.05.05-.06.06h-.8s-.03-.03-.05-.05c0,0-.02-.05-.02-.13v-1.2h-2.24v2.16c.08.43.26.78.51,1.04.26.26.61.45,1.02.58h2.26c.19,0,.38-.05.58-.13.19-.08.37-.21.53-.35.16-.14.3-.34.42-.54.11-.21.21-.43.26-.69v-2.26c0-.24-.05-.48-.16-.74s-.3-.48-.59-.66l-2.27-1.39c-.13-.1-.19-.19-.19-.27v-.96s0-.14.03-.19c.02-.05.03-.08.05-.1h.8v1.23h2.29v-3.79h-3.76c-.19,0-.38.05-.59.14-.19.1-.37.21-.54.37-.16.16-.3.34-.43.56"/>
        <path class="cls-9" d="m35.67,23.77v-1.78h2.53v1.78h-.59v8.26h-1.7l-1.98-7.71v5.94h.58v1.78h-2.61v-1.78h.59v-6.48h-.59v-1.78h2.62l1.74,6.77v-4.99h-.59Zm-1.38,3.57l1.33,5.09h2.37v-8.26h.59v-2.54h-3.3v1.87l-.48-1.87h-3.3v2.54h.59v5.71h-.59v2.54h3.38v-2.54h-.59v-2.54Z"/>
        <path class="cls-9" d="m40.97,23.77h-.59v-1.78h4.27v1.78h-.59l.91,6.48h.54v1.78h-2.53v-1.78h.51l-.18-1.52h-1.6l-.18,1.52h.51v1.78h-2.51v-1.78h.53l.9-6.48Zm-1.81,8.64h3.28v-2.54h-.43l.08-.74h.85l.08.74h-.42v2.54h3.28v-2.54h-.59l-.8-5.71h.53v-2.54h-5.04v2.54h.53l-.77,5.71h-.59v2.54h.02Z"/>
        <path class="cls-11" d="m27.56,29.72v-1.07l.34.21s.05.06.05.13v.74h-.38Zm.42-5.27v1.14l-.3-.19v-.96h.3v.02Zm-1.18-2.85h3.76v3.79h-2.29v-1.23h-.8s-.03.06-.05.1c-.02.05-.03.11-.03.19v.96c0,.08.06.18.19.27l2.27,1.39c.29.18.48.38.59.66.11.26.16.51.16.74v2.26c-.05.24-.14.48-.26.69-.11.21-.26.38-.42.54-.16.14-.34.27-.53.35-.19.08-.38.13-.58.13h-2.26c-.43-.13-.77-.32-1.02-.58-.26-.26-.43-.61-.51-1.04v-2.16h2.24v1.2c0,.08,0,.11.02.13,0,.02.03.05.05.05h.8s.05-.03.06-.06c0,0,.03-.05.03-.13v-.86c0-.13,0-.19-.03-.22,0-.03-.05-.06-.16-.14l-2.27-1.39c-.21-.13-.38-.34-.54-.62-.16-.29-.24-.61-.24-.98v-2.24c.05-.26.13-.48.26-.7.13-.21.27-.4.43-.56.16-.16.35-.27.54-.37s.38-.14.59-.14m-1.31.32c-.19.19-.37.4-.5.66-.14.26-.24.51-.29.8v2.22c0,.42.1.78.29,1.12.19.34.4.56.64.72l1.34.9h-2.22v2.43c.1.53.29.96.59,1.26.3.3.7.53,1.2.69h2.29c.22,0,.45-.05.67-.16.22-.11.42-.24.61-.42.19-.18.35-.38.5-.64.14-.26.24-.51.29-.8v-2.29c0-.34-.06-.62-.21-.9-.14-.26-.37-.48-.67-.67l-1.89-1.14h2.7v-4.37h-4.07c-.22,0-.45.05-.67.16-.22.11-.45.26-.64.45"/>
        <path class="cls-11" d="m25.57,22.87c-.1.18-.16.37-.21.56v2.19c0,.29.06.56.19.77.13.22.27.38.43.5l2.27,1.41c.16.1.26.19.29.27.03.08.05.21.05.4v.86c0,.19-.05.32-.13.4-.08.06-.16.13-.24.16h-.96c-.08-.05-.18-.11-.24-.18-.08-.08-.13-.21-.13-.4v-.82h-1.46v1.71c.06.34.21.62.42.83s.48.37.82.46h2.19c.14,0,.3-.03.45-.11.14-.06.29-.16.42-.29s.24-.27.32-.43c.1-.16.16-.35.19-.56v-2.19c-.02-.18-.06-.38-.16-.59-.1-.21-.24-.37-.42-.48l-2.26-1.39c-.16-.1-.26-.19-.3-.27-.05-.08-.06-.19-.06-.32v-.96c0-.19.03-.32.08-.42.05-.08.13-.18.21-.24h1.33v1.23h1.5v-3.01h-1.5v.56l-.5-.56h-1.36c-.14,0-.3.03-.45.11s-.29.18-.43.3c-.13.13-.24.29-.34.46"/>
        <path class="cls-11" d="m34.89,32.42h-3.38v-2.54h.59v-5.71h-.59v-2.54h3.3l.48,1.87v-1.87h3.3v2.54h-.59v8.26h-2.37l-1.33-5.09v2.53h.59v2.56Zm.29-.51l.21.8h2.9v-8.26h.59v-3.14h-7.67v3.14h.59v5.12h-.59v3.14h3.97v-.8Z"/>
        <path class="cls-11" d="m34.52,21.99h-2.62v1.78h.59v6.48h-.59v1.78h2.61v-1.78h-.58v-5.92l1.98,7.7h1.7v-8.26h.59v-1.78h-2.53v1.78h.58v4.99l-1.73-6.77Z"/>
        <path class="cls-11" d="m42.31,29.58l.03-.16h.35l.03.16h-.42Zm-1.78-5.43h-.53v-2.54h5.04v2.54h-.53l.8,5.71h.59v2.54h-3.28v-2.54h.42l-.08-.74h-.85l-.08.74h.43v2.54h-3.28v-2.54h.59l.77-5.71h-.02Zm-1.65,5.43v3.14h7.31v-3.14h-.61l-.74-5.12h.48v-3.14h-5.63v3.14h.48l-.7,5.12h-.61.02Z"/>
        <path class="cls-11" d="m42.22,24.49c.02-.1.05-.22.08-.35.03-.16.11-.27.19-.34h.06c.1.06.16.18.19.34.03.14.06.26.08.35l.38,3.15h-1.41l.38-3.15h.03Zm-2.66,7.54h2.51v-1.78h-.51l.18-1.52h1.6l.18,1.52h-.51v1.78h2.53v-1.78h-.54l-.91-6.48h.59v-1.78h-4.27v1.78h.59l-.9,6.48h-.53v1.78Z"/>
        <path class="cls-11" d="m42.27,27.27h.51l-.26-2.18-.26,2.18Z"/>
        <path class="cls-4" d="m27.99,25.59v-1.14h-.3v.94l.3.19Z"/>
        <path class="cls-4" d="m27.89,28.86l-.34-.21v1.07h.38v-.74s0-.11-.05-.13Z"/>
        <path class="cls-4" d="m42.68,29.42h-.34l-.03.16h.4l-.03-.16Z"/>
        <path class="cls-11" d="m25.45,34.9c0,.34.02.53.05.56.02.02.05.03.1.05h.4s.1-.03.13-.06c.03-.05.06-.1.06-.16t.03-.03s.02,0,.02.05v.22s-.02.06-.03.08c0,.03-.02.05-.03.06h-1.2s-.05,0-.05-.02c0,0,0-.02.05-.02h.1s.06-.05.08-.14v-1.57c0-.08-.05-.13-.11-.14h-.08s-.05,0-.05-.03c0,0,.02-.02.06-.02h.72s.05,0,.05.02,0,.03-.05.03h-.1c-.06,0-.1.06-.1.14v1.01l-.05-.03Z"/>
        <path class="cls-11" d="m26.6,34.06v-.16c0-.08-.05-.13-.11-.14h-.1s-.05,0-.05-.02.02-.02.06-.02h.72s.06,0,.06.02,0,.02-.05.02h-.08c-.06,0-.1.06-.1.14v.91c0,.18.02.32.05.42.03.1.08.16.14.22.05.05.11.08.18.1.05,0,.1.02.14.02.06,0,.13,0,.19-.03.06-.03.13-.06.18-.11.06-.06.11-.16.13-.27,0-.05,0-.11.02-.18v-1.07c0-.08-.05-.13-.11-.14h-.1s-.05,0-.05-.02.02-.02.05-.02h.58s.05,0,.05.02,0,.02-.05.02h-.08c-.06,0-.1.06-.1.14v1.06c0,.08-.02.14-.03.21-.03.14-.11.27-.21.35-.08.08-.18.13-.27.16-.08.02-.16.03-.27.03h-.13s-.1,0-.14-.03c-.13-.03-.22-.08-.3-.16-.08-.06-.13-.14-.16-.26-.05-.11-.06-.27-.06-.45v-.77.02Z"/>
        <path class="cls-11" d="m29.58,34.58s.05.08.11.19l.27.43s.06.1.08.13c.05.1.1.14.11.16.05.06.1.1.14.11h.1s.03,0,.03.02-.02.03-.05.03h-.61s-.02,0-.02-.02c0,0,0-.03.03-.03v-.06c-.08-.14-.14-.26-.21-.38-.08-.13-.14-.24-.19-.34l-.38.62s-.05.08-.03.11c0,.02.02.03.05.05h.06s.03,0,.03.03c0,0-.02.02-.05.02h-.54s-.03,0-.03-.02,0-.03.03-.03h.1c.06-.02.13-.08.21-.19l.5-.72-.45-.74c-.06-.11-.13-.18-.22-.19-.03,0-.08-.02-.11-.02-.02,0-.03,0-.03-.03,0,0,.02-.02.05-.02h.67s.05,0,.05.02,0,.03-.03.03h-.06s-.03.02-.03.05c0,.02,0,.05.03.08.03.05.05.1.08.16.02.05.05.1.08.14l.16.27.29-.45s.05-.08.06-.1c.02-.03.03-.06.03-.1,0-.02,0-.03-.05-.05h-.08s-.03,0-.03-.03c0,0,.02-.02.05-.02h.51s.05,0,.05.02,0,.03-.05.03h-.1s-.11.08-.19.21l-.43.61h.02Z"/>
        <path class="cls-11" d="m31.45,34.06v-.16c0-.08-.05-.13-.11-.14h-.1s-.05,0-.05-.02.02-.02.06-.02h1.04s.1,0,.11-.02h.03v.1s-.02.05-.02.08v.18s0,0,0,.02c-.03,0-.03,0-.03-.03v-.1s-.03-.05-.05-.06c-.03,0-.06-.03-.13-.03h-.37s-.02,0-.02.03v.69h.43c.06,0,.11-.02.13-.03s.03-.03.05-.03c0,0,.02,0,.02.02v.11s-.02.05-.02.08v.18l-.02.05s-.03,0-.03-.02v-.1c0-.06-.06-.1-.14-.1h-.37v.62c0,.1.02.14.06.18.03.03.13.05.26.05h.13s.1-.02.13-.03c.06-.03.1-.1.11-.19t.03-.03s.02,0,.02.05c0,.1,0,.19-.03.29,0,.05-.06.06-.14.06h-1.04s-.05,0-.05-.02c0,0,0-.02.05-.02h.1s.06-.05.08-.14v-1.41l-.13-.08Z"/>
        <path class="cls-11" d="m33.45,33.85h-.38c-.14,0-.22.05-.26.08-.02.03-.03.06-.05.1,0,.02,0,.03-.03.03,0,0-.02,0-.02-.05v-.06s0-.05.02-.1c0-.08.03-.13.03-.14,0-.03.02-.05.03-.05h.03s.02.02.03.02h1.6s.02,0,.02.03v.3l-.02.05s-.03-.02-.05-.05v-.03s-.03-.06-.06-.1c-.05-.03-.13-.05-.24-.05h-.34v1.63c0,.08.05.13.1.14h.13s.05,0,.05.02-.02.03-.05.03h-.32s0,0-.02,0h-.4s-.05,0-.05-.02c0,0,0-.02.05-.02h.1s.06-.06.08-.14v-1.63h.02Z"/>
        <path class="cls-11" d="m37.19,35.5s0,.08-.03.1c-.08.05-.18.06-.3.1-.1.02-.21.03-.32.03-.35,0-.62-.08-.85-.24-.11-.08-.21-.19-.27-.32-.06-.14-.1-.29-.1-.46,0-.19.05-.37.14-.53.08-.14.19-.24.32-.32.11-.06.24-.11.37-.14.05,0,.11-.02.18-.03h.43c.08,0,.14.02.18.03.03,0,.06,0,.1.02h.14s0,0,0,.02v.43s0,.05-.03.05c0,0-.02,0-.03-.03v-.05s0-.03-.02-.05c0-.05-.03-.08-.06-.11-.05-.05-.11-.1-.21-.13-.11-.05-.24-.06-.37-.06h-.11s-.08,0-.13.02c-.1.03-.19.06-.27.14-.08.06-.13.14-.18.24-.05.11-.06.24-.06.4,0,.29.08.53.24.7.18.19.38.27.66.27h.11s.08,0,.11-.03c.03,0,.05-.05.05-.1v-.54c0-.08-.03-.13-.11-.14h-.1s-.03,0-.03-.02.02-.03.05-.03h.69s.05,0,.05.03c0,0,0,.02-.03.02h-.06c-.06,0-.1.06-.1.14v.59l-.03.02Z"/>
        <path class="cls-11" d="m38.25,34.9c0,.34.02.53.05.56.02.02.05.03.1.05h.4s.1-.03.13-.06c.03-.05.06-.1.06-.16t.03-.03s.02,0,.02.05v.22s-.02.06-.03.08c0,.03-.02.05-.03.06h-1.2s-.05,0-.05-.02c0,0,0-.02.05-.02h.1s.06-.05.08-.14v-1.57c0-.08-.05-.13-.11-.14h-.08s-.05,0-.05-.03c0,0,.02-.02.06-.02h.72s.05,0,.05.02,0,.03-.05.03h-.1c-.06,0-.1.06-.1.14v1.01l-.05-.03Z"/>
        <path class="cls-11" d="m40.47,35.54s.14-.06.19-.11c.06-.06.13-.14.16-.26.05-.13.06-.27.06-.45,0-.29-.08-.51-.22-.69-.14-.18-.32-.26-.54-.26-.08,0-.16,0-.22.03-.08.03-.14.06-.21.13s-.11.14-.14.26c-.03.11-.06.24-.06.4,0,.27.06.51.21.69.14.19.34.29.59.29.06,0,.11,0,.18-.03m-.77.06c-.13-.06-.24-.14-.32-.24-.08-.1-.14-.21-.19-.34-.03-.11-.06-.24-.06-.35s.02-.24.06-.35c.05-.13.11-.24.19-.34.1-.11.21-.19.34-.26.14-.06.32-.1.5-.1.32,0,.58.08.77.26.19.18.29.42.29.72s-.1.56-.29.75c-.21.21-.46.3-.78.3-.18,0-.34-.03-.48-.1"/>
        <path class="cls-11" d="m41.96,34.66s0,.03.02.05c.05.02.11.03.19.03s.14,0,.19-.05c.05-.03.08-.08.11-.14.03-.06.05-.16.05-.26,0-.08,0-.16-.05-.24-.02-.06-.06-.11-.1-.14-.08-.06-.16-.1-.26-.1h-.14s-.02.02-.02.03v.82Zm-.3-.61v-.16c0-.08-.05-.13-.11-.14h-.1s-.05,0-.05-.02.02-.02.06-.02h.98c.1.02.16.05.22.1.05.03.08.08.11.13.03.06.06.14.06.22,0,.1-.03.19-.08.29-.05.1-.14.19-.27.3l.32.38c.1.13.19.22.26.3.06.06.13.11.19.14h.18s.03,0,.03.02-.02.03-.05.03h-.26c-.13,0-.22-.02-.27-.05-.05-.03-.11-.08-.16-.14-.05-.05-.11-.13-.19-.24l-.26-.35s-.03-.02-.05-.02h-.22s-.02,0-.02.02v.59c0,.08.05.13.1.14h.13s.03,0,.03.02-.02.03-.05.03h-.69s-.05,0-.05-.02c0,0,0-.02.05-.02h.1s.06-.05.08-.14v-1.41h-.03Z"/>
        <path class="cls-11" d="m43.61,34.06v-.16c0-.08-.03-.13-.1-.14h-.1s-.05,0-.05-.03c0,0,.02-.02.06-.02h.7s0,.03-.05.03h-.08c-.06,0-.1.06-.1.14v1.6c0,.08.05.11.11.13h.13s.05,0,.05.02-.02.03-.05.03h-.75s-.05,0-.05-.02c0,0,0-.02.05-.02h.1s.06-.05.08-.13v-1.42l.03-.02Z"/>
        <path class="cls-11" d="m45.44,34.86l-.24-.64v-.02s-.02,0-.02.02l-.24.64v.02h.48l.02-.02Zm-.53.13s-.02,0-.03.02l-.14.37s-.03.11-.03.16.03.08.11.08h.03s.03,0,.03.02,0,.03-.05.03h-.58s-.05,0-.05-.03c0,0,0-.02.03-.02h.08s.1-.03.14-.08c.03-.03.05-.08.08-.16l.66-1.63s.05-.11.08-.11c.02,0,.05.03.06.08,0,.03.05.11.11.26l.38.96c.06.18.13.3.16.4.05.11.08.18.13.22.02.02.03.03.05.05h.16s.03,0,.03.02-.05.03-.13.03h-.58s0-.02.03-.02c0,0,.02,0,.03-.02v-.03l-.21-.56s0-.02-.03-.02h-.58v-.02Z"/>
        <path class="cls-4" d="m2.54,62.82l-.54.48H.54l-.54-.48v-.74h.85v.37h.85v-1.01H.54l-.54-.48v-1.74l.54-.48h.88l.27.22v-.22h.85v1.2h-.85v-.37h-.85v1.02h1.15l.54.48v1.74Z"/>
        <path class="cls-4" d="m5.55,62.82l-.56.48h-1.5l-.53-.48v-3.6l.53-.48h.96l.26.22v-.22h.85v1.2h-.85v-.37h-.91v2.88h.91v-.37h.85v.74Z"/>
        <path class="cls-4" d="m7.76,63.3v-.85h.24v-1.01h-.96v1.01h.24v.85h-1.33v-.85h.24v-2.88h-.24v-.83h1.33v.83h-.24v1.02h.96v-1.02h-.24v-.83h1.33v.83h-.26v2.88h.26v.85h-1.33Z"/>
        <path class="cls-4" d="m11.3,59.57h-.96v2.88h.96v-2.88Zm.85,3.25l-.54.48h-1.57l-.54-.48v-3.62l.54-.48h1.57l.54.48v3.62Z"/>
        <path class="cls-4" d="m14.36,59.57h-.96v2.88h.96v-2.88Zm.85,3.25l-.54.48h-1.57l-.54-.48v-3.62l.54-.48h1.57l.54.48v3.62Z"/>
        <path class="cls-4" d="m15.6,63.3v-.85h.24v-2.88h-.24v-.83h1.33v.83h-.24v2.88h.64v-.37h.85v1.22h-2.58Z"/>
        <path class="cls-4" d="m21.13,62.82l-.53.48h-1.46l-.54-.48v-.74h.83v.37h.86v-1.01h-1.15l-.54-.48v-1.74l.54-.48h.88l.27.22v-.22h.83v1.2h-.83v-.37h-.86v1.02h1.17l.53.48v1.74Z"/>
        <path class="cls-4" d="m24.81,59.57h-.96v2.88h.96v-2.88Zm.85,3.25l-.54.48h-1.57l-.54-.48v-3.62l.54-.48h1.57l.54.48v3.62Z"/>
        <path class="cls-4" d="m27.88,59.57h-.74v1.02h1.15v.85h-1.15v1.01h.24v.85h-1.33v-.85h.24v-2.88h-.24v-.83h2.67v1.2h-.85v-.37Z"/>
        <path class="cls-4" d="m32.58,63.3l-.91-2.38v1.54h.24v.85h-1.33v-.85h.24v-2.88h-.24v-.83h1.15l.91,2.38v-1.55h-.24v-.83h1.33v.83h-.24v3.73h-.91Z"/>
        <path class="cls-4" d="m35.95,59.57h-.96v2.88h.96v-2.88Zm.85,3.25l-.54.48h-1.57l-.54-.48v-3.62l.54-.48h1.57l.54.48v3.62Z"/>
        <path class="cls-4" d="m38.3,60.59h.88v-1.02h-.88v1.02Zm1.87,2.7h-.91l-.72-1.86h-.26v1.02h.24v.85h-1.33v-.85h.24v-2.88h-.24v-.85h1.09v.24l.27-.24h.91l.54.48v1.68l-.58.54.4,1.02h.34v.85-.02Z"/>
        <path class="cls-4" d="m42.73,59.57h-.24v2.88h.24v.85h-1.33v-.85h.26v-2.88h-.24v.37h-.85v-1.2h3.01v1.2h-.85v-.37Z"/>
        <path class="cls-4" d="m45.79,63.3v-.85h.24v-1.01h-.96v1.01h.24v.85h-1.33v-.85h.24v-2.88h-.24v-.83h1.33v.83h-.24v1.02h.96v-1.02h-.24v-.83h1.33v.83h-.24v2.88h.24v.85h-1.33Z"/>
        <path class="cls-4" d="m50.3,61.25h.46l-.24-1.17-.24,1.17h.02Zm.46,2.05v-.85h.24l-.08-.37h-.82l-.08.37h.24v.85h-1.33v-.85h.22l.75-3.73h1.18l.75,3.73h.22v.85h-1.33.02Z"/>
        <path class="cls-4" d="m54.85,63.3v-.85h.22v-1.73l-.74,1.57-.72-1.57v1.73h.22v.85h-1.33v-.85h.26v-2.88h-.24v-.83h1.09l.72,1.57.74-1.57h1.09v.83h-.24v2.88h.26v.85h-1.33Z"/>
        <path class="cls-4" d="m56.57,63.3v-.85h.24v-2.88h-.24v-.83h2.67v1.2h-.85v-.37h-.74v1.02h1.15v.85h-1.15v1.01h.74v-.37h.85v1.22h-2.67Z"/>
        <path class="cls-4" d="m60.74,60.59h.88v-1.02h-.88v1.02Zm1.87,2.7h-.91l-.72-1.86h-.26v1.02h.24v.85h-1.33v-.85h.24v-2.88h-.24v-.85h1.09v.24l.27-.24h.91l.54.48v1.68l-.58.54.4,1.02h.34v.85-.02Z"/>
        <path class="cls-4" d="m63.02,63.3v-.85h.24v-2.88h-.24v-.83h1.33v.83h-.24v2.88h.24v.85h-1.33Z"/>
        <path class="cls-4" d="m67.35,62.82l-.54.48h-1.5l-.54-.48v-3.6l.54-.48h.96l.26.22v-.22h.83v1.2h-.83v-.37h-.91v2.88h.91v-.37h.83v.74Z"/>
        <path class="cls-4" d="m69.09,61.25h.46l-.24-1.17-.24,1.17h.02Zm.46,2.05v-.85h.24l-.08-.37h-.82l-.08.37h.24v.85h-1.33v-.85h.22l.74-3.73h1.18l.75,3.73h.22v.85h-1.33.03Z"/>
        <path class="cls-4" d="m25.86,55.39v-.42h.11v-1.39h-.11v-.42h.64v.42h-.11v1.39h.11v.42h-.64Z"/>
        <path class="cls-4" d="m27.67,55.39l-.45-1.17v.75h.13v.42h-.66v-.42h.13v-1.39h-.11v-.42h.54l.45,1.17v-.75h-.11v-.42h.64v.42h-.11v1.81h-.45Z"/>
        <path class="cls-4" d="m29.48,53.58h-.11v1.39h.11v.42h-.64v-.42h.11v-1.39h-.11v.18h-.4v-.59h1.46v.59h-.42v-.18Z"/>
        <path class="cls-4" d="m30.09,55.39v-.42h.13v-1.39h-.13v-.42h1.3v.59h-.4v-.18h-.37v.5h.56v.4h-.56v.5h.37v-.18h.4v.59h-1.3Z"/>
        <path class="cls-4" d="m32.12,54.08h.43v-.5h-.43v.5Zm.91,1.31h-.43l-.35-.91h-.13v.5h.11v.42h-.64v-.42h.11v-1.41h-.11v-.42h.53v.11l.13-.11h.45l.26.24v.82l-.27.26.19.5h.16v.43Z"/>
        <path class="cls-4" d="m34.2,55.39l-.45-1.17v.75h.11v.42h-.64v-.42h.11v-1.39h-.11v-.42h.56l.45,1.17v-.75h-.11v-.42h.64v.42h-.13v1.81h-.43Z"/>
        <path class="cls-4" d="m35.61,54.38h.22l-.11-.58-.11.58Zm.22.99v-.42h.11l-.03-.18h-.4l-.03.18h.11v.42h-.64v-.42h.11l.37-1.81h.58l.37,1.81h.11v.42h-.66Z"/>
        <path class="cls-4" d="m37.4,53.58h-.13v1.39h.13v.42h-.66v-.42h.13v-1.39h-.13v.18h-.4v-.59h1.46v.59h-.4v-.18Z"/>
        <path class="cls-4" d="m37.99,55.39v-.42h.13v-1.39h-.13v-.42h.66v.42h-.11v1.39h.11v.42h-.66Z"/>
        <path class="cls-4" d="m39.72,53.58h-.46v1.41h.46v-1.41Zm.42,1.58l-.27.22h-.77l-.26-.22v-1.76l.26-.24h.77l.27.24v1.76Z"/>
        <path class="cls-4" d="m41.31,55.39l-.45-1.17v.75h.13v.42h-.66v-.42h.13v-1.39h-.13v-.42h.56l.45,1.17v-.75h-.11v-.42h.64v.42h-.11v1.81h-.45Z"/>
        <path class="cls-4" d="m42.71,54.38h.22l-.11-.58-.11.58Zm.22.99v-.42h.11l-.03-.18h-.4l-.03.18h.11v.42h-.64v-.42h.11l.37-1.81h.58l.37,1.81h.11v.42h-.66Z"/>
        <path class="cls-4" d="m43.79,55.39v-.42h.11v-1.39h-.11v-.42h.64v.42h-.11v1.39h.3v-.18h.42v.59h-1.25Z"/>
        <path class="cls-16" d="m80.47,11.55h2.11v12.88h-2.11v-12.88Z"/>
        <path class="cls-16" d="m92.89,11.55h2.11v12.88h-1.66l-6.08-8.74v8.74h-2.11v-12.88h1.66l6.08,8.74v-8.74Z"/>
        <path class="cls-16" d="m105.95,11.55v2.03h-3.63v10.87h-2.11v-10.87h-3.65v-2.03h9.39Z"/>
        <path class="cls-16" d="m109.63,22.4h5.71v2.03h-7.83v-12.88h7.73v2.03h-5.62v3.34h5.15v2h-5.15v3.47Z"/>
        <path class="cls-16" d="m124.61,24.43l-2.72-4.69h-2.5v4.69h-2.11v-12.88h5.15c1.15,0,2.13.4,2.93,1.22.82.78,1.22,1.76,1.22,2.93,0,1.63-1.02,3.14-2.56,3.74l2.93,5.01h-2.32l-.02-.02Zm-5.23-10.9v4.31h3.04c1.12,0,2.03-.96,2.03-2.16s-.9-2.16-2.03-2.16h-3.04v.02Z"/>
        <path class="cls-16" d="m136.27,11.55h2.11v12.88h-1.66l-6.08-8.74v8.74h-2.11v-12.88h1.66l6.08,8.74v-8.74Z"/>
        <path class="cls-16" d="m149.35,24.43l-.9-2.59h-5.49l-.9,2.59h-2.3l4.67-12.88h2.54l4.66,12.88h-2.29Zm-5.68-4.58h4.08l-2.05-5.81-2.05,5.81h.02Z"/>
        <path class="cls-16" d="m160.47,11.55v2.03h-3.63v10.87h-2.11v-10.87h-3.65v-2.03h9.39Z"/>
        <path class="cls-16" d="m162.02,11.55h2.11v12.88h-2.11v-12.88Z"/>
        <path class="cls-16" d="m172.76,24.67c-1.86,0-3.44-.64-4.75-1.94-1.3-1.31-1.94-2.9-1.94-4.75s.64-3.44,1.94-4.74c1.31-1.31,2.9-1.95,4.75-1.95s3.44.64,4.74,1.95c1.31,1.3,1.95,2.86,1.95,4.74s-.64,3.44-1.95,4.75c-1.3,1.28-2.86,1.94-4.74,1.94Zm0-2.06c1.3,0,2.37-.45,3.23-1.31.88-.88,1.33-1.98,1.33-3.31s-.45-2.43-1.33-3.3c-.86-.88-1.95-1.33-3.23-1.33s-2.37.45-3.26,1.33c-.86.86-1.31,1.97-1.31,3.3s.45,2.43,1.31,3.31c.88.86,1.97,1.31,3.26,1.31Z"/>
        <path class="cls-16" d="m189.1,11.55h2.11v12.88h-1.66l-6.08-8.74v8.74h-2.11v-12.88h1.66l6.08,8.74v-8.74Z"/>
        <path class="cls-16" d="m202.18,24.43l-.9-2.59h-5.49l-.9,2.59h-2.3l4.67-12.88h2.54l4.66,12.88h-2.29Zm-5.68-4.58h4.08l-2.05-5.81-2.05,5.81h.02Z"/>
        <path class="cls-16" d="m207.96,22.4h5.25v2.03h-7.36v-12.88h2.11v10.87-.02Z"/>
        <path class="cls-16" d="m218.68,21.5l1.82-1.07c.51,1.46,1.58,2.18,3.2,2.18s2.38-.69,2.38-1.7c0-.53-.22-.93-.64-1.2-.42-.27-1.2-.59-2.29-.93-1.23-.37-1.84-.61-2.7-1.18-.83-.59-1.25-1.44-1.25-2.59s.4-2.05,1.22-2.7c.82-.69,1.79-1.01,2.93-1.01,2.06,0,3.66,1.07,4.5,2.83l-1.79,1.02c-.53-1.2-1.44-1.81-2.7-1.81s-2.03.62-2.03,1.6.62,1.39,2.59,2c.5.16.85.27,1.07.37.24.08.56.21.96.37.42.16.74.35.94.51.69.53,1.42,1.42,1.33,2.66,0,1.15-.42,2.1-1.26,2.78-.83.69-1.94,1.01-3.3,1.01-2.48,0-4.29-1.2-4.98-3.17v.03Z"/>
        <path class="cls-16" d="m231.21,22.75c-1.26-1.28-1.92-2.86-1.92-4.77s.64-3.47,1.92-4.75c1.26-1.28,2.9-1.94,4.82-1.94,2.34,0,4.43,1.18,5.54,3.07l-1.84,1.07c-.69-1.26-2.08-2.08-3.7-2.08-1.38,0-2.48.45-3.34,1.31-.85.86-1.26,1.97-1.26,3.31s.42,2.45,1.26,3.31c.86.86,1.97,1.31,3.34,1.31,1.62,0,3.04-.82,3.7-2.08l1.84,1.06c-.53.94-1.31,1.7-2.3,2.27-.98.54-2.06.83-3.23.83-1.94,0-3.55-.64-4.82-1.92v-.02Z"/>
        <path class="cls-16" d="m250.96,11.55h2.11v12.88h-2.11v-5.57h-5.52v5.57h-2.11v-12.88h2.11v5.28h5.52v-5.28Z"/>
        <path class="cls-16" d="m261.68,24.67c-1.86,0-3.44-.64-4.75-1.94-1.3-1.31-1.94-2.9-1.94-4.75s.64-3.44,1.94-4.74c1.31-1.31,2.9-1.95,4.75-1.95s3.44.64,4.74,1.95c1.31,1.3,1.95,2.86,1.95,4.74s-.64,3.44-1.95,4.75c-1.3,1.28-2.86,1.94-4.74,1.94Zm0-2.06c1.3,0,2.37-.45,3.23-1.31.88-.88,1.33-1.98,1.33-3.31s-.45-2.43-1.33-3.3c-.86-.88-1.95-1.33-3.23-1.33s-2.37.45-3.26,1.33c-.86.86-1.31,1.97-1.31,3.3s.45,2.43,1.31,3.31c.88.86,1.97,1.31,3.26,1.31Z"/>
        <path class="cls-16" d="m276.34,24.67c-1.86,0-3.44-.64-4.75-1.94-1.3-1.31-1.94-2.9-1.94-4.75s.64-3.44,1.94-4.74c1.31-1.31,2.9-1.95,4.75-1.95s3.44.64,4.74,1.95c1.31,1.3,1.95,2.86,1.95,4.74s-.64,3.44-1.95,4.75c-1.3,1.28-2.86,1.94-4.74,1.94Zm0-2.06c1.3,0,2.37-.45,3.23-1.31.88-.88,1.33-1.98,1.33-3.31s-.45-2.43-1.33-3.3c-.86-.88-1.95-1.33-3.23-1.33s-2.37.45-3.26,1.33c-.86.86-1.31,1.97-1.31,3.3s.45,2.43,1.31,3.31c.88.86,1.97,1.31,3.26,1.31Z"/>
        <path class="cls-16" d="m287.06,22.4h5.25v2.03h-7.36v-12.88h2.11v10.87-.02Z"/>
        <path class="cls-16" d="m292.91,21.5l1.82-1.07c.51,1.46,1.58,2.18,3.2,2.18s2.38-.69,2.38-1.7c0-.53-.22-.93-.64-1.2-.42-.27-1.2-.59-2.29-.93-1.23-.37-1.84-.61-2.7-1.18-.83-.59-1.25-1.44-1.25-2.59s.4-2.05,1.22-2.7c.82-.69,1.79-1.01,2.93-1.01,2.06,0,3.66,1.07,4.5,2.83l-1.79,1.02c-.53-1.2-1.44-1.81-2.7-1.81s-2.03.62-2.03,1.6.62,1.39,2.59,2c.5.16.85.27,1.07.37.24.08.54.21.96.37.42.16.74.35.94.51.69.53,1.42,1.42,1.33,2.66,0,1.15-.42,2.1-1.26,2.78-.83.69-1.94,1.01-3.3,1.01-2.48,0-4.29-1.2-4.98-3.17v.03Z"/>
        <path class="cls-16" d="m314.93,24.67c-1.86,0-3.44-.64-4.75-1.94-1.3-1.31-1.94-2.9-1.94-4.75s.64-3.44,1.94-4.74c1.31-1.31,2.9-1.95,4.75-1.95s3.44.64,4.74,1.95c1.31,1.3,1.95,2.86,1.95,4.74s-.64,3.44-1.95,4.75c-1.3,1.28-2.86,1.94-4.74,1.94Zm0-2.06c1.3,0,2.37-.45,3.23-1.31.88-.88,1.33-1.98,1.33-3.31s-.45-2.43-1.33-3.3c-.86-.88-1.95-1.33-3.23-1.33s-2.37.45-3.26,1.33c-.86.86-1.31,1.97-1.31,3.3s.45,2.43,1.31,3.31c.88.86,1.97,1.31,3.26,1.31Z"/>
        <path class="cls-16" d="m331.08,13.56h-5.43v3.6h5.25v2.03h-5.25v5.23h-2.11v-12.88h7.55v2.03l-.02-.02Z"/>
        <path class="cls-7" d="m93.05,28.94h5.17v22.6h-3.87l-8.72-12.26v12.26h-5.17v-22.6h3.87l8.72,12.26v-12.26Z"/>
        <path class="cls-7" d="m112.88,51.99c-3.26,0-6.03-1.14-8.32-3.39-2.29-2.26-3.42-5.04-3.42-8.35s1.14-6.1,3.42-8.35,5.07-3.39,8.32-3.39,6.03,1.14,8.32,3.39,3.42,5.04,3.42,8.35-1.14,6.1-3.42,8.35c-2.29,2.26-5.07,3.39-8.32,3.39Zm0-5.04c1.87,0,3.43-.61,4.67-1.87,1.25-1.26,1.9-2.88,1.9-4.85s-.64-3.58-1.9-4.85c-1.26-1.26-2.8-1.87-4.67-1.87s-3.46.61-4.71,1.87c-1.26,1.26-1.87,2.88-1.87,4.85s.61,3.58,1.87,4.85c1.26,1.26,2.83,1.87,4.71,1.87Z"/>
        <path class="cls-7" d="m139.41,51.54l-4.26-7.43h-2.45v7.43h-5.17v-22.6h9.04c2.16,0,3.97.74,5.49,2.26,1.52,1.52,2.26,3.33,2.26,5.49,0,2.74-1.68,5.27-4.16,6.55l4.82,8.29h-5.55l-.02.02Zm-6.72-17.75v5.81h3.87c1.42,0,2.58-1.26,2.58-2.9s-1.17-2.91-2.58-2.91h-3.87Z"/>
        <path class="cls-7" d="m162.09,28.94v4.98h-5.81v17.62h-5.17v-17.62h-5.81v-4.98h16.79Z"/>
        <path class="cls-7" d="m176.6,28.94h5.17v22.6h-5.17v-8.98h-7.11v8.98h-5.17v-22.6h5.17v8.66h7.11v-8.66Z"/>
        <path class="cls-7" d="m208.08,51.54l-1.14-3.55h-8.39l-1.14,3.55h-5.65l7.68-22.6h6.58l7.68,22.6h-5.65.02Zm-7.97-8.39h5.3l-2.64-8.29-2.64,8.29h-.02Z"/>
        <path class="cls-7" d="m238.28,28.94v22.6h-5.17v-13.14l-5.84,9.59h-.58l-5.84-9.59v13.14h-5.17v-22.6h5.17l6.13,10.03,6.13-10.03h5.17Z"/>
        <path class="cls-7" d="m247.33,46.56h9.04v4.98h-14.2v-22.6h14.04v4.98h-8.88v3.74h8.07v4.91h-8.07v4-.02Z"/>
        <path class="cls-7" d="m271.16,51.54l-4.26-7.43h-2.45v7.43h-5.17v-22.6h9.04c2.16,0,3.97.74,5.49,2.26s2.26,3.33,2.26,5.49c0,2.74-1.68,5.27-4.16,6.55l4.82,8.29h-5.55l-.02.02Zm-6.72-17.75v5.81h3.87c1.42,0,2.58-1.26,2.58-2.9s-1.17-2.91-2.58-2.91h-3.87Z"/>
        <path class="cls-7" d="m279.13,28.94h5.17v22.6h-5.17v-22.6Z"/>
        <path class="cls-7" d="m290.52,48.63c-2.22-2.26-3.33-5.07-3.33-8.39s1.1-6.13,3.33-8.35c2.22-2.26,5.04-3.39,8.42-3.39,4.03,0,7.71,2,9.68,5.23l-4.45,2.58c-1.01-1.78-2.94-2.77-5.23-2.77-2,0-3.62.61-4.82,1.84s-1.78,2.83-1.78,4.88.58,3.65,1.78,4.88,2.8,1.84,4.82,1.84c2.29,0,4.29-1.07,5.23-2.77l4.45,2.58c-1.94,3.23-5.59,5.23-9.68,5.23-3.39,0-6.19-1.14-8.42-3.36v-.03Z"/>
        <path class="cls-7" d="m325.43,51.54l-1.14-3.55h-8.39l-1.14,3.55h-5.65l7.68-22.6h6.58l7.68,22.6h-5.65.02Zm-7.97-8.39h5.3l-2.64-8.29-2.64,8.29h-.02Z"/>
      </g>
    </g>
  </g>
</svg>