<svg width="1394" height="1297" viewBox="0 0 1394 1297" fill="none" xmlns="http://www.w3.org/2000/svg">
<path d="M1391.3 266.017C1109.66 165.527 755.943 162.105 755.943 162.105C755.943 162.105 738.539 162.275 708.431 163.63L769.653 114.492L553.1 161.349L539.277 0.111328L423.959 190.395L403.947 195.489C359.01 202.976 312.413 212.135 265.828 223.338L261.254 179.091L226.605 233.266C190.703 242.831 155.106 253.684 120.593 266.005C117.849 266.976 116.652 297.288 121.508 347.443L0.938477 373.226L105.482 437.904L6.35941 618.464L150.792 516.619C167.822 586.842 193.063 666.654 229.892 749.017C234.081 742.625 238.938 735.882 244.494 728.801C257.459 712.279 274.049 694.052 294.095 674.864C325.412 644.891 365.086 612.625 412.191 581.037C420.695 575.334 429.482 569.653 438.471 564.007C448.048 557.987 457.862 552.013 467.981 546.106C477.072 540.798 486.401 535.547 495.91 530.363C549.147 501.328 608.822 474.416 674.234 452.382C634.492 448.937 628.383 427.536 628.383 427.536C628.383 427.536 782.742 393.915 854.569 355.71C926.395 317.504 1184.69 377.111 1164.82 417.609C1192.89 415.384 1245.58 430.405 1284.68 456.821C1312.67 475.726 1333.71 500.458 1333.71 528.929C1333.71 597.187 1267.99 688.89 1267.99 688.89C1267.99 688.89 1265.31 630.435 1240.34 615.505C1234.48 612.004 1227.4 610.875 1218.83 613.495C1173.75 627.251 1161.37 625.207 1151.43 626.742C1141.49 628.267 1114 656.038 1114 656.038C1114 656.038 1115.91 623.941 1089.17 626.234C1062.43 628.527 917.236 646.867 917.236 646.867C917.236 646.867 997.477 602.552 1180.1 569.688C1180.1 569.688 1089.17 565.102 1022.68 575.797C981.214 582.471 941.529 583.195 917.53 582.799C924.159 581.715 930.597 580.54 936.876 579.321C923.459 580.62 909.342 581.534 894.299 581.907C884.361 581.139 902.702 557.457 902.702 557.457C902.702 557.457 829.339 594.138 771.268 676.659C801.071 671.306 929.456 672.074 927.92 698.817C926.395 725.56 789.428 810.047 623.571 1111.91C623.571 1111.91 623.571 1111.91 623.571 1111.92V1111.9C623.843 1111.11 691.897 904.167 739.951 799.68C706.692 816.044 526.075 891.529 452.803 946.879C449.731 949.205 446.817 951.498 444.14 953.745C439.691 957.472 435.817 961.097 432.598 964.576C431.684 965.592 430.78 966.609 429.911 967.625C429.64 959.11 430.283 950.595 431.593 942.181C432.508 936.229 433.784 930.345 435.309 924.552C449.731 869.789 487.937 823.972 487.937 823.972C467.857 829.912 429.945 845.881 391.863 862.641C364.318 874.77 336.694 887.294 315.643 896.747C313.667 897.639 311.769 898.486 309.917 899.322C315.88 908.831 322.024 918.318 328.348 927.77C423.496 1069.89 560.272 1204.64 755.965 1296.02C1060.1 1153.99 1221.92 907.25 1306.34 690.856C1328.47 657.8 1353.43 612.614 1375.74 553.142C1391.54 511.029 1388.41 478.831 1374.71 454.11C1396.15 342.824 1395.66 267.564 1391.33 266.017H1391.3ZM1060.36 980.059C1054 975.564 1048.31 970.911 1043.2 966.123C959.598 887.667 1038.99 774.71 1038.99 774.71C1018.09 857.898 1028.65 908.289 1053.59 953.712C1056.91 959.765 1060.51 965.728 1064.3 971.668C1068.33 977.981 1072.59 984.272 1077.06 990.608C1071.03 987.208 1065.5 983.684 1060.36 980.059ZM1216.75 677.45C1182.83 759.814 1141.03 835.57 1092.06 903.625C977.69 840.291 1119.04 678.647 1183.36 650.165C1201.78 642 1214.63 647.873 1223.61 660.386C1221.37 666.055 1219.1 671.736 1216.74 677.45H1216.75ZM442.446 215.207L459.59 186.917L518.215 90.177L525.781 178.402L527.306 196.257L656.876 168.215L537.91 263.69L538.159 269.314L543.218 385.694L455.321 319.774L341.663 412.979L406.07 290.219L402.829 288.637L318.929 247.778L442.446 215.196V215.207ZM143.835 486.443L91.1283 523.599L135.162 443.381L143.7 427.83L131.096 420.037L76.6388 386.349L124.693 376.072L176.36 365.027L241.174 263.69L247.238 322.383L249.621 345.421L345.074 320.034L259.085 407.05L263.682 512.757L234.962 491.22L187.518 455.634L143.835 486.432V486.443ZM268.255 605.974C259.989 581.794 252.761 558.281 246.482 535.705L286.574 565.78L268.255 605.974ZM341.437 562.9L312.199 578.733L351.037 512.136L291.272 478.899L382.557 455.126L450.307 362.203L456.1 440.738L514.793 433.059C519.942 437.644 526.425 442.207 534.522 446.171L465.293 491.988V492.237C426.545 512.994 382.241 538.631 341.449 562.912L341.437 562.9ZM1199.45 370.99C1150.54 326.155 897.857 278.27 773.56 328.199C704.93 355.766 627.637 377.099 572.141 390.697L567.206 276.972L582.576 264.639C678.853 255.299 747.552 253.933 755.943 253.797C773.278 254.068 1056.96 259.726 1303.73 333.427C1302.18 350.334 1299.76 370.809 1296.14 394.13C1257.32 379.177 1216.88 373.825 1199.46 370.99H1199.45Z" fill="#0D2042"/>
<path d="M532.061 618.092C522.461 622.688 511.981 627.725 500.992 633.01C499.117 633.914 497.243 634.817 495.334 635.732C440.154 662.317 371.614 695.723 315.688 724.364C306.631 729.005 297.879 733.522 289.6 737.859C279.007 744.149 268.052 750.677 256.804 757.374C250.852 760.921 244.776 764.523 238.633 768.171C255.054 803.328 273.609 838.845 294.57 874.183C296.704 870.366 299.042 866.402 301.538 862.347C314.175 841.782 331.217 818.348 350.856 794.056C405.088 726.961 478.755 653.632 532.072 618.08L532.061 618.092Z" fill="#0D2042"/>
<path d="M830.469 523.61C835.246 533.684 901.076 531.583 915.848 518.02C858.115 478.301 927.514 432.934 927.514 432.934C927.514 432.934 910.009 469.819 927.774 493.389C969.017 548.106 1040.99 483.044 1040.99 483.044C1040.99 483.044 1043.28 487.73 1074.4 483.484C1023.5 439.654 944.307 402.882 944.307 402.882L898.354 419.145C906.305 418.614 919.563 423.391 926.983 425.515C823.58 461.575 825.703 513.536 830.48 523.61H830.469ZM970.463 436.65C970.463 436.65 970.745 436.797 971.242 437.057C966.736 438.762 959.7 442.003 954.754 446.95C956.188 446.814 957.667 446.712 959.237 446.712C968.385 446.712 975.805 449.254 975.805 452.404C975.805 455.555 968.385 458.096 959.237 458.096C955.476 458.096 952.043 457.645 949.265 456.922C948.474 461.993 950.225 468.023 956.414 475.104C976.629 498.222 1005.24 487.268 1022.65 466.42C1027.81 469.864 1031.96 472.993 1034.1 475.364C961.191 533.424 935.476 480.141 935.476 463.698C935.476 432.415 970.474 436.65 970.474 436.65H970.463Z" fill="#0D2042"/>
<path d="M1119.47 512.621C1119.47 512.621 1192.57 482.049 1182.38 466.769C1174.43 454.832 1146.98 469.118 1146.98 469.118C1182.84 471.535 1119.47 512.621 1119.47 512.621Z" fill="#0D2042"/>
</svg>
