<?xml version="1.0" encoding="UTF-8"?>
<svg id="Layer_2" data-name="Layer 2" xmlns="http://www.w3.org/2000/svg" xmlns:xlink="http://www.w3.org/1999/xlink" viewBox="0 0 247.78 62.69">
  <defs>
    <style>
      .cls-1 {
        fill: #30b2e6;
      }

      .cls-1, .cls-2, .cls-3, .cls-4, .cls-5, .cls-6, .cls-7, .cls-8, .cls-9, .cls-10, .cls-11, .cls-12, .cls-13, .cls-14, .cls-15 {
        stroke-width: 0px;
      }

      .cls-2 {
        fill: url(#linear-gradient);
      }

      .cls-3 {
        fill: #c8202c;
      }

      .cls-4 {
        fill: #ad1f2c;
      }

      .cls-16 {
        clip-path: url(#clippath-2);
      }

      .cls-5 {
        fill: #73c7dc;
      }

      .cls-6 {
        fill: #fcd30c;
      }

      .cls-7 {
        fill: none;
      }

      .cls-17 {
        clip-path: url(#clippath-1);
      }

      .cls-8 {
        fill: #b3b3b3;
      }

      .cls-9 {
        fill: #0e2044;
      }

      .cls-10 {
        fill: #fff;
      }

      .cls-11 {
        fill: #9163a2;
      }

      .cls-12 {
        fill: #e64526;
      }

      .cls-18 {
        clip-path: url(#clippath);
      }

      .cls-13 {
        fill: #0cacc8;
      }

      .cls-14 {
        fill: #f4a51d;
      }

      .cls-15 {
        fill: #9263a0;
      }
    </style>
    <clipPath id="clippath">
      <rect class="cls-7" x="89.7" y="1.37" width="62.46" height="61.32"/>
    </clipPath>
    <clipPath id="clippath-1">
      <path class="cls-7" d="m121.03,33.57c-.6,1.04-.91,2.67-.91,4.9s.3,3.87.91,4.9c.6,1.04,1.63,1.56,3.07,1.56s2.47-.52,3.07-1.56c.6-1.04.9-2.67.9-4.9s-.3-3.86-.9-4.9c-.6-1.04-1.63-1.55-3.07-1.55s-2.47.52-3.07,1.55m-10.21-18.14c-.61.6-.92,1.35-.92,2.25s.31,1.65.92,2.25c.61.6,1.35.9,2.23.9s1.61-.3,2.22-.9c.61-.6.92-1.35.92-2.25s-.31-1.65-.92-2.25c-.61-.6-1.35-.9-2.22-.9s-1.61.3-2.23.9m9.67-5.46c-2.59,0-5.23.46-7.81,1.44-6.38,2.42-10.96,7.49-12.99,13.49,2.1-5.57,6.49-10.24,12.49-12.52,5.4-2.05,11.11-1.78,16.04.31-1.08,5.9-3.88,11.2-7.86,15.36v3.72c.74-.45,1.56-.83,2.47-1.13.91-.3,1.79-.46,2.66-.46,1.16,0,2.22.2,3.2.61.97.41,1.81.96,2.52,1.67.71.71,1.26,1.55,1.66,2.52.39.97.59,2.04.59,3.19,0,1.26-.26,2.39-.79,3.39-.53,1-1.22,1.84-2.07,2.52-.85.68-1.83,1.2-2.93,1.56-1.1.35-2.25.53-3.43.53-1.39,0-2.89-.25-4.49-.75-1.6-.5-3.06-1.13-4.37-1.89.08-.47.14-1.05.2-1.73.05-.68.09-1.42.12-2.2.03-.79.04-1.59.04-2.4v-2.32l-.02-12.5c-.97.27-2.12.47-3.46.61-1.34.13-2.8.23-4.4.28v.8c1.21,0,2.05.16,2.52.47.47.31.71.81.71,1.49v8.6c-3.7,1.69-7.81,2.66-12.13,2.71,2.38,9.64,11.08,16.79,21.46,16.79,12.21,0,22.11-9.89,22.11-22.1,0-9.38-5.84-17.39-14.08-20.6,0,0,0,0,0,.01-2.5-.98-5.18-1.5-7.93-1.5h0Z"/>
    </clipPath>
    <linearGradient id="linear-gradient" x1="1205.62" y1="6640.46" x2="1205.84" y2="6640.46" gradientTransform="translate(1371069.9 -248895.83) rotate(90) scale(206.45)" gradientUnits="userSpaceOnUse">
      <stop offset="0" stop-color="#31b1e6"/>
      <stop offset=".31" stop-color="#31b1e6"/>
      <stop offset=".42" stop-color="#2da4da"/>
      <stop offset=".62" stop-color="#2482bb"/>
      <stop offset=".88" stop-color="#154d89"/>
      <stop offset=".9" stop-color="#144986"/>
      <stop offset="1" stop-color="#144986"/>
    </linearGradient>
    <clipPath id="clippath-2">
      <rect class="cls-7" x="89.7" y="1.37" width="62.46" height="61.32"/>
    </clipPath>
  </defs>
  <g id="Layer_1-2" data-name="Layer 1">
    <g>
      <polyline class="cls-8" points="161.35 1.62 161.35 62.66 161.69 62.66 161.69 1.62"/>
      <polyline class="cls-8" points="79.6 1.62 79.6 62.66 79.94 62.66 79.94 1.62"/>
      <path class="cls-15" d="m234.34,4.64c-3,0-5.78.99-8.02,2.65,3.29,2.45,5.42,6.37,5.42,10.79s-2.13,8.34-5.42,10.79c2.24,1.67,5.01,2.65,8.02,2.65,7.42,0,13.44-6.02,13.44-13.44s-6.02-13.44-13.44-13.44"/>
      <path class="cls-5" d="m220.9,18.08c0-4.42,2.13-8.34,5.43-10.79-2.24-1.67-5.01-2.65-8.02-2.65s-5.78.99-8.02,2.65c3.29,2.45,5.42,6.37,5.42,10.79s-2.13,8.34-5.42,10.79c2.24,1.67,5.01,2.65,8.02,2.65s5.78-.99,8.02-2.65c-3.29-2.45-5.43-6.37-5.43-10.79"/>
      <path class="cls-11" d="m226.32,28.87h0c-3.29-2.45-5.43-6.37-5.43-10.79s2.13-8.34,5.43-10.79c3.29,2.45,5.42,6.37,5.42,10.79s-2.13,8.34-5.42,10.79"/>
      <path class="cls-13" d="m231.75,18.08c0-4.42-2.13-8.34-5.42-10.79-3.29,2.45-5.42,6.37-5.42,10.79s2.13,8.34,5.42,10.79c3.29-2.45,5.42-6.37,5.42-10.79"/>
      <path class="cls-12" d="m204.86,18.08c0-4.42,2.13-8.34,5.42-10.79-2.24-1.67-5.01-2.65-8.02-2.65s-5.78.99-8.02,2.65c3.29,2.45,5.42,6.37,5.42,10.79s-2.13,8.34-5.42,10.79c2.24,1.67,5.01,2.65,8.02,2.65s5.78-.99,8.02-2.65c-3.29-2.45-5.42-6.37-5.42-10.79"/>
      <path class="cls-3" d="m215.71,18.08c0-4.42-2.13-8.34-5.42-10.79-3.29,2.45-5.43,6.37-5.43,10.79s2.13,8.34,5.43,10.79c3.29-2.45,5.42-6.37,5.42-10.79"/>
      <path class="cls-6" d="m188.83,18.08c0-4.42,2.13-8.34,5.42-10.79-2.24-1.67-5.01-2.65-8.02-2.65-7.42,0-13.44,6.02-13.44,13.44s6.02,13.44,13.44,13.44c3.01,0,5.78-.99,8.02-2.65-3.29-2.45-5.42-6.37-5.42-10.79"/>
      <path class="cls-14" d="m199.68,18.08c0-4.42-2.13-8.34-5.42-10.79-3.29,2.45-5.42,6.37-5.42,10.79s2.13,8.34,5.42,10.79c3.29-2.45,5.42-6.37,5.42-10.79"/>
      <rect class="cls-8" x="183.68" y="37.5" width=".62" height="4.84"/>
      <path class="cls-8" d="m186.04,37.57c.27-.06.7-.1,1.14-.1.62,0,1.03.11,1.33.35.25.19.4.47.4.85,0,.47-.31.88-.82,1.06h0c.46.13,1,.51,1,1.23,0,.42-.17.73-.41.97-.34.31-.88.45-1.67.45-.43,0-.76-.03-.97-.06v-4.76Zm.62,1.98h.57c.66,0,1.05-.34,1.05-.81,0-.57-.43-.79-1.06-.79-.29,0-.45.02-.55.04v1.56Zm0,2.32c.12.02.3.03.52.03.65,0,1.24-.24,1.24-.94,0-.66-.57-.93-1.25-.93h-.52v1.84Z"/>
      <path class="cls-8" d="m196.13,42.18c-.23.11-.69.23-1.28.23-1.36,0-2.39-.86-2.39-2.45s1.03-2.54,2.53-2.54c.6,0,.98.13,1.15.22l-.15.51c-.24-.11-.57-.2-.98-.2-1.13,0-1.89.73-1.89,2,0,1.18.68,1.94,1.86,1.94.38,0,.77-.08,1.02-.2l.13.5Z"/>
      <path class="cls-8" d="m201.54,39.87c0,1.67-1.01,2.55-2.25,2.55s-2.17-.99-2.17-2.45c0-1.54.95-2.54,2.25-2.54s2.17,1.01,2.17,2.45m-3.75.08c0,1.03.56,1.96,1.54,1.96s1.55-.91,1.55-2.01c0-.96-.5-1.97-1.54-1.97s-1.55.96-1.55,2.02"/>
      <path class="cls-8" d="m202.99,42.34v-4.84h.68l1.55,2.45c.36.57.64,1.08.87,1.57h.01c-.06-.65-.07-1.24-.07-2v-2.02h.59v4.84h-.63l-1.54-2.45c-.34-.54-.66-1.09-.91-1.61h-.02c.04.62.05,1.2.05,2v2.07h-.59Z"/>
      <polygon class="cls-8" points="209.28 38.03 207.81 38.03 207.81 37.5 211.39 37.5 211.39 38.03 209.91 38.03 209.91 42.34 209.28 42.34 209.28 38.03"/>
      <rect class="cls-8" x="212.57" y="37.5" width=".62" height="4.84"/>
      <path class="cls-8" d="m214.93,42.34v-4.84h.68l1.55,2.45c.36.57.64,1.08.87,1.57h.01c-.06-.65-.07-1.24-.07-2v-2.02h.59v4.84h-.63l-1.54-2.45c-.34-.54-.66-1.09-.9-1.61h-.02c.04.62.05,1.2.05,2v2.07h-.59Z"/>
      <path class="cls-8" d="m220.92,37.5v2.86c0,1.08.48,1.54,1.13,1.54.72,0,1.18-.47,1.18-1.54v-2.86h.63v2.82c0,1.48-.78,2.1-1.83,2.1-.99,0-1.74-.57-1.74-2.07v-2.85h.63Z"/>
      <path class="cls-8" d="m226.21,37.5v2.86c0,1.08.48,1.54,1.13,1.54.72,0,1.18-.47,1.18-1.54v-2.86h.63v2.82c0,1.48-.78,2.1-1.83,2.1-.99,0-1.74-.57-1.74-2.07v-2.85h.63Z"/>
      <path class="cls-8" d="m234.95,40.21c-.04-.67-.08-1.49-.07-2.09h-.02c-.17.57-.37,1.17-.61,1.84l-.85,2.35h-.47l-.78-2.3c-.23-.68-.42-1.31-.56-1.88h-.01c-.01.6-.05,1.41-.09,2.14l-.13,2.07h-.6l.34-4.84h.8l.83,2.34c.2.6.37,1.13.49,1.63h.02c.12-.49.29-1.02.51-1.63l.86-2.34h.8l.3,4.84h-.61l-.12-2.12Z"/>
      <path class="cls-8" d="m178.47,50.79c-.23.12-.69.23-1.28.23-1.36,0-2.39-.86-2.39-2.45s1.03-2.54,2.53-2.54c.6,0,.98.13,1.15.22l-.15.51c-.24-.11-.57-.2-.98-.2-1.13,0-1.89.72-1.89,2,0,1.18.68,1.94,1.86,1.94.38,0,.77-.08,1.02-.2l.13.5Z"/>
      <path class="cls-8" d="m183.88,48.48c0,1.67-1.01,2.55-2.25,2.55s-2.17-.99-2.17-2.45c0-1.54.95-2.54,2.25-2.54s2.17,1.01,2.17,2.45m-3.75.08c0,1.03.56,1.96,1.54,1.96s1.55-.91,1.55-2.01c0-.96-.5-1.97-1.54-1.97s-1.55.96-1.55,2.02"/>
      <path class="cls-8" d="m185.33,50.95v-4.84h.68l1.55,2.45c.36.57.64,1.08.87,1.57h.01c-.06-.65-.07-1.24-.07-2v-2.02h.59v4.84h-.63l-1.54-2.45c-.34-.54-.66-1.09-.9-1.61h-.02c.04.62.05,1.2.05,2v2.07h-.59Z"/>
      <polygon class="cls-8" points="191.62 46.64 190.15 46.64 190.15 46.11 193.73 46.11 193.73 46.64 192.25 46.64 192.25 50.95 191.62 50.95 191.62 46.64"/>
      <rect class="cls-8" x="194.91" y="46.11" width=".62" height="4.84"/>
      <path class="cls-8" d="m197.27,50.95v-4.84h.68l1.55,2.45c.36.57.64,1.08.87,1.57h.01c-.06-.65-.07-1.24-.07-2v-2.02h.59v4.84h-.63l-1.54-2.45c-.34-.54-.66-1.09-.9-1.61h-.02c.04.62.05,1.2.05,2v2.07h-.59Z"/>
      <path class="cls-8" d="m203.26,46.11v2.86c0,1.08.48,1.54,1.13,1.54.72,0,1.18-.47,1.18-1.54v-2.86h.63v2.82c0,1.49-.78,2.1-1.83,2.1-.99,0-1.74-.57-1.74-2.07v-2.85h.63Z"/>
      <path class="cls-8" d="m208.55,46.11v2.86c0,1.08.48,1.54,1.13,1.54.72,0,1.18-.47,1.18-1.54v-2.86h.63v2.82c0,1.49-.78,2.1-1.83,2.1-.99,0-1.74-.57-1.74-2.07v-2.85h.63Z"/>
      <path class="cls-8" d="m217.29,48.82c-.04-.68-.08-1.49-.07-2.09h-.02c-.16.57-.37,1.17-.61,1.84l-.85,2.35h-.47l-.78-2.3c-.23-.68-.42-1.31-.56-1.88h-.01c-.01.6-.05,1.41-.09,2.14l-.13,2.07h-.6l.34-4.84h.8l.83,2.34c.2.6.37,1.13.49,1.63h.02c.12-.49.29-1.02.51-1.63l.86-2.34h.8l.3,4.84h-.61l-.12-2.12Z"/>
      <path class="cls-8" d="m221.8,46.18c.38-.06.83-.1,1.33-.1.9,0,1.54.21,1.96.6.43.39.68.95.68,1.74s-.24,1.44-.7,1.88c-.45.45-1.2.7-2.14.7-.44,0-.82-.02-1.13-.06v-4.76Zm.62,4.28c.16.03.39.04.63.04,1.33,0,2.06-.75,2.06-2.05,0-1.14-.64-1.87-1.96-1.87-.32,0-.57.03-.73.07v3.82Z"/>
      <polygon class="cls-8" points="229.72 48.68 227.84 48.68 227.84 50.42 229.94 50.42 229.94 50.95 227.22 50.95 227.22 46.11 229.83 46.11 229.83 46.64 227.84 46.64 227.84 48.16 229.72 48.16 229.72 48.68"/>
      <polygon class="cls-8" points="233.56 46.11 234.19 46.11 234.19 50.42 236.25 50.42 236.25 50.95 233.56 50.95 233.56 46.11"/>
      <path class="cls-8" d="m237.63,46.03c-.17.6-.47,1.37-.67,1.7l-.4.05c.16-.42.34-1.17.42-1.69l.65-.06Z"/>
      <rect class="cls-8" x="238.98" y="46.11" width=".62" height="4.84"/>
      <path class="cls-8" d="m241.35,46.18c.27-.06.7-.1,1.14-.1.62,0,1.03.11,1.33.35.25.19.4.47.4.85,0,.47-.31.88-.82,1.06h0c.46.13,1,.51,1,1.23,0,.42-.17.73-.41.97-.34.31-.88.45-1.67.45-.43,0-.76-.03-.97-.06v-4.76Zm.62,1.98h.57c.66,0,1.05-.34,1.05-.81,0-.57-.43-.79-1.06-.79-.29,0-.45.02-.55.04v1.56Zm0,2.32c.12.02.3.03.52.03.65,0,1.24-.24,1.24-.94,0-.66-.57-.93-1.25-.93h-.52v1.84Z"/>
      <path class="cls-8" d="m182.22,59.4c-.23.11-.69.23-1.28.23-1.36,0-2.39-.86-2.39-2.45s1.03-2.54,2.53-2.54c.6,0,.98.13,1.15.22l-.15.51c-.24-.11-.57-.2-.98-.2-1.13,0-1.89.73-1.89,2,0,1.18.68,1.94,1.86,1.94.38,0,.77-.08,1.02-.2l.13.49Z"/>
      <path class="cls-8" d="m187.63,57.09c0,1.66-1.01,2.55-2.25,2.55s-2.17-.99-2.17-2.45c0-1.54.95-2.54,2.25-2.54s2.17,1.01,2.17,2.45m-3.75.08c0,1.03.56,1.96,1.54,1.96s1.55-.91,1.55-2.01c0-.96-.5-1.97-1.54-1.97s-1.55.95-1.55,2.02"/>
      <path class="cls-8" d="m189.09,59.56v-4.84h.68l1.55,2.45c.36.57.64,1.08.87,1.57h.01c-.06-.65-.07-1.24-.07-1.99v-2.02h.59v4.84h-.63l-1.54-2.45c-.34-.54-.66-1.09-.91-1.61h-.02c.04.62.05,1.2.05,2v2.07h-.59Z"/>
      <polygon class="cls-8" points="195.37 55.25 193.9 55.25 193.9 54.72 197.48 54.72 197.48 55.25 196 55.25 196 59.56 195.37 59.56 195.37 55.25"/>
      <rect class="cls-8" x="198.66" y="54.72" width=".62" height="4.84"/>
      <path class="cls-8" d="m201.03,59.56v-4.84h.68l1.55,2.45c.36.57.64,1.08.87,1.57h.01c-.06-.65-.07-1.24-.07-1.99v-2.02h.59v4.84h-.63l-1.54-2.45c-.34-.54-.66-1.09-.9-1.61h-.02c.04.62.05,1.2.05,2v2.07h-.59Z"/>
      <path class="cls-8" d="m207.02,54.72v2.86c0,1.08.48,1.54,1.13,1.54.72,0,1.18-.47,1.18-1.54v-2.86h.63v2.82c0,1.48-.78,2.1-1.83,2.1-.99,0-1.74-.57-1.74-2.07v-2.85h.63Z"/>
      <path class="cls-8" d="m215.81,57.09c0,1.66-1.01,2.55-2.25,2.55s-2.17-.99-2.17-2.45c0-1.54.95-2.54,2.25-2.54s2.17,1.01,2.17,2.45m-3.75.08c0,1.03.56,1.96,1.54,1.96s1.55-.91,1.55-2.01c0-.96-.5-1.97-1.54-1.97s-1.55.95-1.55,2.02"/>
      <path class="cls-8" d="m219.43,54.79c.38-.06.83-.1,1.33-.1.9,0,1.54.21,1.96.6.43.39.68.95.68,1.74s-.24,1.44-.7,1.88c-.45.45-1.2.7-2.14.7-.44,0-.82-.02-1.13-.06v-4.76Zm.62,4.28c.16.03.39.04.63.04,1.33,0,2.06-.75,2.06-2.05,0-1.14-.64-1.87-1.96-1.87-.32,0-.57.03-.73.06v3.82Z"/>
      <polygon class="cls-8" points="227.36 57.29 225.48 57.29 225.48 59.03 227.58 59.03 227.58 59.56 224.86 59.56 224.86 54.72 227.47 54.72 227.47 55.25 225.48 55.25 225.48 56.77 227.36 56.77 227.36 57.29"/>
      <polygon class="cls-8" points="229.03 54.72 229.66 54.72 229.66 59.03 231.73 59.03 231.73 59.56 229.03 59.56 229.03 54.72"/>
      <rect class="cls-8" x="235.23" y="54.72" width=".62" height="4.84"/>
      <path class="cls-8" d="m237.59,54.79c.27-.06.7-.1,1.14-.1.62,0,1.03.11,1.33.35.25.19.4.47.4.85,0,.47-.31.88-.82,1.06h0c.46.13,1,.51,1,1.23,0,.42-.17.73-.41.97-.34.31-.88.45-1.67.45-.43,0-.76-.03-.97-.06v-4.76Zm.62,1.98h.57c.66,0,1.05-.35,1.05-.81,0-.57-.43-.79-1.06-.79-.29,0-.45.02-.55.04v1.56Zm0,2.32c.12.02.3.03.52.03.65,0,1.24-.24,1.24-.94,0-.66-.57-.93-1.25-.93h-.52v1.84Z"/>
      <path class="cls-9" d="m30.98,8l1.1.25s.24.05.5.06l-6.89,2.33.02.09c.78,3.09.53,5.66-.75,7.65-1.85,2.87-5.25,3.52-5.28,3.53l-.09.02v.09c0,3.83.76,7.48,2.26,10.86,1.21,2.73,2.92,5.3,5.06,7.62,3.44,3.73,7.03,5.78,8.08,6.33v.15l.12-.09.11.07v-.14c1.05-.55,4.65-2.6,8.08-6.34,2.14-2.33,3.84-4.89,5.05-7.62,1.5-3.38,2.26-7.03,2.26-10.86v-.08l-.08-.02s-3.63-.76-5.47-3.78c-1.22-2-1.4-4.54-.55-7.54l.03-.1-6.81-2.2c.22-.02.38-.05.4-.06l1.12-.26-.06-.04,6.02,1.9c-2.92,10.12,6.21,11.63,6.21,11.63,0,17.7-15.64,25.84-16.31,26.2h0s0,0-.01,0c0,0-.01,0-.01,0h0c-.67-.36-16.31-8.51-16.31-26.21,0,0,9.1-1.42,6.18-11.53l6.01-1.95Zm2.23.39c.07.02.17.03.29.03.09,0,.18,0,.27-.03-.06.31-.2.7-.48,1.14l-.6.96.86-.14c0,.08-.01.15-.02.24l-.04,1.09.86-.64c.06.31.14.66.29,1.01l.48,1.16.48-1.16c.14-.35.23-.7.29-1.01l.86.64-.04-1.09c0-.08,0-.16-.02-.24l.86.14-.6-.96c-.28-.45-.41-.83-.48-1.14.09.02.18.03.27.03.15,0,.27-.03.34-.05l7.15,2.31c-.83,3.01-.62,5.57.62,7.6,1.7,2.79,4.87,3.71,5.51,3.87-.02,3.74-.77,7.31-2.24,10.61-1.2,2.7-2.89,5.24-5.01,7.55-3.39,3.69-6.95,5.72-8,6.28-1.05-.56-4.6-2.58-8-6.27-2.12-2.3-3.81-4.84-5.01-7.55-1.47-3.3-2.22-6.88-2.24-10.62.62-.15,3.62-.97,5.32-3.61,1.3-2.02,1.58-4.62.83-7.72l7.2-2.44Zm-3.12-1.89c-.72-.07-1.64-1.07-1.64-1.07,1.94-.11,2.62-.55,2.62-.55-.8.26-2.58.1-2.58.1-.7-.37-1.1-1.35-1.1-1.35,1.41.31,3.14.11,3.14.11-1.13-.02-2.98-.64-2.98-.64-.65-.5-.88-1.94-.88-1.94,2.06,1.51,5.79,2.11,5.79,2.11.23,1.08.96,1.58,1.6,1.82.14-.48.56-1.9.77-2.03.25-.15.58-.2.86-.01,0,0,.68,0,.59.65,0,0-.25-.17-.5-.06,0,0,.05.92.43,1.44.63-.24,1.34-.74,1.57-1.8,0,0,3.73-.6,5.79-2.11,0,0-.23,1.43-.88,1.94,0,0-1.85.61-2.98.64,0,0,1.73.2,3.14-.11,0,0-.4.98-1.1,1.35,0,0-1.78.16-2.58-.1,0,0,.69.44,2.62.55,0,0-.92.99-1.64,1.07,0,0-1.09-.2-1.88-.75,0,0,.14.22.4.49.25.26.61.56,1.06.76,0,0-1.01.45-1.63.31,0,0-.39-.25-.72-.61,0,0,.15.46.42.81.07.09.15.18.25.24,0,0-.54.12-.94,0,0,0-.25-.28-.38-.58-.02-.05-.04-.11-.05-.16,0,0,0,.06.01.15.03.21.09.56.28.72,0,0-.29.11-.58-.06,0,0-.33-.15-.39-.44,0,0-.05.12-.07.35,0,.08-.01.17-.01.28,0,.43.13,1.05.6,1.81,0,0-.31-.05-.52-.27,0,0,.17.47.2,1.08,0,0-.49-.37-.74-.72,0,0,.07.98-.33,1.96-.4-.98-.33-1.96-.33-1.96-.25.36-.74.72-.74.72.02-.61.2-1.08.2-1.08-.21.22-.52.27-.52.27.46-.75.59-1.37.6-1.8,0-.11,0-.2,0-.28-.02-.23-.07-.36-.07-.36-.06.29-.39.44-.39.44-.28.17-.58.06-.58.06.18-.15.25-.5.28-.7.01-.1.01-.17.01-.17-.01.06-.03.12-.06.18-.13.3-.37.57-.37.57-.4.12-.94,0-.94,0,.08-.06.15-.13.22-.21.29-.35.44-.84.44-.84-.33.37-.72.61-.72.61-.63.15-1.63-.31-1.63-.31.45-.2.81-.5,1.06-.76.26-.27.4-.49.4-.49-.78.55-1.88.75-1.88.75m-12.58,14.28c0,19.09,16.87,28.14,17.59,28.51h0s0,.01.01,0c0,0,.01,0,.01,0h0c.72-.39,17.59-9.44,17.59-28.53,0,0-9.44-1.05-6.29-11.96l-5.45-1.82h.02s-.28-.13-.28-.13c.69-.29,1.31-.94,1.46-1.09l.75-.81-.32-.02c.45-.48.69-1.05.73-1.13l.38-.91-.22.05c.43-.69.58-1.59.6-1.71l.2-1.25-1.02.75c-1.93,1.42-5.53,2.01-5.57,2.02l-.35.06-.07.35c-.09.41-.27.74-.54,1l.06-.39c.06-.43-.09-.71-.23-.87-.22-.26-.53-.34-.72-.36-.17-.09-.36-.13-.56-.13-.25,0-.5.07-.73.21-.16.09-.35.21-.82,1.73-.41-.28-.67-.67-.77-1.19l-.07-.35-.35-.06s-3.63-.6-5.57-2.02l-1.02-.75.2,1.25c.02.13.18,1.03.6,1.71l-.22-.05.38.91c.04.08.28.66.73,1.13l-.32.02.75.81c.14.15.76.8,1.46,1.09l-.28.13h.02s-5.45,1.82-5.45,1.82c3.15,10.91-6.29,11.96-6.29,11.96"/>
      <path class="cls-9" d="m44.92,51.77s.07.06.07.06h0s.08-.1.12-.14c.07-.09.12-.18.15-.27.22-.53-.03-1.01-.24-1.28-.12-.15-.22-.24-.22-.24,0,.01-.02.02-.03.03-.06.07-.12.14-.17.21-.07.1-.12.19-.15.29-.17.45,0,.83.2,1.09.09.12.19.21.25.27"/>
      <path class="cls-9" d="m43.61,51.24s.07.06.07.06c.04-.05.08-.1.12-.14.07-.09.12-.18.15-.27.22-.53-.03-1.01-.24-1.28-.11-.15-.21-.24-.21-.24h0s-.02.02-.03.03c-.06.07-.12.14-.17.21-.07.1-.12.19-.15.29-.17.45,0,.83.2,1.08.09.12.19.21.25.27"/>
      <path class="cls-9" d="m42.24,50.93s.07.06.07.06c.04-.05.08-.1.12-.14.07-.09.12-.18.15-.27.23-.53-.03-1.01-.24-1.28-.12-.15-.22-.24-.22-.24,0,0-.02.02-.03.03-.06.07-.12.14-.17.21-.07.1-.12.19-.15.29-.17.45,0,.83.2,1.09.09.12.19.21.25.27"/>
      <path class="cls-9" d="m45.44,49.2c.07-.02.13-.04.2-.06.06-.02.13-.04.18-.07.06-.03.12-.05.18-.08.06-.03.12-.06.17-.09.06-.04.11-.07.16-.1.07-.05.12-.09.15-.11.02-.01.02-.02.02-.02h0s-.04-.02-.06-.02c-.11-.04-.22-.07-.33-.09-.09-.02-.19-.03-.28-.04-.09,0-.17,0-.25,0-.08,0-.16,0-.23.01-.07,0-.15.02-.22.03-.07.01-.14.03-.2.05-.07.02-.13.04-.19.06-.06.02-.13.04-.19.07-.06.03-.12.05-.18.08-.06.03-.12.06-.17.09-.06.03-.12.07-.16.09-.09.05-.14.09-.14.09.1.04.21.08.31.1.1.03.2.05.3.06.09.01.18.02.27.03.08,0,.16,0,.24,0,.08,0,.15-.01.22-.02s.14-.03.21-.04"/>
      <path class="cls-9" d="m47.27,51.05c.07.02.14.03.21.05.07.01.14.02.21.03.07,0,.14,0,.21,0,.07,0,.14,0,.2,0,.07,0,.14-.01.2-.02.08-.01.14-.02.2-.04.1-.02.16-.04.16-.04-.06-.07-.13-.12-.2-.18-.07-.05-.15-.1-.23-.14-.07-.04-.15-.07-.22-.09-.07-.03-.14-.05-.22-.06-.07-.02-.14-.03-.21-.04-.07-.01-.14-.02-.21-.02-.07,0-.14,0-.21,0-.07,0-.14,0-.2,0-.07,0-.14,0-.2.02-.08,0-.15.02-.2.03-.08.01-.13.03-.13.03.05.05.1.1.16.15.08.06.15.12.24.17.07.04.15.08.23.11.07.03.15.05.22.07"/>
      <path class="cls-9" d="m47.48,52.16c.07.06.15.11.23.15.07.04.15.07.22.1.07.03.15.05.22.07.07.02.15.04.21.05.08.01.15.02.21.03.11.01.18.01.18.01-.05-.21-.15-.38-.28-.51-.07-.08-.16-.15-.24-.21-.07-.05-.15-.09-.23-.13-.07-.04-.15-.07-.22-.1-.07-.03-.15-.05-.22-.07-.08-.02-.15-.04-.21-.05-.09-.02-.16-.03-.21-.04-.06,0-.1-.01-.1-.01h0c.03.17.09.31.18.43.07.11.16.2.26.28"/>
      <path class="cls-9" d="m47.79,55.27s.02-.04.03-.06c.08-.13.12-.25.14-.37.02-.19-.02-.35-.09-.5-.07-.15-.18-.28-.27-.37-.11-.11-.21-.18-.21-.18h0s-.01.02-.02.03c-.06.09-.1.17-.13.25.05-.14.08-.29.11-.44.03-.15.04-.31.05-.47.03.05.06.1.1.14.07.09.16.16.25.23.07.05.15.09.23.13.07.04.15.06.22.09.08.03.15.05.22.06.09.02.17.03.21.04.02,0,.03,0,.03,0h0c0-.13-.04-.25-.1-.35-.07-.13-.16-.24-.26-.33-.07-.06-.15-.12-.24-.17-.07-.04-.15-.08-.22-.11-.08-.03-.15-.06-.22-.08-.08-.03-.16-.05-.22-.06h0c0-.06-.01-.11-.02-.16,0-.04-.01-.07-.02-.11,0-.03-.01-.05-.02-.08-.08-.37-.21-.71-.4-1.04-.08-.15-.18-.28-.28-.42-.08-.11-.17-.21-.26-.31-.08-.08-.16-.17-.25-.25-.08-.07-.16-.14-.24-.21-.08-.06-.16-.12-.24-.18-.08-.05-.15-.11-.23-.16-.08-.05-.15-.09-.23-.14-.07-.04-.15-.08-.23-.13-.07-.04-.15-.08-.23-.11-.07-.04-.15-.07-.22-.1-.07-.03-.15-.06-.22-.09-.07-.03-.15-.06-.22-.08-.07-.03-.14-.05-.22-.08-.07-.02-.14-.05-.22-.07-.07-.02-.14-.04-.22-.06-.07-.02-.14-.04-.21-.06-.07-.02-.14-.03-.21-.05-.07-.02-.14-.03-.21-.05-.01,0-.03,0-.04,0,.2-.02.4-.04.6-.07.23-.03.46-.06.68-.1.23-.04.46-.08.68-.13.23-.05.46-.09.68-.15.23-.05.46-.11.68-.18.23-.06.46-.13.68-.2.23-.07.46-.15.68-.23.23-.08.46-.17.69-.26.23-.09.46-.19.69-.29.23-.1.46-.21.69-.32.23-.11.46-.23.69-.36.23-.13.46-.26.69-.39.23-.14.46-.28.69-.43.23-.15.47-.31.69-.48.24-.17.47-.34.69-.52.24-.19.47-.38.7-.58.24-.21.47-.42.7-.64.24-.23.47-.47.7-.71.24-.26.48-.52.7-.8.24-.29.48-.59.7-.9.25-.34.48-.68.71-1.04.25-.4.49-.8.71-1.22.26-.49.5-.99.72-1.5.28-.66.53-1.33.74-2.02.45-1.49.73-3.05.82-4.66,0-.18.02-.35.02-.53,0-.11,0-.23,0-.34,0-.4,0-.79-.02-1.19.06-.02.15-.06.25-.11.18-.08.42-.2.69-.36.22-.13.45-.28.69-.46.23-.17.47-.37.7-.6.25-.24.49-.52.7-.83.31-.45.57-.97.72-1.58.13-.49.19-1.03.15-1.62,0,0-.04,0-.1.03-.13.04-.38.12-.68.25-.21.09-.44.21-.69.35-.23.13-.46.29-.69.48-.24.19-.48.42-.7.68-.27.32-.52.68-.71,1.11-.2.44-.35.94-.41,1.52-.09-.84-.23-1.67-.42-2.49-.17-.71-.37-1.41-.61-2.09-.19-.53-.4-1.05-.63-1.56-.2-.44-.41-.86-.64-1.28-.2-.38-.42-.74-.64-1.11-.21-.33-.42-.66-.65-.97-.21-.3-.43-.59-.65-.87-.21-.27-.43-.53-.65-.79-.21-.24-.43-.48-.66-.72-.21-.22-.43-.44-.66-.66-.21-.21-.43-.41-.66-.6-.22-.19-.44-.38-.66-.56-.12-.1-.24-.2-.37-.29.12.1.25.2.37.31.22.19.44.39.66.59.22.21.44.42.66.64.22.23.44.46.66.7.22.25.44.51.65.77.23.28.44.56.65.85.23.31.44.63.65.95.23.35.44.71.65,1.08.23.41.44.82.64,1.25.23.49.44.99.63,1.5.24.64.44,1.3.62,1.97.12.47.23.94.31,1.41,0,0,0,0,0,0-.15-.32-.36-.71-.65-1.11-.19-.26-.4-.53-.66-.78-.2-.2-.42-.39-.66-.57-.21-.15-.43-.29-.67-.41-.21-.11-.43-.2-.67-.28-.21-.07-.44-.13-.67-.18-.22-.04-.44-.07-.68-.09-.07,0-.13,0-.2-.01,0,0,.04.26.18.65.12.36.33.82.64,1.3.18.27.4.54.66.8.2.19.42.38.66.55.2.14.43.27.67.39.21.1.43.19.67.26.21.07.44.12.67.16.21.04.44.07.68.08.05,0,.1,0,.15,0,.06.41.11.82.14,1.23.05.66.08,1.33.07,2.01,0,.61-.04,1.22-.1,1.81-.04-.5-.16-1.3-.5-2.14-.16-.4-.37-.81-.64-1.2-.19-.27-.4-.53-.66-.78-.2-.19-.42-.38-.66-.55-.21-.14-.43-.28-.67-.4-.21-.11-.43-.21-.67-.29-.04-.01-.08-.03-.12-.04,0,0-.1.71.07,1.66.1.54.28,1.16.63,1.77.17.31.39.61.65.9.19.21.41.42.66.61.2.16.42.3.67.44.21.12.43.23.67.33.16.07.34.13.51.2-.02.14-.03.27-.05.41-.17,1.18-.43,2.31-.78,3.38-.08.25-.17.49-.26.73.04-.53.03-1.16-.08-1.83-.1-.61-.3-1.25-.62-1.88-.18-.33-.39-.67-.65-.98-.19-.24-.41-.47-.66-.69-.2-.18-.42-.36-.66-.52-.03-.02-.07-.05-.11-.07,0,0-.98,2.25-.03,4.61.16.39.37.78.64,1.17.19.26.4.52.66.77.2.2.42.39.66.58.09.07.19.14.29.21-.2.43-.41.85-.64,1.26-.22.4-.46.8-.71,1.18-.23.34-.46.68-.71,1-.23.3-.46.59-.7.88-.23.26-.46.52-.7.77-.23.24-.46.47-.7.69-.23.21-.46.42-.7.62-.23.19-.46.38-.69.56-.23.18-.46.35-.69.51-.23.16-.46.31-.69.46-.13.08-.25.16-.38.24.07-.09.37-.48.7-1.08.69-1.25,1.51-3.44.73-5.83-.13-.4-.31-.8-.53-1.21-.12-.21-.25-.42-.4-.63,0,0-.09.09-.24.26-.21.25-.53.67-.84,1.23-.64,1.16-1.21,2.9-.62,4.94.12.42.29.84.52,1.28.16.3.35.61.57.93.03.04.06.08.09.12-.1.06-.19.11-.29.17-.23.13-.46.26-.69.38-.23.12-.46.24-.69.35-.23.11-.46.21-.69.31-.23.1-.46.19-.69.28-.23.09-.45.17-.68.25-.23.08-.45.15-.68.22-.23.07-.45.13-.68.19-.23.06-.45.11-.68.17-.23.05-.45.1-.68.14-.23.04-.45.08-.68.11-.23.03-.45.07-.68.09-.23.03-.45.05-.68.07-.23.02-.45.03-.68.05-.04,0-.08,0-.12,0-.02,0-.82.02-.82.02h-.02c-.13,0-.26,0-.39,0-.06,0-.12,0-.18,0v.27s.11,0,.17,0c.23,0,.45,0,.68,0,.23,0,.45,0,.68-.01.06,0,.11,0,.17,0,.04,0,.07,0,.11.01.07,0,.14.02.21.03.07,0,.14.02.21.03.07.01.14.02.21.03.07.01.14.02.21.04.07.01.14.03.21.04.07.02.14.03.21.05.07.02.14.03.21.05.07.02.14.04.21.06.07.02.14.04.22.06.07.02.15.05.22.07.07.02.15.05.22.08.07.03.15.06.22.08.07.03.15.06.22.09.07.03.15.07.22.1.08.04.15.07.23.11.08.04.15.08.23.12.08.04.15.09.23.13.08.05.16.1.23.15.08.06.16.11.24.17.08.06.16.13.24.19.09.07.17.15.25.23.09.09.18.19.26.28.1.12.19.24.27.37.13.21.25.43.33.66.05.15.1.31.13.47.03.16.04.32.05.48,0,.07,0,.13,0,.2-.06,0-.11.02-.17.03-.07.02-.13.03-.19.05-.07.02-.13.05-.19.07-.07.03-.13.07-.19.1-.07.04-.13.09-.18.14-.07.06-.12.13-.17.19-.08.11-.12.22-.15.3-.03.09-.03.15-.03.15h0s.04,0,.06,0c.07,0,.14-.02.2-.04.07-.02.13-.04.2-.06.07-.02.13-.05.19-.08.07-.03.13-.07.18-.11.07-.05.13-.09.18-.14.07-.06.12-.13.17-.19.03-.03.05-.07.07-.1-.01.08-.02.15-.04.23-.03.15-.07.29-.12.44-.04.12-.09.23-.14.35-.05.1-.1.19-.15.28-.01.02-.03.04-.04.06-.03-.02-.04-.03-.04-.03h0c-.04.06-.07.11-.1.17-.03.06-.05.11-.06.17-.03.04-.06.07-.08.11-.05.07-.11.14-.17.2-.02.02-.03.04-.05.05-.05,0-.11-.01-.16-.01-.07,0-.14,0-.2,0-.07,0-.14.01-.2.03-.07.01-.14.03-.19.05-.07.02-.13.05-.19.08-.07.03-.13.07-.18.11-.07.05-.13.1-.18.15-.09.09-.13.16-.14.17h0s0,0,0,0c.06,0,.11.01.17.01.07,0,.14,0,.2,0,.07,0,.14-.01.2-.03.07-.01.13-.03.2-.05.07-.02.13-.05.19-.07.03-.01.05-.02.08-.04-.02.02-.04.04-.06.05-.06.05-.12.1-.18.14-.03.03-.07.05-.1.08.03-.02.07-.05.1-.07.06-.05.12-.09.18-.14.04-.03.07-.06.11-.09.02-.01.04-.02.06-.03.07-.04.13-.09.18-.13.08-.07.14-.13.17-.16.02-.02.03-.04.03-.04-.01,0-.03,0-.04,0h-.01s.01-.02.02-.02c.06-.06.11-.13.17-.19.02-.03.04-.05.06-.08-.02.24.09.44.22.57.09.1.19.17.24.2.02.02.04.02.04.02.06-.09.1-.17.12-.26.06-.23,0-.44-.11-.6-.08-.13-.19-.23-.26-.29h0s0-.01,0-.02c.06-.09.11-.17.16-.26.05-.1.1-.2.15-.3.05-.1.09-.21.12-.32-.08.3.01.55.15.74.08.11.17.19.25.26.1.08.18.12.18.12h0Z"/>
      <path class="cls-9" d="m45.88,56.84c.07-.04.13-.09.18-.13.07-.07.13-.14.16-.22.12-.23.09-.44.09-.44-.06.02-.11.04-.16.06-.07.03-.13.06-.19.1-.07.05-.13.1-.18.15-.08.09-.13.19-.15.28-.05.17,0,.31,0,.31.02,0,.04-.02.06-.02.07-.03.13-.05.19-.09"/>
      <path class="cls-9" d="m46.15,50.86h0c-.06.03-.11.07-.16.11-.07.05-.13.1-.18.14-.07.06-.12.12-.17.19-.07.09-.12.18-.15.27-.21.54.15,1.01.15,1.01.01,0,.02-.01.03-.02.07-.04.13-.09.18-.13.07-.05.12-.11.17-.17.07-.08.12-.15.16-.23.08-.15.11-.29.13-.43.02-.29-.07-.54-.12-.66-.02-.05-.04-.08-.04-.08"/>
      <path class="cls-9" d="m46.09,52.7c-.08.14-.12.28-.13.4-.02.21.03.37.03.37.01,0,.02,0,.03-.01.07-.03.13-.05.19-.08.07-.03.13-.07.19-.11.07-.04.13-.09.18-.14.07-.06.12-.12.17-.19.07-.09.12-.19.15-.28.12-.32.07-.6.07-.6-.06.02-.11.04-.17.06-.07.03-.13.06-.19.09-.07.04-.13.08-.18.11-.07.05-.13.1-.18.15-.07.07-.12.14-.17.22"/>
      <path class="cls-9" d="m45.6,55.31c.07,0,.14-.02.2-.03.07-.01.13-.03.2-.05.07-.02.13-.05.19-.07.07-.03.13-.06.19-.1.07-.04.13-.08.18-.13.07-.05.13-.11.17-.16.07-.08.13-.16.16-.21.04-.07.06-.11.06-.11-.03,0-.06,0-.08,0-.07,0-.14,0-.2.01-.07,0-.14.02-.2.03-.07.01-.13.03-.2.05-.07.02-.13.05-.19.08-.07.03-.13.07-.19.1-.07.05-.13.09-.18.14-.07.07-.13.13-.17.2-.1.14-.13.25-.13.25.06,0,.12,0,.18-.01"/>
      <path class="cls-9" d="m44.23,56.77c-.07.05-.13.1-.18.14-.11.11-.17.2-.17.2.07,0,.14.01.21.02.07,0,.14,0,.2,0,.07,0,.14-.02.2-.03.07-.01.13-.03.19-.05.07-.02.13-.05.19-.08.07-.03.13-.07.19-.1.07-.05.13-.09.18-.13.11-.09.16-.16.17-.17,0,0,0,0,0,0h0c-.07-.01-.14-.02-.21-.02-.07,0-.14,0-.2,0-.07,0-.14.01-.2.02-.07.01-.14.03-.2.05-.07.02-.13.05-.19.07-.07.03-.13.07-.19.1"/>
      <path class="cls-9" d="m30.48,48.93v-.27c-.07,0-.13,0-.19,0-.13,0-.26,0-.39,0h-.02s-.8-.02-.82-.02c-.04,0-.08,0-.12,0-.23-.01-.45-.03-.68-.05-.23-.02-.45-.04-.68-.07-.23-.03-.45-.06-.68-.09-.23-.04-.45-.07-.68-.12-.23-.04-.46-.09-.68-.14-.23-.05-.46-.11-.68-.17-.23-.06-.46-.13-.68-.19-.23-.07-.46-.14-.68-.22-.23-.08-.46-.16-.68-.25-.23-.09-.46-.18-.69-.28-.23-.1-.46-.2-.69-.31-.23-.11-.46-.23-.69-.35-.23-.12-.46-.25-.69-.38-.1-.06-.19-.11-.29-.17.03-.04.06-.08.09-.12.22-.31.41-.62.57-.93.23-.44.4-.87.52-1.28.6-2.04.02-3.78-.62-4.94-.31-.56-.63-.98-.84-1.23-.14-.17-.24-.26-.24-.26-.15.21-.28.42-.4.63-.23.41-.4.81-.53,1.21-.78,2.39.04,4.58.73,5.83.33.6.62.98.7,1.08-.13-.08-.25-.16-.38-.24-.23-.15-.46-.3-.69-.46-.23-.16-.47-.34-.69-.51-.24-.18-.47-.37-.69-.56-.24-.2-.47-.41-.7-.62-.24-.22-.47-.45-.7-.69-.24-.25-.47-.51-.7-.77-.24-.28-.48-.58-.7-.88-.25-.32-.48-.66-.71-1-.25-.38-.49-.78-.71-1.18-.23-.41-.44-.83-.64-1.26.1-.07.2-.14.29-.21.24-.19.46-.38.66-.58.25-.25.47-.51.66-.77.28-.39.49-.78.64-1.17.95-2.35-.03-4.6-.03-4.61-.04.02-.07.05-.11.07-.24.17-.46.34-.66.52-.25.22-.47.45-.66.69-.26.32-.47.65-.65.98-.33.63-.52,1.27-.62,1.88-.11.67-.12,1.3-.08,1.83-.09-.24-.17-.49-.25-.73-.35-1.07-.61-2.2-.78-3.38-.02-.13-.04-.27-.05-.41.18-.06.35-.13.51-.2.24-.1.46-.21.67-.33.24-.14.47-.29.67-.44.25-.19.47-.4.66-.61.26-.29.48-.6.65-.9.34-.61.53-1.23.63-1.77.17-.95.07-1.66.07-1.66-.04.01-.08.03-.12.04-.24.09-.46.19-.67.29-.24.12-.46.26-.67.4-.24.17-.46.36-.66.55-.25.25-.47.51-.66.78-.27.39-.48.8-.64,1.2-.34.84-.46,1.64-.5,2.14-.06-.59-.09-1.19-.1-1.81-.01-.68.01-1.34.07-2.01.03-.41.08-.83.14-1.23.05,0,.1,0,.15,0,.24-.02.46-.04.68-.08.24-.04.46-.1.67-.16.24-.07.46-.16.67-.26.24-.12.46-.25.67-.39.25-.17.47-.36.66-.55.26-.26.48-.53.66-.8.32-.48.52-.94.64-1.3.14-.39.18-.65.18-.65h0c-.07,0-.13,0-.2.01-.24.02-.46.05-.68.09-.24.05-.46.11-.67.18-.24.08-.46.18-.67.28-.24.12-.46.26-.67.41-.24.18-.46.37-.66.57-.25.25-.47.52-.66.78-.29.4-.5.79-.65,1.11,0,0,0,0,0,0,.09-.48.19-.95.31-1.41.17-.67.38-1.33.62-1.97.19-.51.4-1.01.63-1.5.2-.42.41-.84.64-1.25.2-.37.42-.73.65-1.08.21-.32.42-.64.65-.95.21-.29.43-.57.65-.85.21-.26.43-.52.65-.77.21-.24.43-.47.66-.7.21-.22.43-.43.66-.64.22-.2.43-.4.66-.59.12-.1.24-.21.37-.31-.12.1-.25.19-.37.29-.22.18-.44.37-.66.56-.22.2-.44.4-.66.6-.22.21-.44.43-.66.66-.22.23-.44.47-.66.72-.22.26-.44.52-.65.79-.22.28-.44.58-.65.87-.23.32-.44.64-.65.97-.23.36-.44.73-.64,1.11-.23.42-.44.85-.64,1.28-.23.51-.44,1.03-.63,1.56-.24.68-.45,1.38-.61,2.09-.19.81-.33,1.64-.42,2.49-.07-.57-.21-1.08-.41-1.52-.19-.43-.44-.79-.71-1.11-.22-.26-.46-.48-.7-.68-.23-.19-.47-.35-.69-.48-.25-.15-.48-.26-.69-.35-.31-.14-.55-.22-.68-.25-.07-.02-.1-.03-.1-.03-.03.59.03,1.13.15,1.62.16.6.41,1.12.72,1.58.21.31.45.59.7.83.23.23.46.42.69.6.24.18.47.33.69.46.27.16.51.28.69.36.1.05.19.08.25.11-.02.39-.03.79-.02,1.19,0,.11,0,.23,0,.34,0,.18.01.35.02.53.09,1.61.37,3.17.82,4.66.21.69.46,1.36.74,2.02.22.51.46,1.01.72,1.5.22.41.46.82.71,1.22.23.35.46.7.71,1.04.23.31.46.61.7.9.23.27.46.54.7.8.23.24.46.48.7.71.23.22.46.43.7.64.23.2.46.39.7.58.23.18.46.36.69.53.23.16.46.32.69.48.23.15.46.29.69.43.23.14.46.27.69.39.23.12.46.24.69.36.23.11.45.22.69.32.23.1.45.2.69.29.23.09.45.18.69.26.23.08.45.16.68.23.23.07.45.14.68.2.23.06.45.12.68.18.23.05.45.1.68.15.23.05.45.09.68.13.23.04.45.07.68.1.2.03.4.05.6.07-.01,0-.03,0-.04,0-.07.01-.14.03-.21.05-.07.02-.14.03-.21.05-.07.02-.14.04-.21.06-.07.02-.14.04-.22.06-.07.02-.15.05-.22.07-.07.02-.15.05-.22.08-.07.03-.15.05-.22.08-.07.03-.15.06-.22.09-.08.03-.15.07-.22.1-.08.04-.15.07-.22.11-.08.04-.15.08-.23.13-.08.05-.16.09-.23.14-.08.05-.16.1-.23.16-.08.06-.16.12-.24.18-.08.07-.16.14-.24.21-.09.08-.17.16-.25.25-.09.1-.18.2-.26.31-.1.13-.2.27-.28.42-.19.32-.32.67-.4,1.04,0,.03-.01.05-.02.08,0,.04-.01.07-.02.11,0,.05-.01.11-.02.16h0c-.06.02-.13.03-.22.06-.07.02-.14.05-.22.08-.07.03-.15.07-.22.11-.08.05-.16.1-.24.17-.11.09-.2.2-.26.33-.05.1-.09.22-.1.35h0s.01,0,.03,0c.04,0,.12-.02.21-.04.06-.01.14-.03.22-.06.07-.02.15-.05.22-.09.08-.04.15-.08.23-.13.09-.06.18-.14.25-.23.04-.04.07-.09.1-.14,0,.16.02.31.05.47.03.15.06.29.11.44-.03-.08-.07-.17-.13-.25,0,0-.01-.02-.02-.03h0s-.1.07-.21.18c-.09.09-.2.22-.27.37-.07.15-.12.31-.09.5.01.12.06.24.14.37.01.02.02.04.03.06,0,0,.08-.04.18-.13.08-.06.17-.15.25-.26.14-.19.24-.44.15-.74.04.11.08.21.12.32.04.1.09.2.15.3.05.09.1.17.16.26,0,0,0,.01,0,.02h0c-.07.06-.18.16-.26.29-.1.16-.17.37-.11.6.02.08.06.17.12.26,0,0,.02,0,.04-.02.05-.03.15-.1.24-.2.13-.14.25-.33.22-.57.02.03.04.05.06.08.05.06.11.13.17.19,0,0,.01.01.02.02h-.01s-.03,0-.04,0c0,0,.01.02.03.04.03.04.09.1.17.16.05.04.11.09.18.13.02.01.04.02.06.03.04.03.07.06.11.09.06.05.12.09.18.14.03.03.07.05.1.07-.03-.03-.07-.05-.1-.08-.06-.05-.12-.1-.18-.14-.02-.02-.04-.03-.06-.05.02.01.05.02.08.04.06.03.12.05.19.07.06.02.13.04.2.05.06.01.13.02.2.03.07,0,.13,0,.2,0,.06,0,.11,0,.17-.01h0s0,0,0,0c0,0-.05-.08-.14-.17-.05-.05-.1-.1-.18-.15-.05-.04-.12-.08-.18-.11-.06-.03-.12-.06-.19-.08-.06-.02-.13-.04-.2-.05-.06-.01-.13-.02-.2-.03-.06,0-.13,0-.2,0-.05,0-.1,0-.16.01-.02-.02-.03-.04-.05-.05-.06-.07-.11-.13-.17-.2-.03-.04-.06-.07-.08-.11-.01-.05-.03-.11-.06-.17-.03-.05-.06-.11-.1-.17h0s-.02.01-.04.03c-.01-.02-.03-.04-.04-.06-.05-.09-.11-.19-.15-.29-.05-.11-.1-.23-.14-.35-.05-.14-.09-.29-.12-.44-.02-.08-.03-.15-.04-.23.02.03.04.06.07.1.05.06.1.13.17.19.05.05.11.1.18.14.06.04.12.07.18.11.06.03.12.06.19.08.06.02.13.04.19.06.06.01.13.03.2.04.02,0,.04,0,.06,0h0s0-.06-.03-.15c-.03-.08-.07-.19-.15-.3-.04-.06-.1-.13-.17-.19-.05-.05-.11-.09-.18-.14-.06-.04-.12-.07-.19-.1-.06-.03-.12-.05-.19-.07-.06-.02-.13-.04-.2-.05-.05-.01-.11-.02-.16-.03,0-.07,0-.13,0-.2,0-.16.02-.32.05-.48.03-.16.07-.32.13-.47.08-.23.19-.45.33-.66.08-.13.17-.25.27-.37.08-.1.17-.19.26-.28.08-.08.16-.15.25-.23.08-.07.16-.13.24-.19.08-.06.15-.12.24-.17.08-.05.15-.1.23-.15.08-.05.15-.09.23-.13.07-.04.15-.08.23-.12.07-.04.15-.07.23-.11.07-.03.15-.07.22-.1.07-.03.15-.06.22-.09.07-.03.15-.06.22-.08.07-.03.14-.05.22-.08.07-.02.14-.05.22-.07.07-.02.14-.04.22-.06.07-.02.14-.04.21-.06.07-.02.14-.04.21-.05.07-.02.14-.03.21-.05.07-.02.14-.03.21-.04.07-.01.14-.03.21-.04.07-.01.14-.02.21-.03.07-.01.14-.02.21-.03.07,0,.14-.02.21-.03.04,0,.07,0,.11-.01.06,0,.11,0,.17,0,.22,0,.45.01.68.01.22,0,.45,0,.68,0,.06,0,.12,0,.18,0"/>
      <path class="cls-9" d="m15.35,41.66c.31.72.61,1.16.61,1.16.04-.04.07-.08.1-.12.25-.29.46-.58.65-.87.27-.41.48-.82.64-1.23.79-1.97.38-3.77-.15-4.98-.25-.58-.53-1.03-.72-1.3-.13-.18-.21-.28-.21-.29h0c-.17.2-.32.39-.46.59-.26.38-.48.77-.64,1.15-1,2.3-.39,4.56.18,5.87"/>
      <path class="cls-9" d="m22.86,39.32c-.17-.14-.28-.22-.28-.22h0c-.11.23-.21.46-.29.69-.16.44-.26.86-.32,1.28-.37,2.49.81,4.5,1.7,5.62.48.61.88.96.89.96h0s.05-.09.07-.14c.16-.34.3-.68.4-1.01.15-.47.25-.92.3-1.35.25-2.11-.62-3.73-1.44-4.77-.4-.5-.78-.86-1.03-1.07"/>
      <path class="cls-9" d="m14.46,42.13c-.27-.26-.55-.49-.83-.68-.26-.18-.53-.34-.79-.47-.25-.13-.51-.23-.76-.32-.25-.09-.49-.15-.74-.21s-.48-.09-.72-.11c-.24-.02-.47-.04-.7-.04-.24,0-.47.01-.69.03-.24.02-.46.05-.67.09-.24.04-.46.09-.66.14-.24.06-.46.13-.65.2-.3.1-.52.2-.64.26-.07.03-.11.05-.11.05.05.06.11.13.16.19.28.31.57.59.87.83.26.21.53.39.81.55.25.15.51.27.77.38.25.1.5.19.75.26.24.07.49.12.73.17s.48.07.71.09c.24.02.47.03.7.03.24,0,.47-.01.69-.03.24-.02.46-.04.68-.08.24-.04.46-.08.67-.12.25-.05.47-.11.66-.16.36-.1.57-.19.57-.19-.26-.32-.52-.61-.79-.86"/>
      <path class="cls-9" d="m14.42,45.27c-.25.02-.48.06-.72.11-.23.05-.46.11-.68.17-.23.07-.44.15-.65.24-.22.09-.43.19-.62.29-.22.11-.42.23-.6.34-.22.13-.41.27-.57.39-.26.19-.44.35-.54.44-.06.05-.09.09-.09.09.07.05.14.09.2.13.35.22.7.4,1.04.54.31.13.61.22.92.29.28.07.56.11.84.14.26.02.53.03.78.03.25,0,.5-.03.74-.06.24-.03.48-.07.7-.13.23-.05.46-.11.67-.18.23-.07.44-.15.65-.23.22-.09.43-.18.63-.28.22-.11.42-.21.61-.32.23-.13.43-.25.59-.36.32-.21.49-.35.49-.35-.33-.23-.65-.43-.97-.59-.33-.17-.66-.3-.98-.41-.3-.1-.59-.17-.88-.22-.28-.05-.55-.07-.81-.08-.26,0-.51,0-.76.02"/>
      <path class="cls-9" d="m21.89,50.39c.21-.09.42-.18.61-.27,0,0-.01.01-.02.02h0s.01,0,.03.01c.04.01.11.03.2.05.06.01.12.02.2.03.06,0,.13.02.2.02.06,0,.13,0,.2.01.07,0,.13,0,.2,0,.07,0,.14,0,.21-.02.07,0,.14-.02.21-.03.07-.01.14-.03.21-.06.07-.02.15-.05.22-.08.08-.03.15-.07.23-.11.08-.05.16-.1.23-.16.07-.06.15-.13.22-.2h0s-.07-.02-.17-.03c-.06,0-.12-.02-.2-.03-.06,0-.13-.01-.2-.02-.06,0-.13,0-.2,0-.07,0-.13,0-.2,0-.07,0-.14,0-.21.02-.07,0-.14.02-.21.03-.06.01-.12.02-.19.04.09-.06.17-.11.25-.16.32-.21.49-.35.49-.35-.33-.23-.65-.43-.98-.59-.33-.17-.66-.3-.98-.41-.3-.1-.59-.17-.88-.22-.28-.05-.55-.07-.81-.08-.26,0-.51,0-.76.02-.25.02-.48.06-.71.11-.23.05-.46.11-.68.17-.23.07-.44.15-.65.23-.22.09-.43.19-.62.29-.22.11-.41.23-.6.34-.22.13-.41.27-.57.39-.26.19-.44.35-.54.44-.06.05-.09.08-.09.08h0c.07.05.14.09.2.14.35.22.7.4,1.04.54.31.12.61.22.92.29.28.07.56.11.84.14.26.02.53.03.78.03.25,0,.5-.03.74-.06.24-.03.48-.07.7-.13.23-.05.46-.11.68-.18.23-.07.44-.15.65-.23"/>
      <path class="cls-9" d="m6.14,37.1c.22.19.46.36.69.51.23.14.46.26.69.37.23.1.46.19.69.26.23.07.46.14.68.18.23.05.46.09.68.12.24.03.46.05.68.06.24.01.47,0,.68,0,.27,0,.5-.03.68-.05.27-.03.43-.06.43-.06h0c-.15-.27-.3-.52-.46-.74-.22-.32-.46-.59-.7-.84-.23-.22-.46-.42-.7-.59-.23-.16-.46-.3-.69-.42-.23-.12-.46-.21-.69-.29-.23-.08-.46-.14-.68-.19-.23-.05-.46-.09-.68-.11-.24-.03-.46-.04-.68-.04-.24,0-.47,0-.68.02-.26.02-.49.05-.68.09-.36.06-.57.13-.57.13.18.32.38.62.6.88.22.27.46.51.7.72"/>
      <path class="cls-9" d="m6.77,32.09c.22.25.46.48.7.69.23.19.46.36.69.52.23.15.47.29.69.41.24.13.48.24.69.32.27.11.51.2.68.25.2.06.32.09.32.09h0c-.03-.77-.17-1.43-.38-2.01-.19-.51-.43-.95-.72-1.34-.22-.29-.45-.55-.7-.78-.23-.21-.46-.39-.69-.54-.23-.16-.46-.29-.69-.4-.24-.12-.47-.22-.69-.3-.26-.1-.49-.17-.68-.22-.36-.1-.6-.13-.6-.13h0c.05.95.31,1.75.67,2.43.21.38.45.72.71,1.02"/>
      <path class="cls-9" d="m10.01,22.63c.33.57.62.9.62.9h0s.05-.08.08-.12c.28-.44.49-.86.64-1.28.49-1.38.28-2.6-.11-3.53-.21-.51-.48-.94-.72-1.25-.3-.41-.55-.63-.55-.64h0c-.05.08-.1.15-.14.23-.33.55-.52,1.1-.63,1.62-.16.82-.1,1.6.07,2.28.18.71.46,1.32.73,1.77"/>
      <path class="cls-9" d="m12.96,18.15c.15.22.26.34.26.34h0c.16-.24.3-.48.41-.71.74-1.55.36-2.88-.11-3.76-.26-.48-.55-.82-.71-.99-.07-.07-.11-.12-.12-.12h0c-.24.37-.41.74-.53,1.11-.32,1.02-.18,1.97.08,2.73.21.61.51,1.1.72,1.41"/>
      <path class="cls-9" d="m16.42,14.14c.27-.18.48-.39.66-.6.33-.39.52-.81.64-1.2.23-.76.17-1.4.17-1.4-.07.02-.14.05-.21.07-.25.09-.47.2-.67.32-.26.16-.48.34-.66.53-.28.29-.49.6-.65.91-.5.98-.5,1.93-.5,1.93.2-.06.38-.12.55-.2.25-.11.47-.23.67-.37"/>
      <path class="cls-9" d="m17.25,19.2c.4-.6.56-1.09.56-1.09-.2-.02-.4-.03-.59-.03-.24,0-.46.02-.68.05-.24.03-.46.08-.67.14-.24.07-.46.15-.67.25-.24.11-.46.23-.67.36-.24.16-.46.33-.66.5-.25.22-.47.45-.66.67-.29.34-.5.66-.65.9-.18.29-.26.49-.26.49.09.01.19.02.28.03.24.02.46.02.68.02.24,0,.46-.03.68-.07.24-.04.46-.09.67-.16.24-.07.46-.17.67-.27.24-.12.46-.25.67-.4.25-.18.47-.37.66-.57.27-.28.48-.56.65-.82"/>
      <path class="cls-9" d="m16.96,14.93c-.25.17-.47.34-.66.51-.31.27-.53.52-.66.67-.08.1-.13.16-.13.16.04.01.09.03.13.04.24.07.46.12.68.16.24.04.46.06.68.06.24,0,.46-.01.68-.04.24-.03.46-.09.67-.15.24-.08.46-.17.67-.28.25-.13.47-.27.67-.42.26-.2.48-.41.66-.61.36-.39.54-.7.54-.7-.19-.06-.38-.1-.56-.14-.23-.04-.46-.06-.68-.07-.23,0-.46,0-.68.04-.24.03-.46.08-.68.14-.24.07-.46.16-.67.26-.24.11-.46.24-.67.37"/>
      <path class="cls-9" d="m18.42,13.15c.24.08.46.13.68.17.24.04.46.07.68.08.24.01.46,0,.68-.02.24-.03.46-.07.67-.13.24-.07.46-.16.67-.26.24-.12.47-.25.67-.4.26-.19.48-.38.66-.57.43-.44.65-.82.65-.82-.23-.07-.46-.12-.68-.15-.23-.04-.46-.05-.68-.05-.23,0-.46.02-.68.05-.24.04-.46.09-.68.16-.24.08-.46.17-.67.28-.24.12-.47.26-.67.4-.26.18-.48.36-.66.53-.38.35-.6.64-.66.71,0,.01-.01.02-.01.02h.01s0,0,0,0Z"/>
      <path class="cls-9" d="m25.77,50.42c-.03-.09-.08-.19-.15-.29-.05-.07-.1-.14-.17-.21,0-.01-.02-.02-.03-.03,0,0-.1.09-.22.24-.21.27-.46.75-.24,1.28.04.09.09.18.15.27.04.05.07.1.12.14h0s.03-.02.07-.06c.06-.05.16-.15.25-.27.19-.25.37-.63.2-1.09"/>
      <path class="cls-9" d="m26.44,51.15s.07.1.12.14c0,0,.03-.02.07-.06.06-.05.16-.15.25-.27.19-.25.37-.63.2-1.08-.03-.09-.08-.19-.15-.29-.05-.07-.1-.14-.17-.21,0-.01-.02-.02-.03-.03,0,0-.1.09-.21.24-.21.27-.46.75-.24,1.28.04.09.09.18.15.27"/>
      <path class="cls-9" d="m27.93,50.99s.03-.02.07-.06c.06-.05.16-.15.25-.27.19-.25.37-.63.2-1.09-.04-.09-.08-.19-.15-.29-.05-.07-.1-.14-.17-.21,0-.01-.02-.02-.03-.03,0,0-.1.09-.22.24-.21.27-.46.75-.24,1.28.04.09.09.18.15.27.04.05.07.1.12.14"/>
      <path class="cls-9" d="m23.92,48.81s.1.06.16.1c.05.03.11.06.17.09.05.03.11.05.18.08.06.02.12.05.19.07.06.02.13.04.2.06.07.02.14.03.21.04.07.01.15.02.22.02.08,0,.16,0,.24,0,.09,0,.18-.01.27-.03.1-.01.2-.04.3-.06.1-.03.2-.06.31-.1,0,0-.05-.04-.14-.09-.04-.03-.1-.06-.16-.09-.05-.03-.11-.06-.17-.09-.06-.03-.11-.05-.18-.08-.06-.02-.12-.05-.19-.07-.06-.02-.13-.04-.19-.06-.07-.02-.13-.03-.2-.05-.07-.01-.14-.02-.22-.03-.08,0-.15-.01-.23-.01-.08,0-.17,0-.25,0-.09,0-.19.02-.28.04-.11.02-.22.05-.33.09-.02,0-.04.01-.06.02h0s0,0,.02.02c.03.02.08.06.15.11"/>
      <path class="cls-9" d="m23.64,50.7c.05-.05.11-.1.16-.15,0,0-.05-.01-.13-.03-.05,0-.12-.02-.2-.03-.06,0-.13-.01-.2-.02-.06,0-.13,0-.2,0-.07,0-.14,0-.21,0-.07,0-.14.01-.21.02-.07.01-.14.02-.21.04-.07.02-.14.04-.22.06-.08.03-.15.06-.22.09-.08.04-.16.09-.23.14-.07.05-.14.11-.2.18,0,0,.06.02.16.04.05.01.12.03.2.04.06,0,.13.02.2.02.06,0,.13,0,.2,0,.07,0,.14,0,.21,0,.07,0,.14-.01.21-.03.07-.01.14-.03.21-.05.07-.02.15-.04.22-.07.08-.03.15-.07.22-.11.08-.05.16-.1.24-.17"/>
      <path class="cls-9" d="m22.88,51.51c-.06.01-.14.03-.21.05-.07.02-.14.04-.22.07-.07.03-.15.06-.22.1-.08.04-.16.08-.23.13-.09.06-.17.13-.24.21-.13.14-.23.31-.28.51,0,0,.07,0,.18-.01.06,0,.13-.02.21-.03.07-.01.14-.03.21-.05.07-.02.14-.04.22-.07.07-.03.15-.06.22-.1.08-.04.16-.09.23-.15.1-.08.18-.17.26-.28.08-.12.14-.26.18-.43h0s-.04,0-.1.01c-.05,0-.13.02-.21.04"/>
      <path class="cls-9" d="m24.18,56.7c.05.05.11.09.18.13.06.03.12.06.19.09.02,0,.04.02.06.02,0,0,.04-.14,0-.31-.02-.09-.07-.19-.15-.28-.05-.05-.1-.1-.18-.15-.05-.04-.12-.07-.19-.1-.05-.02-.1-.04-.16-.06,0,0-.03.21.09.44.04.07.09.15.16.22"/>
      <path class="cls-9" d="m24.21,52.26c.05.06.11.11.17.17.05.04.11.09.18.13,0,0,.02.01.03.02,0,0,.36-.47.15-1.01-.03-.09-.08-.18-.15-.27-.05-.06-.1-.12-.17-.19-.05-.05-.11-.1-.18-.14-.05-.04-.1-.07-.16-.11h0s-.02.03-.04.08c-.06.12-.15.37-.12.66.01.14.05.28.13.43.04.08.09.16.16.23"/>
      <path class="cls-9" d="m23.62,52.22c-.06-.03-.12-.06-.19-.09-.05-.02-.11-.04-.17-.06,0,0-.06.28.07.6.04.09.08.19.15.28.05.06.1.13.17.19.05.05.11.09.18.14.06.04.12.07.19.11.06.03.12.06.19.08.01,0,.02,0,.03.01,0,0,.05-.15.03-.37-.01-.12-.05-.26-.13-.4-.04-.07-.1-.14-.17-.22-.05-.05-.11-.1-.18-.15-.06-.04-.12-.08-.18-.11"/>
      <path class="cls-9" d="m23.96,54.55c-.06-.02-.13-.04-.2-.05-.06-.01-.13-.02-.2-.03-.06,0-.13-.01-.2-.01-.03,0-.06,0-.08,0,0,0,.02.05.06.11.04.06.09.13.16.21.05.05.11.11.17.16.05.04.11.09.18.13.06.03.12.07.19.1.06.03.12.05.19.07.06.02.13.03.2.05.06.01.13.02.2.03.06,0,.11,0,.18.01,0,0-.03-.11-.13-.25-.04-.06-.1-.13-.17-.2-.05-.05-.11-.1-.18-.14-.06-.04-.12-.07-.19-.11-.06-.03-.12-.05-.19-.08"/>
      <path class="cls-9" d="m25.24,56.52c-.07,0-.13,0-.2,0-.07,0-.14.01-.21.02h0s0,0,0,0c0,.01.07.08.17.17.05.04.11.09.18.13.06.04.12.07.18.1.06.03.12.06.19.08.06.02.13.04.19.05.06.01.13.02.2.03.07,0,.13,0,.2,0,.07,0,.14,0,.21-.02,0,0-.05-.09-.17-.2-.05-.05-.11-.09-.18-.14-.05-.04-.12-.07-.19-.1-.06-.03-.12-.05-.19-.07-.06-.02-.13-.03-.2-.05-.06-.01-.13-.02-.2-.02"/>
      <path class="cls-9" d="m53.97,34.04s-.09.1-.21.29c-.19.27-.47.72-.72,1.3-.53,1.21-.94,3.01-.15,4.98.16.4.37.81.64,1.23.19.29.4.58.65.87.03.04.07.08.1.12,0,0,.3-.44.61-1.16.57-1.31,1.18-3.57.18-5.87-.17-.38-.38-.77-.64-1.15-.14-.2-.29-.4-.46-.59h0Z"/>
      <path class="cls-9" d="m47.66,39.1h0s-.11.08-.28.22c-.25.21-.64.57-1.03,1.07-.82,1.03-1.69,2.66-1.44,4.77.05.43.15.88.3,1.35.11.33.24.66.4,1.01.02.05.04.09.07.14h0s.4-.35.89-.96c.89-1.12,2.07-3.14,1.7-5.62-.06-.41-.17-.84-.32-1.28-.08-.23-.18-.46-.29-.69"/>
      <path class="cls-9" d="m62.34,40.56c-.2-.05-.43-.1-.66-.14-.21-.04-.44-.07-.67-.09-.22-.02-.45-.03-.69-.03-.23,0-.46.01-.7.04-.24.02-.47.06-.72.11-.24.05-.49.12-.74.21-.25.09-.51.19-.76.32-.26.13-.53.29-.79.47-.28.2-.56.42-.83.68-.27.25-.53.54-.79.86,0,0,.21.08.57.19.18.05.4.11.66.16.2.04.43.09.67.12.21.03.44.06.68.08.22.02.45.03.69.03.23,0,.46,0,.7-.03.23-.02.47-.05.71-.09.24-.04.48-.1.73-.17.25-.07.5-.16.75-.26.26-.11.52-.23.77-.38.27-.16.54-.34.81-.55.3-.24.59-.51.87-.83.05-.06.11-.13.16-.19,0,0-.04-.02-.11-.05-.12-.06-.34-.15-.64-.26-.19-.07-.41-.13-.65-.2"/>
      <path class="cls-9" d="m59.04,47.99c.35-.14.7-.32,1.04-.54.07-.04.14-.09.2-.13,0,0-.03-.03-.09-.09-.1-.09-.29-.25-.54-.44-.16-.12-.35-.25-.57-.39-.18-.11-.38-.23-.6-.34-.19-.1-.4-.2-.62-.29-.21-.09-.42-.16-.65-.24-.22-.07-.44-.13-.68-.17-.23-.05-.47-.08-.72-.11-.25-.02-.5-.03-.76-.02-.26,0-.53.03-.81.08-.29.05-.58.12-.88.22-.32.1-.65.24-.98.41-.32.16-.65.36-.97.59,0,0,.18.14.49.35.16.11.36.23.59.36.18.1.39.21.61.32.2.09.41.19.63.28.21.08.42.16.65.23.22.07.44.13.68.18.23.05.46.09.7.13.24.03.49.05.74.06.26,0,.52,0,.78-.03.28-.03.56-.07.84-.14.3-.07.61-.17.92-.29"/>
      <path class="cls-9" d="m49.67,50.81c.23.05.46.09.7.13s.49.05.74.06c.26,0,.52,0,.78-.03.28-.03.56-.07.84-.14.3-.07.61-.17.92-.29.35-.14.7-.32,1.04-.54.07-.04.14-.09.2-.13h0s-.03-.03-.09-.09c-.1-.09-.29-.25-.54-.44-.16-.12-.35-.25-.57-.39-.18-.11-.38-.23-.6-.34-.19-.1-.4-.2-.62-.29-.21-.09-.42-.16-.65-.23-.22-.07-.44-.13-.68-.17-.23-.05-.47-.08-.72-.11-.25-.02-.5-.03-.76-.02-.26,0-.53.04-.81.08-.29.05-.58.12-.88.22-.32.1-.65.24-.98.41-.32.16-.65.36-.98.59,0,0,.18.14.49.35.08.05.16.1.25.16-.06-.02-.12-.03-.19-.04-.07-.01-.14-.02-.21-.03-.07,0-.14-.01-.21-.02-.07,0-.14,0-.2,0-.07,0-.14,0-.2,0-.07,0-.14.01-.2.02-.08,0-.14.02-.2.03-.1.02-.17.03-.17.03h0c.07.08.14.14.22.2.08.06.15.11.23.16.07.04.15.08.23.11.07.03.15.06.22.08.07.02.14.04.21.06.07.01.14.03.21.03.07,0,.14.01.21.02.07,0,.14,0,.21,0,.07,0,.14,0,.2-.01.07,0,.14-.01.2-.02.07-.01.14-.02.2-.03.09-.02.16-.04.2-.05.02,0,.03,0,.03,0h0s-.01-.01-.02-.02c.19.09.39.18.61.27.21.08.42.16.65.23.22.07.44.13.68.18"/>
      <path class="cls-9" d="m64.8,36.38c.21-.26.41-.55.6-.88,0,0-.21-.07-.57-.13-.19-.03-.42-.07-.68-.09-.21-.02-.43-.03-.68-.02-.22,0-.44.01-.68.04-.22.02-.45.06-.68.11-.22.05-.45.11-.68.19-.23.08-.46.18-.69.29-.23.12-.46.26-.69.42-.24.17-.47.36-.7.59-.25.24-.48.52-.7.84-.16.23-.31.47-.46.74h0s.16.03.43.07c.18.02.41.04.68.05.21,0,.43,0,.68,0,.22,0,.44-.03.68-.06.22-.03.45-.07.68-.12.22-.05.45-.11.68-.18.23-.07.46-.16.69-.26.23-.11.46-.23.69-.37.24-.15.47-.32.69-.51.24-.21.48-.45.7-.72"/>
      <path class="cls-9" d="m62.87,29.3c-.23.11-.46.25-.69.4-.23.16-.47.34-.69.54-.25.23-.48.48-.7.78-.28.38-.53.83-.72,1.34-.21.58-.35,1.24-.38,2.01h0s.12-.03.32-.09c.17-.06.41-.14.68-.25.21-.09.44-.19.69-.32.22-.12.45-.25.69-.41.23-.15.46-.32.69-.52.24-.2.48-.43.7-.69.26-.3.5-.64.71-1.02.37-.67.62-1.48.67-2.43h0s-.24.03-.6.13c-.19.05-.43.12-.68.22-.22.08-.45.18-.69.3"/>
      <path class="cls-9" d="m59.53,23.41s.05.08.08.12c0,0,.3-.33.63-.9.27-.46.56-1.07.73-1.77.17-.68.23-1.46.07-2.28-.11-.53-.3-1.07-.63-1.62-.05-.08-.09-.15-.14-.23h0s-.25.23-.55.63c-.23.32-.5.74-.72,1.25-.39.93-.6,2.15-.11,3.53.15.41.35.84.64,1.28"/>
      <path class="cls-9" d="m57.02,18.49h0s.11-.12.26-.34c.21-.3.51-.79.72-1.41.26-.76.4-1.72.08-2.73-.11-.36-.28-.73-.53-1.11h0s-.05.05-.12.12c-.16.17-.45.52-.71.99-.48.88-.85,2.21-.11,3.76.11.23.24.47.41.71"/>
      <path class="cls-9" d="m53.16,13.54c.18.21.4.42.66.6.2.14.42.26.67.37.17.07.35.14.55.2,0,0,0-.96-.5-1.93-.16-.31-.37-.63-.65-.91-.19-.19-.41-.37-.66-.53-.2-.12-.42-.23-.67-.32-.07-.02-.14-.05-.21-.07,0,0-.07.63.17,1.4.12.39.32.81.64,1.2"/>
      <path class="cls-9" d="m55.65,21.26c.21.07.44.12.68.16.21.03.44.06.68.07.22,0,.44,0,.68-.02.09,0,.18-.02.28-.03,0,0-.09-.19-.26-.49-.15-.25-.37-.57-.65-.9-.19-.22-.41-.45-.66-.67-.2-.18-.42-.35-.66-.5-.21-.13-.43-.26-.67-.36-.21-.1-.44-.18-.67-.25-.21-.06-.44-.11-.68-.14-.22-.03-.44-.05-.68-.05-.19,0-.39,0-.59.03,0,0,.16.49.56,1.09.17.26.39.54.65.82.19.2.41.39.66.57.2.15.42.28.67.4.21.1.43.19.67.27"/>
      <path class="cls-9" d="m53.94,15.43c-.19-.17-.41-.34-.66-.51-.2-.13-.43-.26-.67-.37-.21-.1-.43-.19-.67-.26-.21-.06-.44-.11-.68-.14-.22-.03-.44-.04-.68-.04-.22,0-.45.03-.68.07-.18.03-.37.08-.56.14,0,0,.18.31.53.7.18.19.4.4.66.61.2.15.42.3.66.42.21.11.43.2.67.28.21.07.44.12.67.15.21.03.44.05.68.04.22,0,.44-.02.68-.06.22-.04.45-.09.68-.16.04-.01.09-.03.13-.04,0,0-.04-.06-.13-.16-.13-.15-.35-.4-.66-.67"/>
      <path class="cls-9" d="m47.77,12.59c.2.14.42.28.67.4.21.1.43.19.67.26.21.06.44.11.67.13.22.02.44.03.68.02.22,0,.44-.04.68-.08.22-.04.45-.1.68-.17h0s.01,0,.01,0c0,0,0,0-.01-.02-.05-.07-.28-.37-.66-.71-.19-.17-.41-.35-.66-.53-.2-.14-.42-.28-.67-.4-.21-.1-.43-.2-.67-.28-.21-.07-.44-.12-.68-.16-.22-.03-.44-.05-.68-.05-.22,0-.45.02-.68.05-.22.03-.45.08-.68.15,0,0,.22.38.65.82.18.19.4.38.66.57"/>
      <path class="cls-10" d="m30.51,7s1.01.45,1.63.31c0,0,.39-.25.72-.61,0,0-.15.49-.44.84-.07.08-.14.15-.22.21,0,0,.54.12.94,0,0,0,.25-.27.37-.57.03-.06.05-.12.06-.18,0,0,0,.07-.01.17-.03.21-.1.55-.28.7,0,0,.29.11.58-.06,0,0,.33-.15.39-.44,0,0,.05.13.07.36,0,.08.01.18,0,.28-.01.43-.13,1.05-.6,1.8,0,0,.31-.05.51-.27,0,0-.17.47-.2,1.08,0,0,.49-.37.74-.72,0,0-.07.98.33,1.96.41-.98.33-1.96.33-1.96.25.36.74.72.74.72-.02-.61-.2-1.08-.2-1.08.21.22.52.27.52.27-.47-.75-.59-1.38-.6-1.81,0-.11,0-.2.01-.28.02-.23.07-.35.07-.35.06.29.39.44.39.44.28.17.58.06.58.06-.19-.15-.26-.51-.28-.72-.01-.09-.01-.15-.01-.15.01.05.03.11.05.16.12.3.38.58.38.58.4.12.94,0,.94,0-.09-.06-.17-.15-.25-.24-.27-.35-.42-.81-.42-.81.33.37.72.61.72.61.63.15,1.63-.31,1.63-.31-.45-.2-.81-.5-1.06-.76-.26-.27-.4-.49-.4-.49.79.55,1.88.75,1.88.75.72-.07,1.64-1.07,1.64-1.07-1.94-.11-2.62-.55-2.62-.55.8.26,2.58.1,2.58.1.7-.37,1.1-1.35,1.1-1.35-1.41.31-3.14.11-3.14.11,1.13-.02,2.98-.64,2.98-.64.65-.5.88-1.94.88-1.94-2.06,1.51-5.79,2.11-5.79,2.11-.22,1.06-.93,1.56-1.57,1.8-.38-.52-.43-1.44-.43-1.44.25-.11.5.06.5.06.09-.66-.59-.65-.59-.65-.28-.18-.62-.13-.86.01-.2.12-.63,1.55-.77,2.03-.64-.24-1.37-.74-1.6-1.82,0,0-3.73-.6-5.79-2.11,0,0,.23,1.43.88,1.94,0,0,1.85.61,2.98.64,0,0-1.73.2-3.14-.11,0,0,.4.98,1.1,1.35,0,0,1.78.16,2.58-.1,0,0-.69.44-2.62.55,0,0,.92.99,1.64,1.07,0,0,1.09-.2,1.88-.75,0,0-.14.22-.4.49-.25.26-.61.56-1.06.76"/>
      <path class="cls-4" d="m18.79,21.49c0,17.7,15.64,25.84,16.31,26.2h0s0,0,.01,0c0,0,.01,0,.01,0h0c.67-.36,16.31-8.51,16.31-26.21,0,0-9.12-1.52-6.21-11.63l-6.02-1.9.06.04-1.12.26s-.18.04-.4.06l6.81,2.2-.03.1c-.86,3-.67,5.54.55,7.54,1.84,3.01,5.43,3.77,5.47,3.78l.08.02v.08c0,3.83-.76,7.48-2.26,10.86-1.21,2.73-2.91,5.29-5.05,7.62-3.44,3.73-7.04,5.79-8.08,6.34v.14l-.11-.07-.12.09v-.15c-1.05-.55-4.64-2.6-8.08-6.33-2.14-2.33-3.84-4.89-5.06-7.62-1.5-3.38-2.26-7.03-2.26-10.86v-.09l.09-.02s3.43-.65,5.28-3.53c1.28-1.99,1.53-4.57.75-7.65l-.02-.09,6.89-2.33c-.27-.01-.48-.06-.5-.06l-1.1-.25-6.01,1.95c2.92,10.11-6.18,11.53-6.18,11.53"/>
      <path class="cls-4" d="m25.19,18.55c-1.7,2.64-4.7,3.47-5.32,3.61.02,3.74.77,7.31,2.24,10.62,1.2,2.7,2.89,5.24,5.01,7.55,3.4,3.69,6.94,5.71,8,6.27,1.05-.56,4.61-2.59,8-6.28,2.12-2.3,3.8-4.84,5.01-7.55,1.47-3.3,2.22-6.87,2.24-10.61-.64-.16-3.82-1.08-5.51-3.87-1.24-2.03-1.45-4.59-.62-7.6l-7.15-2.31c-.07.02-.19.05-.34.05-.09,0-.18,0-.27-.03.06.31.2.7.48,1.14l.6.96-.86-.14c0,.08.01.15.02.24l.04,1.09-.86-.64c-.06.31-.15.66-.29,1.01l-.48,1.16-.48-1.16c-.14-.35-.23-.7-.29-1.01l-.86.64.04-1.09c0-.08,0-.16.02-.24l-.86.14.6-.96c.28-.45.41-.83.48-1.14-.09.02-.18.03-.27.03-.12,0-.22-.02-.29-.03l-7.2,2.44c.75,3.1.48,5.69-.83,7.72"/>
      <path class="cls-9" d="m41.87,26.99l.27-2.16.25,2.16h-.52Zm.58-2.76c-.02-.09-.05-.21-.09-.35-.04-.15-.11-.26-.2-.33l-.03-.02-.03.02c-.09.07-.16.18-.2.33-.04.14-.06.26-.09.36l-.38,3.12h1.39l-.38-3.12Z"/>
      <path class="cls-9" d="m26.54,21.76h1.34l.51.55v-.55s1.48,0,1.48,0v2.99h-1.5v-1.23h-1.33c-.09.09-.16.17-.21.26-.06.09-.09.23-.09.42v.95c0,.12.02.23.07.31.05.09.14.18.3.28l2.24,1.38c.19.11.33.27.42.47.09.21.14.41.14.58l.02,2.17c-.04.2-.11.38-.2.55-.09.17-.2.31-.32.43-.13.12-.26.22-.41.29-.15.07-.3.1-.44.1h-2.17c-.34-.1-.61-.25-.81-.46-.2-.2-.34-.49-.4-.83v-1.7h1.44v.8c0,.19.04.32.13.4.08.06.16.12.24.16h.01s.95,0,.95,0h.01c.09-.05.17-.1.24-.17.09-.07.13-.2.13-.4v-.85c0-.18-.02-.31-.05-.39-.04-.08-.13-.17-.28-.27l-2.25-1.4c-.16-.11-.3-.28-.42-.5-.12-.22-.19-.48-.19-.77v-2.17c.04-.19.11-.37.2-.55.1-.18.21-.33.34-.45.13-.13.27-.23.42-.3.15-.07.3-.11.44-.11m-1.54.67c-.12.21-.2.44-.25.69v2.22c0,.36.08.68.24.97.16.28.34.49.55.62l2.25,1.38c.11.07.14.12.15.14.01.03.03.09.03.22v.85c0,.07-.01.11-.03.12-.02.02-.04.04-.06.06h-.8s-.03-.03-.04-.05c0-.01-.02-.05-.02-.13v-1.19h-2.22v2.14c.09.43.26.78.51,1.04.25.25.6.45,1.02.57h2.24c.19,0,.39-.04.57-.13.19-.08.36-.2.52-.35.16-.15.3-.33.41-.53.12-.21.2-.43.25-.67v-2.23c0-.23-.05-.48-.16-.73-.11-.26-.3-.47-.58-.65l-2.25-1.38c-.13-.09-.2-.18-.2-.27v-.95c0-.07.01-.14.03-.19.02-.04.04-.08.05-.1h.79v1.23h2.26v-3.75h-3.73c-.19,0-.39.05-.58.14-.19.09-.37.21-.53.37-.16.15-.31.34-.43.55"/>
      <path class="cls-9" d="m35.34,23.52v-1.76h2.51v1.76h-.59v8.19h-1.68l-1.97-7.64v5.88h.57v1.76h-2.58v-1.76h.59v-6.42h-.59v-1.76h2.6l1.72,6.71v-4.95h-.57Zm-1.37,3.53l1.32,5.04h2.34v-8.19h.59v-2.53h-3.27v1.85l-.48-1.85h-3.26v2.53h.59v5.66h-.59v2.53h3.35v-2.53h-.59v-2.51Z"/>
      <path class="cls-9" d="m40.6,23.52h-.58v-1.76h4.23v1.76h-.58l.9,6.42h.54v1.76h-2.51v-1.76h.5l-.17-1.5h-1.58l-.17,1.5h.5v1.76h-2.49v-1.76h.52l.88-6.42Zm-1.79,8.57h3.26v-2.53h-.43l.08-.74h.84l.08.74h-.41v2.53h3.26v-2.53h-.58l-.79-5.66h.52v-2.53h-5v2.53h.52l-.76,5.66h-.58v2.53Z"/>
      <path class="cls-10" d="m27.31,29.41v-1.06l.33.2s.05.06.05.12v.73h-.37Zm.42-5.22v1.13l-.3-.19v-.95h.3Zm-1.18-2.82h3.73v3.75h-2.26v-1.23h-.79s-.03.06-.05.1c-.02.05-.03.11-.03.19v.95c0,.09.07.18.2.27l2.25,1.38c.28.17.47.39.58.65.11.25.16.5.16.73v2.23c-.05.24-.14.47-.26.67-.12.21-.26.39-.41.53-.16.15-.33.27-.52.35-.19.09-.38.13-.57.13h-2.24c-.42-.13-.76-.32-1.02-.57s-.43-.6-.51-1.04v-2.14s2.21,0,2.21,0v1.19c0,.08.01.11.02.13.01.02.03.04.04.05h.8s.04-.04.06-.06c.01-.01.03-.05.03-.12v-.85c0-.13-.01-.19-.03-.22-.01-.03-.05-.07-.15-.14l-2.25-1.38c-.2-.13-.39-.34-.55-.62-.16-.28-.24-.61-.24-.97v-2.22c.04-.25.13-.48.25-.69.12-.21.26-.39.43-.55.16-.15.34-.28.53-.37.19-.09.39-.14.58-.14m-1.3.32c-.19.19-.36.4-.5.65-.14.25-.24.51-.29.79v2.21c0,.41.09.78.28,1.11.19.33.4.56.64.71l1.34.89h-2.21v2.41c.09.53.29.94.59,1.25.3.31.7.53,1.2.68h2.27c.23,0,.45-.05.67-.16.22-.1.42-.24.61-.42.19-.18.35-.39.49-.64.14-.25.24-.51.29-.79v-2.27c0-.33-.07-.63-.21-.89-.14-.26-.36-.48-.66-.67l-1.86-1.13h2.69v-4.33h-4.02c-.22,0-.44.05-.67.16-.23.11-.44.26-.63.44"/>
      <path class="cls-10" d="m25.34,22.63c-.09.17-.16.36-.2.55v2.17c0,.29.06.55.19.77.12.22.27.39.42.5l2.25,1.4c.16.1.25.19.28.27.03.08.05.21.05.39v.85c0,.19-.04.32-.13.4-.08.07-.16.12-.24.16h-.01s-.95,0-.95,0h-.01c-.09-.05-.17-.1-.24-.17-.08-.07-.13-.2-.13-.4v-.8h-1.44v1.7c.07.34.21.62.4.83.2.2.47.36.81.46h2.17c.15,0,.3-.04.44-.1.15-.07.29-.17.41-.29.13-.12.23-.26.32-.43.09-.16.16-.35.2-.55l-.02-2.17c0-.18-.05-.38-.14-.58-.09-.21-.23-.37-.42-.47l-2.24-1.38c-.15-.1-.25-.19-.3-.28-.04-.08-.07-.19-.07-.31v-.95c0-.19.03-.32.09-.42.05-.09.12-.17.21-.24h.01s1.32-.01,1.32-.01v1.23h1.5v-2.99h-1.49v.55s-.5-.55-.5-.55h-1.34c-.15,0-.29.04-.44.11-.15.07-.29.18-.42.3-.13.13-.24.28-.34.45"/>
      <path class="cls-10" d="m34.57,32.09h-3.35v-2.53h.59v-5.66h-.59v-2.53h3.26l.48,1.85v-1.85h3.27v2.53h-.59v8.18h-2.34l-1.32-5.04v2.51h.59v2.53Zm.29-.5l.2.79h2.87v-8.18h.59v-3.11h-7.6v3.11h.59v5.08h-.59v3.11h3.93v-.79Z"/>
      <polygon class="cls-10" points="34.19 21.76 31.6 21.76 31.6 23.52 32.19 23.52 32.19 29.95 31.6 29.95 31.6 31.71 34.18 31.71 34.18 29.95 33.61 29.95 33.61 24.07 35.58 31.71 37.26 31.71 37.26 23.52 37.85 23.52 37.85 21.76 35.34 21.76 35.34 23.52 35.92 23.52 35.92 28.47 34.19 21.76"/>
      <path class="cls-10" d="m41.92,29.28l.03-.16h.34l.03.16h-.4Zm-1.77-5.37h-.52v-2.53h5v2.53h-.52l.79,5.66h.58v2.53h-3.26v-2.53h.41l-.08-.74h-.84l-.08.74h.43v2.53h-3.26v-2.53h.58l.76-5.66Zm-1.63,5.37v3.11h7.25v-3.11h-.61l-.73-5.08h.48v-3.11h-5.58v3.11h.48l-.7,5.08h-.61Z"/>
      <path class="cls-10" d="m41.82,24.24c.02-.1.05-.22.09-.36.04-.15.11-.26.2-.33l.03-.02.03.02c.09.07.16.18.2.33.04.14.06.26.09.35l.38,3.12h-1.39l.38-3.12Zm-2.63,7.47h2.49v-1.76h-.5l.17-1.5h1.58l.17,1.5h-.5v1.76h2.51v-1.76h-.54l-.9-6.42h.58v-1.76h-4.23v1.76h.58l-.88,6.42h-.52v1.76Z"/>
      <polygon class="cls-10" points="41.87 26.99 42.39 26.99 42.14 24.83 41.87 26.99"/>
      <polygon class="cls-4" points="27.73 25.33 27.73 24.2 27.43 24.2 27.43 25.14 27.73 25.33"/>
      <path class="cls-4" d="m27.63,28.56l-.33-.2v1.06h.37v-.73c0-.06-.02-.1-.05-.12"/>
      <polygon class="cls-4" points="42.29 29.12 41.95 29.12 41.92 29.28 42.33 29.28 42.29 29.12"/>
      <path class="cls-10" d="m25.21,34.56c0,.34.02.53.05.56.02.02.05.03.1.04.05,0,.12.01.21.01.08,0,.14,0,.18-.01.05-.01.09-.03.12-.06.04-.04.06-.09.07-.16,0-.03.01-.04.03-.04,0,0,.02.01.02.04,0,.02,0,.07-.01.13v.09s-.02.06-.03.07c0,.03-.02.05-.04.06-.02,0-.06.01-.13.01-.08,0-.16,0-.25,0h-.19c-.12-.01-.22-.01-.32-.01h-.06s-.06,0-.08,0h-.18s-.05,0-.05-.02c0-.01.01-.02.04-.02.03,0,.06,0,.09-.01.04,0,.06-.05.07-.14,0-.05,0-.12.01-.23,0-.04,0-.09,0-.15v-1.17c-.01-.08-.05-.13-.12-.15-.02,0-.05,0-.08,0-.03,0-.04,0-.04-.02,0-.01.02-.02.06-.02h.42s.03,0,.04,0h.24s.05,0,.05.02c0,.02-.02.02-.05.02-.04,0-.07,0-.1,0-.06.01-.09.06-.09.15v.16s0,.85,0,.85Z"/>
      <path class="cls-10" d="m26.34,33.72v-.16c-.01-.08-.05-.13-.12-.15-.02,0-.05,0-.1,0-.03,0-.04,0-.04-.02s.02-.02.06-.02h.44s.03,0,.04,0h.21s.06,0,.06.02-.01.02-.04.02c-.02,0-.04,0-.07,0-.06.01-.09.06-.1.15v.16s0,.75,0,.75c0,.18.02.32.05.42.03.09.08.16.15.22.05.04.11.07.17.09.04.01.09.02.15.02.06,0,.13-.01.18-.03.07-.02.13-.06.17-.11.06-.06.11-.16.13-.27,0-.05.01-.11.02-.18,0-.05,0-.11,0-.19v-.87c-.01-.08-.05-.13-.12-.15-.02,0-.05,0-.09,0-.03,0-.04,0-.04-.02s.02-.02.05-.02c.06,0,.12,0,.2,0,.01,0,.03,0,.03,0h.12s.01,0,.01,0h.24s.05,0,.05.02-.02.02-.05.02c-.02,0-.04,0-.08,0-.06.01-.09.06-.1.15v.16s0,.67,0,.67c0,.08,0,.15,0,.22,0,.08-.02.15-.03.21-.04.15-.11.27-.2.35-.09.07-.18.12-.27.15-.08.02-.17.03-.26.03h-.12c-.05,0-.1-.02-.15-.03-.12-.03-.23-.08-.31-.15-.07-.07-.13-.15-.17-.25-.04-.12-.06-.26-.06-.44v-.77Z"/>
      <path class="cls-10" d="m29.3,34.23s.05.09.11.18l.27.44c.03.05.06.1.08.13.05.09.09.14.1.16.04.06.09.09.15.11.03.01.07.02.1.02.02,0,.03,0,.03.02,0,.02-.02.03-.05.03h-.26s-.09,0-.14,0c-.05,0-.1,0-.15,0-.03,0-.06,0-.07,0-.01,0-.02,0-.02-.02,0-.01.01-.02.04-.03,0,0,.01,0,.02-.02,0-.01,0-.03-.01-.04-.08-.14-.15-.26-.21-.38-.07-.13-.14-.24-.2-.33l-.38.62s-.04.08-.04.11c0,.02.02.04.05.04,0,0,.02,0,.02,0,.02,0,.03,0,.04,0,.02,0,.03,0,.03.02,0,.01-.02.02-.05.02h-.23s-.32,0-.32,0c-.03,0-.04,0-.04-.02,0-.02.01-.02.04-.02.01,0,.03,0,.04,0,.02,0,.04,0,.05-.01.06-.02.13-.08.21-.19l.5-.71-.45-.74c-.06-.1-.13-.17-.21-.19-.04-.01-.07-.02-.11-.02-.02,0-.03,0-.03-.03,0-.01.02-.02.05-.02h.29s.38,0,.38,0c.03,0,.05,0,.05.02,0,.02-.01.02-.04.02h-.02s-.04,0-.05.01c-.02,0-.03.02-.03.04,0,.02,0,.04.03.07.03.05.05.1.09.15.02.04.05.09.08.15l.16.27.29-.45s.05-.08.06-.1c.02-.03.03-.07.03-.1,0-.02-.01-.04-.04-.05-.01,0-.03,0-.04,0h-.04s-.03,0-.03-.02c0-.01.02-.02.05-.02h.31s.02,0,.02,0h.19s.05,0,.05.02c0,.02-.01.02-.04.02-.03,0-.06,0-.09.02-.04,0-.1.08-.19.2l-.42.61Z"/>
      <path class="cls-10" d="m31.15,33.72v-.16c-.01-.08-.05-.13-.12-.15-.02,0-.05,0-.1,0-.03,0-.04,0-.04-.02s.02-.02.06-.02h.37s.54,0,.54,0h.11c.06,0,.09-.01.11-.02,0,0,0,0,.01,0h.03s.02,0,.02.02v.09s-.02.05-.02.07v.14s-.01.03-.01.04c0,0,0,.01,0,.02,0,0,0,.01,0,.01-.02,0-.03-.01-.03-.04,0-.01,0-.03,0-.04,0-.02,0-.04-.01-.05-.01-.03-.03-.05-.04-.06-.03-.02-.07-.03-.13-.03-.01,0-.03,0-.07,0h-.11s-.19,0-.19,0c0,0-.02,0-.02.03v.65s0,.03,0,.03h.22s.09,0,.12,0c.04,0,.07,0,.08,0,.06,0,.11-.02.12-.04.02-.02.03-.03.04-.03,0,0,.02,0,.02.02v.11s-.02.05-.02.08v.17s-.02.05-.02.05c-.03,0-.04,0-.04-.02v-.04s0-.04-.01-.05c-.01-.06-.06-.09-.15-.1-.01,0-.04,0-.07,0-.03,0-.07,0-.11,0h-.19s-.02,0-.02.02v.61c0,.09.02.15.06.18.04.03.12.04.25.04h.12c.05,0,.09-.02.12-.03.06-.03.1-.09.12-.19,0-.03.01-.04.03-.04,0,0,.02.02.02.05,0,.1-.01.2-.03.29-.01.04-.06.07-.14.07s-.17,0-.25,0h-.19c-.11-.01-.2-.01-.27-.01h-.06s-.06,0-.09,0h-.18s-.05,0-.05-.02c0-.01.01-.02.04-.02.03,0,.06,0,.09-.01.04,0,.06-.05.08-.14,0-.05,0-.12.01-.23,0-.04,0-.09,0-.15v-1.02Z"/>
      <path class="cls-10" d="m33.13,33.5h-.39c-.14.02-.22.04-.25.08-.02.03-.04.06-.04.09,0,.02-.01.03-.03.03,0,0-.02-.01-.02-.04,0-.01,0-.03,0-.06,0-.02,0-.06.02-.1.01-.07.02-.12.03-.14,0-.03.02-.05.03-.05,0,0,.01,0,.02,0h.02s.02.02.03.02c.01,0,.03,0,.04,0,.08,0,.17.01.26.01h1.02s.07,0,.11,0c0,0,.03,0,.04,0l.1-.02s.02.02.02.05v.3s-.02.04-.02.04c-.03,0-.04-.02-.04-.05v-.03s-.03-.07-.07-.09c-.05-.03-.13-.05-.24-.05h-.33s0,1.22,0,1.22c0,.06,0,.11,0,.15,0,.1,0,.18.01.23,0,.09.04.13.1.14.05,0,.09.01.13.01.03,0,.04,0,.04.02,0,.02-.02.03-.05.03h-.31s-.02,0-.02,0h-.4s-.05,0-.05-.02c0-.01.01-.02.04-.02.03,0,.06,0,.09-.01.04,0,.07-.06.07-.14,0-.05,0-.12.01-.23,0-.04,0-.09,0-.15v-1.23Z"/>
      <path class="cls-10" d="m36.84,35.14s-.01.08-.03.09c-.08.04-.18.07-.3.09-.1.02-.21.03-.32.03-.34,0-.62-.08-.84-.24-.11-.08-.2-.19-.26-.31-.07-.13-.1-.29-.1-.46,0-.19.05-.37.14-.53.08-.14.18-.24.31-.32.11-.07.23-.11.36-.14.05-.01.11-.02.17-.02.05,0,.1,0,.17,0,.08,0,.17,0,.28.02.08.01.14.02.18.03.03,0,.07.01.1.02.04,0,.08,0,.1,0,.01,0,.02,0,.03.01,0,0,0,.01,0,.02v.06s0,.03,0,.04c0,.04,0,.08,0,.12,0,.06,0,.13,0,.2,0,.04,0,.05-.03.05,0,0-.02-.01-.03-.03v-.05s-.02-.04-.02-.05c-.02-.04-.04-.08-.07-.11-.05-.05-.12-.09-.21-.13-.11-.05-.24-.07-.37-.07-.05,0-.08,0-.11,0-.04,0-.09,0-.13.02-.1.02-.19.07-.27.14-.08.06-.13.14-.17.24-.04.11-.06.24-.06.39,0,.28.08.52.25.7.17.18.39.28.65.28h.05s.04,0,.06,0c.05,0,.08-.01.11-.03.03-.02.05-.05.05-.1v-.42c0-.05,0-.1,0-.13,0-.08-.04-.13-.11-.15-.02,0-.05,0-.1,0-.03,0-.04,0-.04-.02,0-.02.02-.03.05-.03h.44s.04,0,.08,0h.15s.05,0,.05.02c0,.01-.01.02-.03.02-.02,0-.04,0-.07,0-.06.01-.1.06-.1.15,0,.03,0,.08,0,.13v.46Z"/>
      <path class="cls-10" d="m37.89,34.56c0,.34.02.53.05.56.02.02.05.03.1.04.05,0,.12.01.21.01.08,0,.14,0,.18-.01.05-.01.09-.03.12-.06.04-.04.06-.09.07-.16,0-.03.01-.04.03-.04,0,0,.02.01.02.04,0,.02,0,.07-.01.13v.09s-.02.06-.03.07c0,.03-.02.05-.04.06-.02,0-.06.01-.13.01-.08,0-.16,0-.25,0h-.19c-.12-.01-.22-.01-.32-.01h-.06s-.06,0-.08,0h-.18s-.05,0-.05-.02c0-.01.01-.02.04-.02.03,0,.06,0,.09-.01.04,0,.06-.05.07-.14,0-.05,0-.12.01-.23,0-.04,0-.09,0-.15v-1.17c-.01-.08-.05-.13-.12-.15-.02,0-.05,0-.08,0-.03,0-.04,0-.04-.02,0-.01.02-.02.06-.02h.42s.03,0,.04,0h.24s.05,0,.05.02c0,.02-.02.02-.05.02-.04,0-.07,0-.1,0-.06.01-.09.06-.09.15v.16s0,.85,0,.85Z"/>
      <path class="cls-10" d="m40.11,35.2c.07-.02.14-.06.2-.11.07-.06.13-.15.17-.25.04-.12.07-.27.07-.44,0-.28-.07-.51-.22-.69-.14-.17-.32-.25-.54-.25-.08,0-.16.01-.23.04-.08.03-.15.07-.2.13-.07.06-.11.15-.15.25-.04.11-.06.25-.06.4,0,.28.07.5.21.68.15.19.34.28.58.28.06,0,.12,0,.17-.03m-.76.06c-.13-.06-.23-.14-.32-.24-.08-.09-.14-.2-.18-.33-.04-.11-.06-.23-.06-.35s.02-.23.06-.34c.04-.12.11-.23.19-.33.09-.11.2-.19.33-.25.15-.06.31-.1.49-.1.32,0,.58.09.76.26.19.17.28.41.28.71s-.1.56-.29.75c-.2.21-.46.31-.78.31-.18,0-.34-.03-.48-.09"/>
      <path class="cls-10" d="m41.57,34.31s0,.04.02.05c.05.02.12.03.2.03s.14-.01.18-.04c.04-.03.08-.08.11-.14.03-.07.05-.15.05-.25,0-.09-.01-.16-.04-.23-.02-.06-.06-.11-.1-.15-.07-.07-.16-.1-.26-.1-.07,0-.11,0-.14.01-.02,0-.02.02-.02.04v.79Zm-.31-.6v-.16c-.01-.08-.05-.13-.12-.15-.02,0-.05,0-.1,0-.03,0-.04,0-.04-.02s.02-.02.06-.02h.28s.01,0,.02,0h.42c.1,0,.18,0,.25.01.09.02.17.05.23.09.04.03.08.07.12.13.04.07.06.15.06.23,0,.1-.02.2-.07.28-.05.1-.14.2-.27.3l.31.39c.1.12.18.22.25.29.06.06.12.11.18.14.01,0,.02,0,.04.01,0,0,.02,0,.03.01,0,0,.01,0,.01,0h.03s.05.01.07.01c.02,0,.03,0,.03.02,0,.02-.02.03-.05.03h-.25c-.12,0-.22-.02-.28-.05-.05-.03-.11-.07-.17-.14-.04-.05-.11-.13-.19-.24l-.26-.36s-.03-.02-.05-.02h-.23s-.02,0-.02.02v.21c0,.06,0,.11,0,.15,0,.1,0,.18.01.23,0,.09.04.13.1.14.05,0,.09.01.13.01.02,0,.03,0,.03.02,0,.02-.02.03-.05.03h-.31s-.02,0-.02,0h-.37s-.05,0-.05-.02c0-.01.01-.02.04-.02.03,0,.06,0,.09-.01.04,0,.06-.05.08-.14,0-.05,0-.12.01-.23,0-.04,0-.09,0-.15v-1.02Z"/>
      <path class="cls-10" d="m43.22,33.72v-.16c-.01-.09-.04-.13-.09-.15-.03,0-.06-.01-.09-.01-.03,0-.04,0-.04-.03,0-.01.02-.02.06-.02h.4s.02,0,.04,0h.21s.05,0,.05.02c0,.02-.01.03-.04.03-.02,0-.05,0-.08,0-.06.01-.09.06-.1.15v.16s0,1.03,0,1.03c0,.06,0,.11,0,.16,0,.1,0,.18,0,.23,0,.08.04.12.1.13.05,0,.09.01.13.01.03,0,.04,0,.04.02,0,.02-.02.03-.05.03h-.31s-.02,0-.02,0h-.39s-.05,0-.05-.02c0-.01.01-.02.04-.02.03,0,.06,0,.09-.01.04,0,.07-.05.07-.13,0-.05,0-.13.01-.23,0-.04,0-.1,0-.16v-1.03Z"/>
      <path class="cls-10" d="m45.02,34.51s.02,0,.01-.02l-.23-.64s0-.02,0-.02c0,0-.02,0-.02.02l-.24.64s0,.02.01.02h.48Zm-.53.13s-.02,0-.02.02l-.14.37c-.03.06-.04.12-.04.16,0,.05.03.08.1.08h.04s.04,0,.04.02c0,.02-.01.03-.04.03h-.32s0,0,0,0h-.06c-.07,0-.14,0-.19,0-.03,0-.05,0-.05-.03,0-.01.01-.02.03-.02.03,0,.05,0,.08,0,.06,0,.1-.03.14-.07.03-.03.06-.08.08-.16l.65-1.63c.03-.07.05-.1.07-.1.02,0,.04.03.06.08.01.03.05.12.1.25l.38.95c.07.17.12.3.16.39.04.1.09.18.13.22.02.02.04.03.05.04.01,0,.03.01.04.01.03,0,.07.01.11.01.02,0,.03,0,.03.02,0,.02-.04.03-.12.03h-.5s-.04-.01-.04-.01c-.01,0-.02,0-.02-.02,0-.01.01-.02.04-.02.01,0,.02-.01.02-.02,0-.01,0-.02,0-.04l-.21-.55s-.01-.02-.03-.02h-.58Z"/>
      <polygon class="cls-4" points="2.52 62.22 1.98 62.69 .54 62.69 0 62.22 0 61.49 .84 61.49 .84 61.86 1.68 61.86 1.68 60.85 .54 60.85 0 60.37 0 58.64 .54 58.16 1.41 58.16 1.68 58.4 1.68 58.16 2.52 58.16 2.52 59.37 1.68 59.37 1.68 59 .84 59 .84 60.01 1.98 60.01 2.52 60.48 2.52 62.22"/>
      <polygon class="cls-4" points="5.49 62.22 4.94 62.69 3.45 62.69 2.92 62.22 2.92 58.64 3.45 58.16 4.4 58.16 4.65 58.4 4.65 58.16 5.49 58.16 5.49 59.37 4.65 59.37 4.65 59 3.75 59 3.75 61.86 4.65 61.86 4.65 61.49 5.49 61.49 5.49 62.22"/>
      <polygon class="cls-4" points="7.68 62.69 7.68 61.86 7.92 61.86 7.92 60.85 6.97 60.85 6.97 61.86 7.21 61.86 7.21 62.69 5.89 62.69 5.89 61.86 6.13 61.86 6.13 59 5.89 59 5.89 58.16 7.21 58.16 7.21 59 6.97 59 6.97 60.01 7.92 60.01 7.92 59 7.68 59 7.68 58.16 8.99 58.16 8.99 59 8.75 59 8.75 61.86 8.99 61.86 8.99 62.69 7.68 62.69"/>
      <path class="cls-4" d="m11.19,59h-.95v2.86h.95v-2.86Zm.84,3.22l-.54.47h-1.56l-.53-.47v-3.58l.53-.48h1.56l.54.48v3.58Z"/>
      <path class="cls-4" d="m14.22,59h-.95v2.86h.95v-2.86Zm.84,3.22l-.54.47h-1.56l-.53-.47v-3.58l.53-.48h1.56l.54.48v3.58Z"/>
      <polygon class="cls-4" points="15.46 62.69 15.46 61.86 15.7 61.86 15.7 59 15.46 59 15.46 58.16 16.78 58.16 16.78 59 16.54 59 16.54 61.86 17.18 61.86 17.18 61.49 18.01 61.49 18.01 62.69 15.46 62.69"/>
      <polygon class="cls-4" points="20.93 62.22 20.4 62.69 18.96 62.69 18.42 62.22 18.42 61.49 19.25 61.49 19.25 61.86 20.1 61.86 20.1 60.85 18.96 60.85 18.42 60.37 18.42 58.64 18.96 58.16 19.83 58.16 20.1 58.4 20.1 58.16 20.93 58.16 20.93 59.37 20.1 59.37 20.1 59 19.25 59 19.25 60.01 20.4 60.01 20.93 60.48 20.93 62.22"/>
      <path class="cls-4" d="m24.57,59h-.95v2.86h.95v-2.86Zm.84,3.22l-.54.47h-1.56l-.53-.47v-3.58l.53-.48h1.56l.54.48v3.58Z"/>
      <polygon class="cls-4" points="27.61 59 26.89 59 26.89 60.01 28.03 60.01 28.03 60.85 26.89 60.85 26.89 61.86 27.12 61.86 27.12 62.69 25.81 62.69 25.81 61.86 26.05 61.86 26.05 59 25.81 59 25.81 58.16 28.45 58.16 28.45 59.37 27.61 59.37 27.61 59"/>
      <polygon class="cls-4" points="32.29 62.69 31.37 60.32 31.37 61.86 31.61 61.86 31.61 62.69 30.3 62.69 30.3 61.86 30.54 61.86 30.54 59 30.3 59 30.3 58.16 31.44 58.16 32.35 60.54 32.35 59 32.11 59 32.11 58.16 33.42 58.16 33.42 59 33.18 59 33.18 62.69 32.29 62.69"/>
      <path class="cls-4" d="m35.62,59h-.95v2.86h.95v-2.86Zm.84,3.22l-.54.47h-1.56l-.53-.47v-3.58l.53-.48h1.56l.54.48v3.58Z"/>
      <path class="cls-4" d="m37.94,60.01h.87v-1.01h-.87v1.01Zm1.86,2.68h-.9l-.71-1.84h-.25v1.01h.24v.84h-1.32v-.84h.24v-2.86h-.24v-.84h1.08v.24l.27-.24h.9l.53.48v1.66l-.57.53.4,1.02h.33v.84Z"/>
      <polygon class="cls-4" points="42.34 59 42.1 59 42.1 61.86 42.34 61.86 42.34 62.69 41.03 62.69 41.03 61.86 41.27 61.86 41.27 59 41.03 59 41.03 59.37 40.2 59.37 40.2 58.16 43.17 58.16 43.17 59.37 42.34 59.37 42.34 59"/>
      <polygon class="cls-4" points="45.36 62.69 45.36 61.86 45.6 61.86 45.6 60.85 44.65 60.85 44.65 61.86 44.89 61.86 44.89 62.69 43.58 62.69 43.58 61.86 43.82 61.86 43.82 59 43.58 59 43.58 58.16 44.89 58.16 44.89 59 44.65 59 44.65 60.01 45.6 60.01 45.6 59 45.36 59 45.36 58.16 46.68 58.16 46.68 59 46.44 59 46.44 61.86 46.68 61.86 46.68 62.69 45.36 62.69"/>
      <path class="cls-4" d="m49.84,60.65h.46l-.23-1.16-.23,1.16Zm.47,2.04v-.84h.24l-.07-.37h-.8l-.07.37h.24v.84h-1.32v-.84h.22l.74-3.69h1.18l.74,3.69h.23v.84h-1.32Z"/>
      <polygon class="cls-4" points="54.34 62.69 54.34 61.86 54.57 61.86 54.57 60.14 53.84 61.7 53.11 60.14 53.11 61.86 53.34 61.86 53.34 62.69 52.03 62.69 52.03 61.86 52.28 61.86 52.28 59 52.04 59 52.04 58.16 53.11 58.16 53.84 59.72 54.57 58.16 55.65 58.16 55.65 59 55.41 59 55.41 61.86 55.66 61.86 55.66 62.69 54.34 62.69"/>
      <polygon class="cls-4" points="56.06 62.69 56.06 61.86 56.3 61.86 56.3 59 56.06 59 56.06 58.16 58.7 58.16 58.7 59.37 57.87 59.37 57.87 59 57.13 59 57.13 60.01 58.28 60.01 58.28 60.85 57.13 60.85 57.13 61.86 57.87 61.86 57.87 61.49 58.7 61.49 58.7 62.69 56.06 62.69"/>
      <path class="cls-4" d="m60.18,60.01h.87v-1.01h-.87v1.01Zm1.86,2.68h-.9l-.71-1.84h-.25v1.01h.24v.84h-1.32v-.84h.24v-2.86h-.24v-.84h1.08v.24l.27-.24h.9l.53.48v1.66l-.57.53.4,1.02h.33v.84Z"/>
      <polygon class="cls-4" points="62.44 62.69 62.44 61.86 62.68 61.86 62.68 59 62.44 59 62.44 58.16 63.76 58.16 63.76 59 63.52 59 63.52 61.86 63.76 61.86 63.76 62.69 62.44 62.69"/>
      <polygon class="cls-4" points="66.73 62.22 66.19 62.69 64.7 62.69 64.16 62.22 64.16 58.64 64.7 58.16 65.65 58.16 65.9 58.4 65.9 58.16 66.73 58.16 66.73 59.37 65.9 59.37 65.9 59 65 59 65 61.86 65.9 61.86 65.9 61.49 66.73 61.49 66.73 62.22"/>
      <path class="cls-4" d="m68.45,60.65h.46l-.23-1.16-.23,1.16Zm.47,2.04v-.84h.24l-.07-.37h-.8l-.07.37h.24v.84h-1.32v-.84h.22l.74-3.69h1.18l.74,3.69h.23v.84h-1.32Z"/>
      <polygon class="cls-4" points="25.62 54.85 25.62 54.45 25.73 54.45 25.73 53.06 25.62 53.06 25.62 52.65 26.26 52.65 26.26 53.06 26.14 53.06 26.14 54.45 26.26 54.45 26.26 54.85 25.62 54.85"/>
      <polygon class="cls-4" points="27.42 54.85 26.98 53.7 26.98 54.45 27.09 54.45 27.09 54.85 26.45 54.85 26.45 54.45 26.57 54.45 26.57 53.06 26.45 53.06 26.45 52.65 27.01 52.65 27.45 53.81 27.45 53.06 27.33 53.06 27.33 52.65 27.97 52.65 27.97 53.06 27.86 53.06 27.86 54.85 27.42 54.85"/>
      <polygon class="cls-4" points="29.21 53.06 29.1 53.06 29.1 54.45 29.21 54.45 29.21 54.85 28.57 54.85 28.57 54.45 28.69 54.45 28.69 53.06 28.58 53.06 28.58 53.24 28.17 53.24 28.17 52.65 29.62 52.65 29.62 53.24 29.21 53.24 29.21 53.06"/>
      <polygon class="cls-4" points="29.81 54.85 29.81 54.45 29.93 54.45 29.93 53.06 29.81 53.06 29.81 52.65 31.1 52.65 31.1 53.24 30.69 53.24 30.69 53.06 30.34 53.06 30.34 53.55 30.89 53.55 30.89 53.96 30.34 53.96 30.34 54.45 30.69 54.45 30.69 54.27 31.1 54.27 31.1 54.85 29.81 54.85"/>
      <path class="cls-4" d="m31.82,53.55h.42v-.49h-.42v.49Zm.9,1.3h-.44l-.35-.9h-.12v.49h.12v.41h-.64v-.41h.12v-1.39h-.12v-.41h.52v.11l.13-.11h.44l.26.23v.81l-.28.26.19.5h.16v.41Z"/>
      <polygon class="cls-4" points="33.88 54.85 33.44 53.7 33.44 54.45 33.56 54.45 33.56 54.85 32.92 54.85 32.92 54.45 33.03 54.45 33.03 53.06 32.92 53.06 32.92 52.65 33.47 52.65 33.92 53.81 33.92 53.06 33.8 53.06 33.8 52.65 34.44 52.65 34.44 53.06 34.32 53.06 34.32 54.85 33.88 54.85"/>
      <path class="cls-4" d="m35.27,53.86h.23l-.11-.56-.11.56Zm.23.99v-.41h.11l-.03-.18h-.39l-.04.18h.12v.41h-.64v-.41h.11l.36-1.79h.57l.36,1.79h.11v.41h-.64Z"/>
      <polygon class="cls-4" points="37.05 53.06 36.93 53.06 36.93 54.45 37.05 54.45 37.05 54.85 36.41 54.85 36.41 54.45 36.53 54.45 36.53 53.06 36.41 53.06 36.41 53.24 36.01 53.24 36.01 52.65 37.45 52.65 37.45 53.24 37.05 53.24 37.05 53.06"/>
      <polygon class="cls-4" points="37.65 54.85 37.65 54.45 37.77 54.45 37.77 53.06 37.65 53.06 37.65 52.65 38.29 52.65 38.29 53.06 38.17 53.06 38.17 54.45 38.29 54.45 38.29 54.85 37.65 54.85"/>
      <path class="cls-4" d="m39.36,53.06h-.46v1.39h.46v-1.39Zm.41,1.57l-.26.23h-.76l-.26-.23v-1.74l.26-.23h.76l.26.23v1.74Z"/>
      <polygon class="cls-4" points="40.93 54.85 40.48 53.7 40.48 54.45 40.6 54.45 40.6 54.85 39.96 54.85 39.96 54.45 40.08 54.45 40.08 53.06 39.96 53.06 39.96 52.65 40.51 52.65 40.96 53.81 40.96 53.06 40.84 53.06 40.84 52.65 41.48 52.65 41.48 53.06 41.36 53.06 41.36 54.85 40.93 54.85"/>
      <path class="cls-4" d="m42.32,53.86h.23l-.11-.56-.11.56Zm.23.99v-.41h.11l-.03-.18h-.39l-.04.18h.12v.41h-.64v-.41h.11l.36-1.79h.57l.36,1.79h.11v.41h-.64Z"/>
      <polygon class="cls-4" points="43.38 54.85 43.38 54.45 43.5 54.45 43.5 53.06 43.38 53.06 43.38 52.65 44.02 52.65 44.02 53.06 43.9 53.06 43.9 54.45 44.21 54.45 44.21 54.27 44.62 54.27 44.62 54.85 43.38 54.85"/>
      <g>
        <path class="cls-1" d="m144.81,47.26l-.17-.81.17-.29.25.67-.26.43Zm-2.11-1.17l.63-1.06-.99-.59-.7,1.18-.3-.18.92-1.54,2.73,1.63-.88,1.48-.3-.18.67-1.12-.86-.51-.63,1.06-.29-.17Z"/>
        <g class="cls-18">
          <path class="cls-1" d="m139.29,48.38c.03-.16.16-.45.4-.75.55-.71,1.41-.88,2.24-.24.79.62.9,1.56.29,2.34-.24.31-.46.46-.58.51l-.2-.29c.15-.07.33-.21.5-.42.46-.59.39-1.27-.27-1.78-.62-.48-1.28-.43-1.76.17-.16.2-.27.43-.31.61l-.31-.14Z"/>
          <path class="cls-1" d="m137.61,49.9c.61-.59,1.48-.52,2.15.17.7.73.71,1.63.1,2.22-.63.61-1.5.52-2.15-.16-.75-.79-.68-1.67-.1-2.23h0Zm.22.25c-.47.45-.32,1.14.18,1.66.44.46,1.13.7,1.63.23.49-.47.3-1.17-.18-1.66-.46-.48-1.16-.67-1.62-.22h0Z"/>
          <polygon class="cls-1" points="137.58 54.21 137.24 54.45 135.56 52.16 134.47 52.97 134.27 52.69 135.7 51.64 137.58 54.21"/>
          <polygon class="cls-1" points="132.7 55.35 133.77 54.74 133.2 53.75 132 54.43 131.83 54.13 133.39 53.24 134.96 56.01 133.47 56.86 133.3 56.56 134.43 55.91 133.94 55.04 132.87 55.65 132.7 55.35"/>
          <path class="cls-1" d="m130.35,58.23c-.23.12-.5.24-.81.34-.56.18-1,.19-1.35.03-.35-.16-.63-.46-.79-.95-.16-.49-.14-.95.05-1.32.19-.38.61-.68,1.2-.88.28-.09.51-.16.72-.2l.98,2.97Zm-1.28-2.54c-.1.01-.25.06-.4.11-.83.27-1.13.89-.86,1.71.23.72.78,1.03,1.61.76.2-.07.35-.13.44-.19l-.79-2.39Z"/>
          <path class="cls-1" d="m125.92,59.53l-.32-1.86c-.12-.7-.48-.94-.9-.87-.46.08-.71.44-.59,1.13l.32,1.86-.41.07-.31-1.83c-.16-.96.28-1.44.95-1.56.64-.11,1.19.17,1.35,1.15l.32,1.85-.41.07Z"/>
          <path class="cls-1" d="m117.84,58.16c0,.44,0,.98-.03,1.37h0c.13-.36.28-.75.47-1.18l.65-1.51.31.02.43,1.54c.12.46.22.87.29,1.25h0c.03-.39.09-.92.14-1.4l.16-1.35.39.02-.41,3.16-.52-.03-.45-1.57c-.11-.4-.19-.75-.26-1.09h0c-.1.32-.24.66-.4,1.05l-.65,1.5-.52-.03v-3.18s.39.02.39.02v1.4Z"/>
          <path class="cls-1" d="m115.03,56.21c.82.19,1.25.95,1.04,1.89-.22.98-.98,1.49-1.8,1.3-.85-.19-1.25-.97-1.04-1.88.24-1.06,1.02-1.49,1.81-1.31h0Zm-.09.32c-.63-.14-1.13.36-1.29,1.06-.14.62.04,1.33.7,1.48.67.15,1.14-.39,1.29-1.07.15-.65-.07-1.34-.7-1.48h0Z"/>
          <path class="cls-1" d="m112.5,55.59l-1.16,2.96-.42-.17-.35-1.87c-.08-.43-.13-.81-.15-1.17h-.02c-.12.41-.25.77-.43,1.23l-.49,1.24-.36-.14,1.16-2.96.39.15.35,1.87c.08.41.14.83.16,1.2h.02c.13-.38.26-.74.45-1.23l.5-1.26.36.14Z"/>
          <path class="cls-1" d="m107.53,56.86c-.24-.1-.51-.22-.79-.38-.51-.3-.81-.62-.92-.99-.12-.37-.07-.77.18-1.22.26-.45.62-.73,1.02-.84.41-.11.92,0,1.45.31.26.15.46.28.63.41l-1.57,2.7Zm1.05-2.64c-.08-.07-.21-.14-.35-.22-.76-.44-1.42-.26-1.85.49-.39.65-.25,1.27.5,1.71.18.11.33.17.44.21l1.26-2.17Z"/>
          <polygon class="cls-1" points="103.73 52.34 104.7 53.1 105.4 52.19 104.32 51.35 104.53 51.08 105.94 52.18 103.99 54.68 102.63 53.63 102.84 53.36 103.87 54.16 104.49 53.37 103.52 52.61 103.73 52.34"/>
          <path class="cls-1" d="m101.54,49.75c.18.2.17.51-.03.7-.2.19-.51.17-.7-.03-.19-.2-.18-.51.03-.7.2-.19.51-.17.7.03h0Z"/>
          <path class="cls-1" d="m99.02,44.7c.14.08.37.3.59.62.49.75.38,1.62-.5,2.19-.84.55-1.77.35-2.31-.48-.21-.33-.28-.59-.29-.71l.34-.1c.02.17.09.38.24.61.41.62,1.08.78,1.78.32.66-.43.83-1.07.41-1.72-.14-.21-.32-.4-.48-.49l.23-.25Z"/>
          <path class="cls-1" d="m98.14,42.63c.36.76.02,1.57-.85,1.98-.91.43-1.78.15-2.14-.62-.37-.79,0-1.58.85-1.98.99-.46,1.8-.11,2.14.62h0Zm-.31.12c-.28-.59-.97-.67-1.63-.36-.57.27-1.03.85-.74,1.47.29.62,1.01.66,1.63.36.61-.28,1.01-.88.73-1.46h0Z"/>
          <polygon class="cls-1" points="94.07 41.22 93.95 40.82 96.65 39.97 96.24 38.68 96.57 38.57 97.1 40.26 94.07 41.22"/>
          <polygon class="cls-1" points="94.56 36.22 94.79 37.43 95.91 37.21 95.66 35.86 96 35.8 96.33 37.56 93.21 38.15 92.89 36.46 93.22 36.39 93.47 37.68 94.45 37.49 94.23 36.28 94.56 36.22"/>
          <path class="cls-1" d="m95.58,32.26c.08.18.2.54.23.97.03.48-.08.88-.36,1.21-.25.29-.66.48-1.16.51-.95.05-1.67-.57-1.73-1.63-.02-.37.04-.66.1-.8l.34.09c-.07.17-.12.39-.1.71.04.77.55,1.25,1.34,1.21.81-.04,1.25-.55,1.21-1.29-.01-.27-.06-.45-.11-.54l-.95.05.03.64-.33.02-.06-1.05,1.53-.08Z"/>
          <polygon class="cls-1" points="92.62 30.47 95.8 30.64 95.77 31.05 92.6 30.88 92.62 30.47"/>
          <path class="cls-1" d="m96.14,28.12c-.13.83-.87,1.31-1.82,1.16-1-.16-1.55-.88-1.42-1.72.14-.86.88-1.31,1.81-1.16,1.08.17,1.55.92,1.42,1.72h0Zm-.33-.07c.1-.64-.43-1.1-1.14-1.21-.62-.1-1.33.12-1.44.8-.11.68.47,1.11,1.15,1.22.66.1,1.33-.16,1.43-.8h0Z"/>
          <path class="cls-1" d="m94.17,22.88c.06-.25.14-.54.27-.84.22-.55.5-.89.84-1.05.35-.17.75-.18,1.23,0,.48.19.81.51.98.89.16.39.13.9-.1,1.48-.11.28-.21.5-.31.68l-2.9-1.16Zm2.77.66c.06-.09.11-.23.17-.38.33-.81.05-1.44-.75-1.76-.7-.29-1.29-.07-1.62.74-.08.2-.12.35-.14.46l2.33.94Z"/>
          <polygon class="cls-1" points="98.1 18.47 97.49 19.54 98.48 20.11 99.17 18.91 99.46 19.08 98.58 20.64 95.82 19.07 96.67 17.57 96.97 17.74 96.32 18.88 97.19 19.37 97.8 18.3 98.1 18.47"/>
          <polygon class="cls-1" points="97.52 16.27 97.77 15.93 100.05 17.61 100.86 16.52 101.13 16.72 100.08 18.15 97.52 16.27"/>
          <path class="cls-1" d="m103.95,11.9c-.31-.32-.69-.7-.95-.99h0c.16.36.33.74.5,1.17l.61,1.53-.23.21-1.39-.79c-.41-.24-.78-.46-1.09-.68h0c.26.31.59.72.89,1.1l.84,1.07-.29.26-1.95-2.52.39-.35,1.43.79c.36.2.67.4.95.59h0c-.15-.3-.3-.64-.46-1.03l-.6-1.52.39-.35,2.26,2.24-.3.27-.98-.99Z"/>
          <path class="cls-1" d="m104.87,9.02l1.01,1.59c.38.6.81.68,1.17.45.39-.25.49-.68.11-1.27l-1.01-1.59.35-.22,1,1.57c.52.82.3,1.43-.28,1.8-.55.35-1.16.3-1.69-.53l-1-1.58.35-.22Z"/>
          <path class="cls-1" d="m109.36,10.04l-1.29-2.9.41-.18,1.58,1.06c.36.25.67.47.94.71h.01c-.21-.38-.37-.73-.57-1.18l-.54-1.22.35-.16,1.29,2.9-.38.17-1.58-1.06c-.35-.23-.69-.48-.97-.73h-.01c.18.37.34.72.56,1.2l.55,1.24-.35.16Z"/>
          <path class="cls-1" d="m111.95,5.61c.24-.1.51-.21.83-.3.57-.16,1.01-.14,1.34.04.35.17.6.49.74.99.14.5.09.95-.11,1.31-.21.37-.64.65-1.24.81-.29.08-.52.13-.73.16l-.83-3.01Zm1.14,2.61c.11,0,.25-.05.41-.09.85-.23,1.18-.83.95-1.66-.2-.73-.73-1.07-1.57-.84-.2.06-.35.12-.45.17l.66,2.42Z"/>
          <path class="cls-1" d="m117.63,7.65c-.84.1-1.49-.48-1.6-1.44-.12-1,.43-1.73,1.27-1.83.87-.1,1.5.5,1.61,1.43.12,1.08-.47,1.74-1.27,1.83h0Zm-.02-.34c.65-.07.94-.71.86-1.43-.07-.63-.48-1.25-1.15-1.17-.68.08-.94.75-.87,1.43.08.67.51,1.24,1.15,1.16h0Z"/>
          <path class="cls-1" d="m122.19,6.37c-.27-.02-.48-.25-.46-.53.01-.27.25-.48.53-.46.27.02.48.25.46.53-.02.27-.25.48-.53.46h0Z"/>
          <path class="cls-1" d="m125.8,7.99l.04-3.28.42.11-.05,1.65c-.01.41-.03.81-.06,1.12h0c.13-.29.33-.63.54-1l.82-1.44.41.11-.04,1.66c-.01.39-.03.77-.07,1.11h0c.15-.32.33-.64.53-.99l.82-1.44.41.11-1.69,2.84-.42-.11.04-1.7c.01-.42.03-.74.07-1.06h0c-.13.29-.29.57-.51.94l-.87,1.48-.41-.11Z"/>
          <path class="cls-1" d="m130.79,9.75c-.77-.35-1.02-1.19-.62-2.06.42-.92,1.26-1.25,2.03-.9.79.36,1.02,1.2.63,2.06-.46.99-1.3,1.24-2.04.9h0Zm.16-.3c.59.27,1.17-.12,1.48-.77.26-.58.24-1.31-.38-1.6-.62-.29-1.2.15-1.48.78-.28.61-.2,1.32.38,1.59h0Z"/>
          <path class="cls-1" d="m134.82,8.26c.2.08.47.22.7.37.37.24.56.47.63.72.06.2.02.43-.12.64-.23.35-.6.44-.94.35h0c.16.21.16.48.04.8-.15.43-.26.73-.27.86l-.36-.23c0-.1.09-.37.24-.75.16-.42.1-.65-.2-.87l-.32-.21-.75,1.16-.34-.22,1.7-2.63Zm-.44,1.43l.35.23c.37.24.73.19.93-.12.22-.34.07-.66-.29-.89-.17-.11-.29-.17-.36-.19l-.63.97Z"/>
          <polygon class="cls-1" points="137.72 10.22 138.04 10.48 136.23 12.66 137.27 13.53 137.05 13.8 135.69 12.66 137.72 10.22"/>
          <path class="cls-1" d="m140.12,12.38c.2.16.42.36.64.6.4.43.59.83.58,1.21,0,.39-.16.76-.54,1.11-.38.35-.81.52-1.22.5-.42-.02-.87-.27-1.29-.73-.2-.22-.36-.4-.48-.58l2.3-2.12Zm-1.79,2.21c.06.09.16.2.27.32.59.65,1.28.66,1.91.08.56-.51.62-1.14.03-1.78-.14-.16-.27-.26-.36-.33l-1.85,1.7Z"/>
          <path class="cls-1" d="m141.57,18.32c0,.22.06.49.2.73.22.36.53.46.81.29.25-.15.31-.39.22-.84-.11-.54-.04-.96.34-1.19.42-.26.95-.1,1.27.43.17.27.23.52.23.68l-.34.08c0-.12-.03-.34-.18-.59-.23-.37-.53-.38-.72-.26-.25.15-.28.4-.2.86.1.57.02.93-.38,1.17-.42.26-.97.17-1.36-.47-.16-.26-.25-.6-.24-.8l.35-.09Z"/>
          <path class="cls-1" d="m143.62,23.13c-.13-.1-.32-.35-.48-.7-.37-.82-.12-1.66.83-2.09.91-.41,1.8-.07,2.2.83.16.36.19.63.18.75l-.35.04c0-.17-.03-.39-.14-.63-.3-.68-.94-.94-1.7-.6-.72.32-.98.93-.67,1.63.1.23.26.44.4.56l-.27.21Z"/>
          <polygon class="cls-1" points="147.09 23.75 145.81 24.12 146.23 25.59 147.51 25.23 147.62 25.63 144.57 26.5 144.45 26.1 145.89 25.69 145.46 24.21 144.03 24.62 143.92 24.23 146.97 23.35 147.09 23.75"/>
          <path class="cls-1" d="m144.94,29.01c-.11-.84.47-1.5,1.42-1.62,1-.13,1.73.41,1.84,1.25.11.87-.48,1.51-1.41,1.63-1.08.14-1.74-.45-1.85-1.25h0Zm.33-.02c.08.64.72.93,1.44.84.63-.08,1.24-.49,1.15-1.17-.09-.68-.76-.93-1.44-.85-.66.08-1.23.53-1.15,1.17h0Z"/>
          <path class="cls-1" d="m145.13,32.83c.03-.84.69-1.41,1.65-1.38,1.01.03,1.65.67,1.62,1.52-.03.87-.71,1.41-1.65,1.39-1.09-.03-1.65-.71-1.63-1.52h0Zm.33.03c-.02.65.57,1.04,1.29,1.06.63.02,1.3-.29,1.32-.98.02-.68-.61-1.04-1.29-1.06-.67-.02-1.3.33-1.32.98h0Z"/>
          <polygon class="cls-1" points="148.12 35.92 148.05 36.33 145.25 35.89 145.04 37.23 144.7 37.17 144.98 35.42 148.12 35.92"/>
          <path class="cls-1" d="m144.81,40.76c.09-.25.36-.4.63-.31.26.08.4.37.31.63-.09.26-.36.4-.63.31-.26-.09-.4-.37-.31-.63h0Z"/>
          <path class="cls-10" d="m143.48,32.07c0,12.75-10.33,23.08-23.08,23.08s-23.08-10.34-23.08-23.08,10.33-23.08,23.08-23.08,23.08,10.33,23.08,23.08"/>
        </g>
        <g class="cls-17">
          <rect class="cls-2" x="90.21" y="1.48" width="61.03" height="61.18" transform="translate(3.44 75.04) rotate(-35)"/>
        </g>
        <g class="cls-16">
          <path class="cls-1" d="m142.93,12c4.75,5.33,7.64,12.36,7.64,20.07,0,16.66-13.51,30.18-30.18,30.18-1.91,0-3.79-.18-5.6-.52,2.41.63,4.93.97,7.54.97.05,0,.09,0,.14,0,15.98-1.07,28.62-14.37,28.62-30.63,0-5.03-1.21-9.78-3.36-13.97-1.33-2.24-2.95-4.29-4.8-6.09"/>
          <path class="cls-1" d="m90.22,32.07c0-14.95,10.87-27.35,25.14-29.75,2.25-.5,4.58-.77,6.98-.77.56,0,1.12.02,1.67.04-1.18-.14-2.39-.21-3.61-.21-16.95,0-30.7,13.74-30.7,30.7,0,7.07,2.39,13.58,6.41,18.77-1.59-2.35-2.87-4.93-3.78-7.68-1.36-3.43-2.11-7.18-2.11-11.09"/>
          <path class="cls-1" d="m152.16,10.91c0,1.02-.79,1.81-1.81,1.81s-1.81-.79-1.81-1.81.79-1.81,1.81-1.81,1.81.79,1.81,1.81m-3.34,0c0,.87.65,1.55,1.53,1.55s1.53-.69,1.53-1.55-.65-1.55-1.53-1.55-1.53.69-1.53,1.55m1.13,1.05h-.26v-2.1h.8c.47,0,.68.2.68.58s-.24.54-.53.58l.62.93h-.3l-.59-.93h-.43v.93Zm.34-1.15c.32,0,.63,0,.63-.37,0-.29-.24-.36-.5-.36h-.47v.73h.34Z"/>
        </g>
      </g>
    </g>
  </g>
</svg>