<svg width="30" height="30" viewBox="0 0 30 30" fill="none" xmlns="http://www.w3.org/2000/svg">
<path d="M19.2383 25.1686C19.2383 25.9725 18.5864 26.6156 17.7915 26.6156H3.75102C2.99183 26.6156 2.37551 25.9993 2.37551 25.2402V4.75985C2.37551 4.00066 3.00077 3.3754 3.75996 3.3754H17.872C18.6312 3.3754 19.2473 3.99172 19.2473 4.75091V6.93912C19.2473 7.0463 19.2027 7.1446 19.1313 7.22499L12.8076 13.5486H12.7987V13.5664L12.7718 13.5933L12.7897 13.6111L11.3966 18.7558C11.3162 19.0505 11.5839 19.3273 11.8876 19.2559L17.068 17.9161V17.8893V17.8983L27.9022 7.06417C28.063 6.9034 28.063 6.64447 27.9022 6.4837L24.0616 2.86634C23.9008 2.71451 23.6506 2.72344 23.4988 2.86634L21.3195 5.04561C21.0694 5.2957 20.6317 5.11711 20.6317 4.75985C20.6317 3.24147 19.3993 2 17.872 2H3.75996C2.24158 2 1 3.23254 1 4.75985V25.2402C1 26.7585 2.23265 28 3.75996 28H17.8005C19.3635 28 20.6228 26.7317 20.6228 25.1776V16.9337H19.2473V25.1776L19.2383 25.1686ZM13.3257 16.8265L13.7097 15.4064C13.7901 15.1027 14.1652 15.0044 14.3885 15.2277L15.4424 16.2817C15.6657 16.505 15.5585 16.8801 15.2549 16.9605L13.817 17.3356C13.5133 17.4159 13.2453 17.1391 13.3257 16.8354V16.8265ZM24.0705 4.77773L25.9105 6.51041C26.0802 6.66225 26.0802 6.93022 25.9105 7.09099L17.336 15.6653C17.1752 15.8261 16.9252 15.8261 16.7645 15.6653L14.9782 13.879C14.8174 13.7183 14.8174 13.4682 14.9782 13.3074L23.4988 4.78667C23.6506 4.63483 23.9008 4.6259 24.0616 4.78667L24.0705 4.77773Z" fill="white"/>
<path d="M17.1123 5.96558H4.08984V7.34108H17.1123V5.96558Z" fill="white"/>
<path d="M14.4149 9.63647H4.08984V11.012H14.4149V9.63647Z" fill="white"/>
<path d="M11.6104 13.3074H4.08984V14.6829H11.6104V13.3074Z" fill="white"/>
<path d="M9.71682 16.9784H4.08984V18.3538H9.71682V16.9784Z" fill="white"/>
<path d="M12.4678 20.6492H4.08984V22.0246H12.4678V20.6492Z" fill="white"/>
</svg>
