<svg width="16" height="17" viewBox="0 0 16 17" fill="none" xmlns="http://www.w3.org/2000/svg">
<g id="icons">
<path id="Vector" d="M7.15528 8.50005L3.71084 3.67783C3.50343 3.38154 3.47765 3.07428 3.6335 2.75605C3.78935 2.43783 4.05217 2.27842 4.42195 2.27783C4.5701 2.27783 4.71084 2.31131 4.84417 2.37828C4.9775 2.44524 5.08121 2.53768 5.15528 2.65561L9.33306 8.50005L5.15528 14.3445C5.08121 14.463 4.9775 14.5558 4.84417 14.6227C4.71084 14.6897 4.5701 14.7229 4.42195 14.7223C4.06639 14.7223 3.80713 14.5632 3.64417 14.2449C3.48121 13.9267 3.50343 13.6192 3.71084 13.3223L7.15528 8.50005ZM12.4442 8.50005L8.99972 3.67783C8.79232 3.38154 8.76624 3.07428 8.9215 2.75605C9.07676 2.43783 9.34017 2.27842 9.71172 2.27783C9.85987 2.27783 10.0006 2.31131 10.1339 2.37828C10.2673 2.44524 10.371 2.53768 10.4451 2.65561L14.6219 8.50005L10.4442 14.3445C10.3701 14.463 10.2664 14.5558 10.1331 14.6227C9.99972 14.6897 9.85898 14.7229 9.71084 14.7223C9.35528 14.7223 9.09602 14.5632 8.93306 14.2449C8.7701 13.9267 8.79232 13.6192 8.99972 13.3223L12.4442 8.50005Z" fill="white"/>
</g>
</svg>
