<svg width="30" height="30" viewBox="0 0 30 30" fill="none" xmlns="http://www.w3.org/2000/svg">
<g clip-path="url(#clip0_871_2151)">
<path d="M29.2528 8.5256L16.3047 1.89161C15.5606 1.50993 14.4392 1.50993 13.695 1.89161L0.747075 8.5256C0.272366 8.76875 -0.000503062 9.15178 6.96283e-07 9.57678C6.96283e-07 10.0018 0.272366 10.3848 0.746907 10.628L4.64516 12.6252C4.64499 12.6309 4.64197 12.6358 4.64197 12.6415V20.2262C4.64197 20.4296 4.74793 20.6183 4.92122 20.7243C5.08309 20.8229 8.95582 23.1435 15.1442 23.1435C18.0327 23.1435 20.4079 22.6372 22.1456 22.0881V23.8098C21.1417 24.0706 20.3952 24.9763 20.3952 26.0608C20.3952 27.3479 21.4418 28.3945 22.7289 28.3945C24.016 28.3945 25.0627 27.3479 25.0627 26.0608C25.0627 24.9763 24.3161 24.0708 23.3123 23.8098V21.6819C24.575 21.196 25.2993 20.7654 25.3669 20.7241C25.5402 20.6182 25.6462 20.4296 25.6462 20.2261V12.6416C25.6462 12.5882 25.6292 12.5404 25.616 12.4915L29.2529 10.6281C29.7276 10.3848 30.0005 10.002 30 9.57695C29.9998 9.15178 29.7275 8.76875 29.2528 8.5256ZM22.1452 20.8559C20.4788 21.417 18.0848 21.9768 15.144 21.9768C10.212 21.9768 6.78026 20.3895 5.80884 19.8817V13.2215L13.695 17.262C14.0671 17.4529 14.5331 17.5479 14.9998 17.5479C15.4664 17.5479 15.9324 17.4527 16.3045 17.262L22.1452 14.2695V20.8559ZM23.8958 26.0609C23.8958 26.7042 23.3722 27.2278 22.7289 27.2278C22.0856 27.2278 21.562 26.7042 21.562 26.0609C21.562 25.4176 22.0856 24.8941 22.7289 24.8941C23.3722 24.8941 23.8958 25.4176 23.8958 26.0609ZM24.4793 19.8828C24.238 20.0095 23.8442 20.2032 23.3124 20.4225V13.8085C23.3124 13.7645 23.2967 13.7257 23.2874 13.6844L24.4793 13.0739V19.8828ZM28.7206 9.58988L15.7725 16.2239C15.368 16.4313 14.6318 16.4313 14.2273 16.2239L1.27921 9.58988C1.27065 9.58534 1.26276 9.58081 1.2547 9.57678C1.26276 9.57275 1.27065 9.56822 1.27921 9.56368L14.2273 2.92985C14.6318 2.72247 15.368 2.72247 15.7725 2.92985L28.7206 9.56368C28.7292 9.56822 28.7371 9.57275 28.7451 9.57678C28.7371 9.58081 28.7292 9.58534 28.7206 9.58988Z" fill="white"/>
<path d="M8.66484 8.29657C8.5201 8.00825 8.17032 7.89205 7.882 8.03563L5.54826 9.2025C5.25994 9.34674 5.14324 9.69702 5.28731 9.98534C5.38991 10.1899 5.59561 10.3077 5.80971 10.3077C5.89753 10.3077 5.98636 10.2878 6.07015 10.2461L8.4039 9.07925C8.69222 8.93517 8.80892 8.58489 8.66484 8.29657Z" fill="white"/>
<path d="M10.216 9.20247L7.88224 10.3693C7.59393 10.5136 7.47722 10.8639 7.6213 11.1522C7.72389 11.3567 7.9296 11.4746 8.14369 11.4746C8.23152 11.4746 8.32035 11.4546 8.40414 11.413L10.7379 10.2461C11.0262 10.1018 11.1429 9.75157 10.9988 9.46325C10.8548 9.1751 10.5041 9.06008 10.216 9.20247Z" fill="white"/>
</g>
<defs>
<clipPath id="clip0_871_2151">
<rect width="30" height="30" fill="white"/>
</clipPath>
</defs>
</svg>
