<svg width="71" height="71" viewBox="0 0 71 71" fill="none" xmlns="http://www.w3.org/2000/svg">
<path d="M13.0787 8.12012H21.0149C22.4284 8.12012 23.3622 9.78818 22.7398 11.2123L15.0498 28.8656C14.9201 29.1607 14.8553 29.4817 14.8553 29.8153C14.8553 31.0085 15.7113 31.9709 16.7746 31.9709H29.2626C30.3259 31.9709 31.1818 32.9328 31.1818 34.1259V59.6318C31.1818 60.825 30.3259 61.7868 29.2626 61.7868H2.4192C1.35585 61.7868 0.5 60.825 0.5 59.6318V34.4598C0.5 34.1262 0.564871 33.8052 0.694548 33.5101L11.367 9.32603C11.6912 8.59474 12.3525 8.13327 13.0787 8.13327V8.12012ZM52.397 8.12012H60.3333C61.7468 8.12012 62.6804 9.78818 62.058 11.2123L54.3682 28.8656C54.2385 29.1607 54.1736 29.4817 54.1736 29.8153C54.1736 31.0085 55.0295 31.9709 56.0928 31.9709H68.5808C69.6441 31.9709 70.5 32.9328 70.5 34.1259V59.6318C70.5 60.825 69.6441 61.7868 68.5808 61.7868H41.7376C40.6742 61.7868 39.8182 60.825 39.8182 59.6318V34.4598C39.8182 34.1262 39.8831 33.8052 40.0128 33.5101L50.6852 9.32603C51.0094 8.59474 51.6708 8.13327 52.397 8.13327V8.12012Z" fill="#AD122A"/>
</svg>
