<svg width="15" height="14" viewBox="0 0 15 14" fill="none" xmlns="http://www.w3.org/2000/svg">
<path d="M9.68698 12.2147C9.68698 12.6269 9.35268 12.9567 8.94503 12.9567H1.74476C1.35543 12.9567 1.03937 12.6407 1.03937 12.2514V1.74865C1.03937 1.35932 1.36002 1.03868 1.74935 1.03868H8.98629C9.37562 1.03868 9.69157 1.35474 9.69157 1.74407V2.86622C9.69157 2.92119 9.66872 2.9716 9.63208 3.01283L6.38917 6.25568H6.38458V6.26485L6.37083 6.2786L6.38 6.28777L5.66555 8.92605C5.62433 9.0772 5.76165 9.21916 5.91738 9.18252L8.57399 8.49547V8.48171V8.4863L14.13 2.93035C14.2124 2.84791 14.2124 2.71512 14.13 2.63268L12.1604 0.777622C12.078 0.699756 11.9497 0.704337 11.8718 0.777622L10.7542 1.8952C10.626 2.02345 10.4015 1.93186 10.4015 1.74865C10.4015 0.969994 9.76953 0.333344 8.98629 0.333344H1.74935C0.97069 0.333344 0.333984 0.965413 0.333984 1.74865V12.2514C0.333984 13.03 0.96611 13.6667 1.74935 13.6667H8.94961C9.75117 13.6667 10.397 13.0163 10.397 12.2193V7.99164H9.69157V12.2193L9.68698 12.2147ZM6.65486 7.93668L6.85178 7.20842C6.89301 7.05269 7.08539 7.00227 7.19989 7.11678L7.74034 7.65729C7.85485 7.77179 7.7999 7.96417 7.64417 8.0054L6.9068 8.19773C6.75107 8.23896 6.61364 8.097 6.65486 7.94126V7.93668ZM12.165 1.75782L13.1086 2.64638C13.1956 2.72424 13.1956 2.86166 13.1086 2.94411L8.71142 7.34121C8.62898 7.42366 8.50078 7.42366 8.41833 7.34121L7.50227 6.42515C7.41982 6.3427 7.41982 6.21445 7.50227 6.132L11.8718 1.7624C11.9497 1.68454 12.078 1.67996 12.1604 1.7624L12.165 1.75782Z" fill="white"/>
<path d="M8.59613 2.36697H1.91797V3.07236H8.59613V2.36697Z" fill="white"/>
<path d="M7.21286 4.24951H1.91797V4.9549H7.21286V4.24951Z" fill="white"/>
<path d="M5.77468 6.13202H1.91797V6.83741H5.77468V6.13202Z" fill="white"/>
<path d="M4.8036 8.01459H1.91797V8.71992H4.8036V8.01459Z" fill="white"/>
<path d="M6.21438 9.89709H1.91797V10.6024H6.21438V9.89709Z" fill="white"/>
</svg>
