<svg width="18" height="19" viewBox="0 0 18 19" fill="none" xmlns="http://www.w3.org/2000/svg">
<path d="M5.33408 2.76002L7.98154 5.40719C8.33528 5.76094 8.33528 6.34277 7.98154 6.69651L7.20552 7.47267C6.57791 8.10028 6.57791 9.11558 7.20552 9.74319L8.88292 11.4209C9.51053 12.0485 10.5261 12.0485 11.1537 11.4209L11.7471 10.8275C12.1009 10.4737 12.6828 10.4737 13.0366 10.8275L15.5128 13.3036C15.8666 13.6573 15.8666 14.2392 15.5128 14.5929L14.9423 15.1635C13.185 16.9208 10.3321 16.9208 8.5748 15.1635L3.3143 9.9031C1.60263 8.19144 1.55703 5.41856 3.21163 3.64984L4.0332 2.77116C4.38694 2.3946 4.98035 2.38316 5.34551 2.74832L5.33408 2.76002Z" stroke="#AD122A" stroke-miterlimit="10"/>
</svg>
