<svg width="24" height="24" viewBox="0 0 24 24" fill="none" xmlns="http://www.w3.org/2000/svg">
<path d="M6.23927 1.51393L10.3996 5.67378C10.9554 6.22966 10.9554 7.14397 10.3996 7.69985L9.1801 8.91952C8.19386 9.90577 8.19386 11.5012 9.1801 12.4875L11.816 15.1238C12.8023 16.1101 14.3982 16.1101 15.3844 15.1238L16.3169 14.1913C16.8728 13.6355 17.7873 13.6355 18.3432 14.1913L22.2345 18.0824C22.7903 18.6383 22.7903 19.5526 22.2345 20.1085L21.3379 21.0051C18.5764 23.7665 14.0933 23.7665 11.3318 21.0051L3.06532 12.7388C0.375562 10.049 0.303896 5.69164 2.904 2.91222L4.19503 1.53144C4.75091 0.939693 5.68341 0.921727 6.25722 1.49554L6.23927 1.51393Z" stroke="white" stroke-miterlimit="10"/>
</svg>
